<?xml version="1.0"?>
<svg xmlns:rdf="http://www.w3.org/1999/02/22-rdf-syntax-ns#" xmlns="http://www.w3.org/2000/svg" xmlns:cc="http://web.resource.org/cc/" xmlns:dc="http://purl.org/dc/elements/1.1/" xmlns:svg="http://www.w3.org/2000/svg" id="svg2" viewBox="0 0 827.59 699.48" version="1.0">
  <g id="layer1" transform="translate(102.92 -80.453)">
    <path id="path2637" d="m302.61 494.51c-3.18-0.87-6.36 0.1-9.54 0.63-6.18 1.26-12.21 3.1-18.3 4.74-6.48 1.82-12.07 5.38-17.73 8.9-4.37 3.19-7.59 7.21-10.59 11.59-3.48 5.72-5.39 12.17-7.15 18.57-2.37 8.01-3.52 16.31-4.88 24.53-1.17 8.47-2.62 16.88-3.99 25.3-0.84 7.31-2.41 14.47-4.28 21.57-1.57 5.55-3.45 11.01-5.02 16.56-1.39 2.97-2.66 6.02-3.97 8.94-0.57 1.82-1.48 3.53-2.22 5.21 1.82-4.48-0.65-6.17-5.28-7.53-0.24 0.58 2.4-1.2 3.11-1.56 3.83-3.47 7.59-7 11.05-10.82 4.93-5.56 10.62-10.39 16.38-15.05 5.3-4.28 10.95-8.16 16.5-12.09 6.24-4.12 12.41-8.34 18.14-13.16 7.54-6.6 13.63-14.39 19.63-22.34 5.04-7.79 8.85-16.18 12.27-24.78 2.95-7.12 5.54-14.37 8.1-21.63 3.24-3.19 2.54-6.53 3.37-9.98 0.48-1.96 2.05-2.33 2.82-0.46 1.6 3.86 2.84 7.95 4.5 11.95 0.28 9.17-2.37 17.56-6.46 25.73-4.57 8.91-8.99 17.99-14.87 26.12-6.03 8.88-13.17 17.05-20.67 24.71-5.76 5.9-11.46 11.91-18.54 16.26-5.47 3.41-11.02 6.75-16.22 10.58-5.34 4.41-10.48 8.93-15.21 13.96-4.64 3.98-9.02 8.39-14.71 10.98-2.55 1.45-5.1 3.17-8 3.72-6.48-1.61-7.89-4.14-5.77-9.85 0.78-1.34 1.64-2.87 2.5-4.27 1.12-2.85 2.48-5.73 3.38-8.73 2.53-4.83 4.63-9.78 6.29-14.98 1.94-6.81 3.86-13.61 5.24-20.55 1.67-8.32 3.05-16.69 4.44-25.07 1.45-8.46 3.23-16.84 4.89-25.25 2.04-7.13 3.84-14.32 7.28-20.95 3.46-5.68 6.81-11.31 12.75-14.77 6.1-4.14 12.43-7.76 19.04-11.05 6.08-3.05 12.26-5.79 18.75-7.88 4.03-1.35 8.09-2.57 12.16-3.75 10.84-3.17 11.7 18.94 0.81 15.95z"/>
    <path id="path2639" d="m322.82 486.74c2.56 0.1 5.13 1.04 7.61 1.82 4.73 1.23 9.49 2.2 14.32 2.97 5.83 1.56 11.88 1.82 17.85 2.04 5.37 0.18 10.59-0.38 15.85-1.3 6.19-1.06 11.79-3.92 17.43-6.55 5.35-2.81 9.99-6.45 14.49-10.43 2.55-2.09 3.9-5.06 5.46-7.66 1.09-1.11 0.48-2.56 0.7-3.72-0.03-0.51-0.2-0.83-0.32-1.32-0.19-0.37 0.28 0.77 0.42 1.16 0.52 0.31 1.17 0.33 1.75 0.49-3.7-0.17-7.47 0.89-11.1 1.68-6.52 1.8-13.12 3.32-19.67 5.06-6.41 1.52-12.82 3.02-19.27 4.41-6.66 2.46-13.21 3.27-19.84 2.78-6.99 1.64-14.12 2.5-21.24 3.35-2.01 0.23-2.33-2.61-0.32-2.84 7.01-0.83 14.03-1.68 20.92-3.29 5.6-3.34 11.89-5.75 18.79-6.87 6.4-1.63 12.87-2.87 19.34-4.24 6.47-1.51 12.8-3.34 18.96-5.85 4.04-1.55 8.11-3.04 12.2-4.41 3.22-0.47 5.25-1.18 8.04 1.14 0.82 1.52 2.45 2.82 2.38 4.7 0.15 1.62 0.68 3.2 0.44 4.9-0.6 2.66-1.14 5.34-2.32 7.82-2.8 3.68-5.31 7.52-9.47 9.88-5.35 3.76-10.83 7.39-16.8 10.12-6.21 3.34-12.45 6.7-19.29 8.58-5.97 0.77-11.9 1.14-17.91 0.35-6.3-0.48-12.65-1.02-18.97-1.72-4.88-1.1-9.76-2.15-14.69-3-3-0.64-6.05-0.99-8.58-2.87-4.4-3.25-2.62-7.4 2.84-7.18z"/>
    <path id="path2647" d="m439.64 456.39c5.87 0.66 10.86-0.87 16.86-0.72 10.11 1.19 20.2 2.44 30.28 3.81 11.9 2.5 23.08 7.33 34.56 11.17 10.22 4.52 20.65 8.53 30.75 13.3 6.62 2.34 12.58 6.06 18.82 9.22 3.77 1.18 6.65 3.78 9.62 6.26 4.08 3.86 5.26 7.29 4.59 13.02-3.24 6.42-6.22 5.5-12.71 3.42-1.92-0.62-1.2-0.32-1.73-2.27-0.32-1.17-2.04-10.3-4-5.43 0.07 0.72 1.2 7.83 0.67 4.2-1.83-1.85-3.54-3.91-5.49-5.68-4.93-4.22-10.14-8.05-15.35-11.94-9.45-5.35-18.98-10.51-29.18-14.35-10.35-5.13-21.28-8.98-32.49-11.76-9.43-2.81-18.86-3.95-28.73-3.41-5.7-0.21-10.51-2.2-16.04-0.9-5.47 1.28-6.02-8.57-0.43-7.94z"/>
    <path id="path2679" d="m327.02 460.76c1.32-2.3 3.24-4.21 4.7-6.49 1.76-2.45 2.86-5.21 3.97-7.98 0.88-2.64 1.48-5.35 2.16-8.06 0.64-2.84 0.34-5.67 0.04-8.53-0.77-3.87-2.28-7.53-3.59-11.24-2.24-4.73-4.15-9.56-6.78-14.1-2.41-5.06-6.14-9.33-9.7-13.62-3.72-4.47-8.49-7.83-12.72-11.75-3.94-3.36-7.98-6.58-12.18-9.6-2.69-2.05-5.64-3.71-8.46-5.55-1.59-0.71-2.96-1.74-4.45-2.62-0.75-0.18-1.49-0.34-2.24-0.5-0.42-1.99-0.95-1.1-2.39-1.48-1.39 0.94-2.44 2.25-3.41 3.61-1.42 2.46-2.47 5.09-3.52 7.72-1.34 3.28-1.78 6.83-2.2 10.32-0.31 4.22-0.46 8.49-0.35 12.72 0.27 5.26 1.12 10.49 2.12 15.66 1.29 5.59 3.11 11.01 4.82 16.48 2.21 5.32 4.44 10.59 7.14 15.68 2.88 4.58 5.29 9.41 8.59 13.71 3.57 4.68 7.71 9.1 12.3 12.78 3.29 2.45 5.62 5.64 9.18 7.68 0.88 0.5 0.17 1.74-0.71 1.24-3.62-2.08-7.81-3.03-10.91-5.99-4.74-4.12-9.67-8.02-13.55-13.03-3.18-4.63-6.29-9.37-8.48-14.57-2.59-5.31-5.23-10.67-6.95-16.33-2.07-5.5-3.45-11.23-4.47-17.01-1.21-5.36-2.32-10.7-2.52-16.21-0.11-4.44-0.18-8.81 0.52-13.21 0.59-3.73 1.13-7.44 2.26-11.06 1.01-2.86 2.02-5.74 3.53-8.38 1.03-2.15 1.81-4.3 3.79-5.84 1.71-1.67 3.4-3.28 5.39-4.6 2.13 0.04 4.17 0 6.12 1.06 2.3 0.86 4.41 1.83 6.22 3.54 2.97 2.12 5.73 4.48 8.51 6.85 3.98 3.54 7.93 7.12 11.8 10.78 4.62 3.99 8.73 8.55 12.9 13.01 4.08 4.56 7.61 9.51 11.04 14.56 2.63 4.83 5.39 9.65 7.35 14.79 2.08 4.12 3.89 8.39 4.94 12.89 0.71 4 1.16 7.94 0.22 11.98-0.66 3.49-1.45 6.89-3.23 10.02-1.73 3.05-3.58 6.04-5.85 8.74-1.76 2.05-3.17 4.52-5.13 6.26-3.84 3.39-8.36 0.12-5.82-4.33z"/>
    <path id="path2687" d="m376.42 459.74c2.14-0.11 4.21-0.88 6.29-1.61 5.65-2.54 9.7-7.41 13.54-12.1 5.83-7.99 9.84-17.01 13.49-26.15 3.64-9.37 6.41-19.04 8.98-28.76 2.05-7.92 3.48-15.96 4.75-24.04 1-6.34 1.47-12.75 1.3-19.17 0.01-4.8-0.8-9.51-1.59-14.22-0.77-3.6-1.85-7.13-2.98-10.61-0.44-2.11-1.61-3.74-2.84-5.41-0.36-0.62-0.95-1.07-1.43-1.6 2.08-1.4-2.63 0.47-3.24 0.76-4.38 3.05-7.83 7.09-11.05 11.32-4.91 6.96-8.54 14.64-12.24 22.28-4.73 9.65-8.89 19.56-12.69 29.6-4.04 10.93-7.45 22.07-10.35 33.35-2.62 10.72-4.65 21.59-5.71 32.58-0.91 4.49-0.68 9.03-0.46 13.56 0.06 1.01-1.37 1.08-1.42 0.07-0.23-4.61-0.33-9.23-0.37-13.85 1.1-11.12 3.01-22.11 6.38-32.8 3.31-11.21 6.43-22.48 10.59-33.41 3.82-10.09 7.77-20.14 12.7-29.75 3.82-7.67 7.48-15.42 11.35-23.05 2.72-5.08 5.73-9.98 9.81-14.1 2.92-3.24 5.72-6.62 10.53-5.82 2.6 1.32 4.63 2.71 6.31 5.2 1.37 2.73 2.56 5.5 3.28 8.49 0.83 3.93 1.63 7.86 2.21 11.83 0.71 5.19 1.15 10.42 0.9 15.67-0.31 6.83-0.87 13.64-2.3 20.34-1.78 8.15-4.15 16.16-6.57 24.14-2.86 9.81-5.85 19.56-9.52 29.1-3.71 9.54-7.68 19.03-12.84 27.89-3.75 6.38-7.95 12.28-14.12 16.56-2.68 1.72-5.52 3.71-8.61 4.27-7.49 1.34-9.68-10.18-2.08-10.56z"/>
    <path id="path2689" d="m406.05 454.73c2.73-1.2 5.29-3.09 7.7-4.88 5.74-4.6 10.85-9.92 15.85-15.29 5.3-5.98 10.04-12.4 14.46-19.05 3.97-6.29 7.89-12.59 11.57-19.06 3.42-5.72 6.69-11.44 8.78-17.83 0.29-1.01 0.58-2.01 0.88-3.02 0.28-0.97 1.65-0.57 1.37 0.4l-0.9 3.06c-2.1 6.44-3.86 13.09-6.92 19.13-3.43 6.72-7.23 13.34-11.7 19.42-4.66 6.67-9.18 13.47-14.53 19.61-4.83 5.72-10.07 11.07-14.92 16.76-2.32 2.79-4.5 5.7-7.15 8.18-4.48 4.2-10.11-4.97-4.49-7.43z"/>
    <path id="path2691" d="m473.36 327.06c-0.33-1.34 0.39-3.35 0.78-4.9 0.59-2.54 0.64-5.11 0.5-7.69 0.16-2.11-0.21-4.21-0.45-6.3 0.1-0.7-0.55-1.95-0.62-2.21 1.84 1.15 0.02-0.1-0.18 0.9-3.74 2.87-6.26 6.95-8.67 10.94-4.52 7.4-9.36 14.61-14.18 21.82-5.35 7.87-10.79 15.67-16.05 23.6-5.25 7.88-10.2 15.96-14.8 24.24-0.49 0.88-1.74 0.19-1.25-0.7 4.62-8.31 9.59-16.42 14.86-24.33 5.26-7.93 10.7-15.73 16.05-23.6 4.81-7.2 9.63-14.38 14.15-21.76 2.58-4.29 4.59-8.89 7.41-13.03 2.21-2.3 3.88-3.37 6.72-1.26 0.87 1.62 1.75 3 1.55 5.05-0.02 2.27-0.13 4.54-0.13 6.82-0.4 2.7-0.69 5.39-0.89 8.1-0.1 1.76 0.05 3.97-0.8 5.31-1.57 2.47-3.32 1.83-4-1z"/>
    <path id="path2693" d="m442.25 433.78c1.69-3.77 4.8-6.39 7.55-9.35 6.42-6.82 11.15-14.94 16.87-22.32 7.4-8.89 14.43-18.06 21.14-27.47 7.11-10.43 14.65-20.73 20.11-32.13 4.37-9.02 7.46-18.51 10.06-28.16 2.36-7.68 4.07-15.53 5.89-23.35 1.03-5.84 1.83-11.7 2.1-17.62 0.52-3.14-0.42-6.06-1.19-8.94-0.42-1-1.37-1.33-2.14-1.93-0.1-0.34-1.4 0.3-2 0.43-6.74 2.24-11.66 6.1-16.15 11.5-4.21 5.58-2.12 2.67-6.25 8.75-0.57 0.84-1.75 0.03-1.18-0.8 4.19-6.16 2.07-3.21 6.33-8.86 4.75-5.71 8.19-12.26 13.21-17.66 3.97-2.88 7.84-3.84 12.22-1.23 2.27 2.22 4.18 4.48 4.74 7.75 0.23 4.07 0.03 7.92-0.99 11.9-1.36 5.94-2.91 11.84-4.72 17.67-1.98 7.86-4.28 15.63-6.27 23.48-3.24 9.61-7.13 19.01-11.99 27.93-6.18 11.14-11.59 22.73-18.76 33.33-6.38 9.74-13.29 19.08-20.35 28.33-5.65 7.43-11.94 14.4-16.74 22.44-2.23 3.47-4.1 7.11-7.49 9.62-2.94 2.2-5.51 0.05-4-3.31z"/>
    <path id="path2699" d="m299.67 481.87c-3.28-1.06-6.56-2.08-9.89-3.02-8.9-2.64-17.57-5.92-26.19-9.36-12.25-3.89-23.66-9.56-34.38-16.59-11.34-7.81-20.58-18-29.27-28.57-7.12-8.73-13.34-18.13-19.35-27.64-3.32-5.59-5.55-11.69-8.04-17.67-1.27-2.63-2.35-5.35-3.53-8.02-0.65-1.25-1.3-2.45-2.01-3.67-0.8-4.03 1.58-5.26 5.22-5.15 3.48 1.38 6.72 3.28 10.27 4.49 6.56 2.97 13.49 5.05 20.33 7.28 9.66 4.08 18.81 9.3 27.5 15.16 8.87 5.28 17.01 11.5 24.69 18.36 3.79 4.17 7.06 8.7 10.77 12.96 0.67 0.76-0.41 1.7-1.07 0.94-3.69-4.23-7.75-7.7-12.25-11.05-7.51-6.73-15.44-13.02-23.59-18.96-8.7-5.44-17.25-11.27-27.04-14.61-6.75-2.59-13.79-4.18-20.85-5.72-3.18-1.11-6.51-2-9.88-2.22 0.97-0.71 3.43-1.38 2.66-3.7 0.34 1.02 0.61 2.52 1.11 3.63 0.86 2.94 1.62 5.92 1.85 8.99 1.25 6.16 3.45 12.05 6.07 17.76 4.68 10.17 11.21 19.25 18.25 27.94 8.59 10.45 17.73 20.54 28.95 28.28 10.59 6.95 21.87 12.67 34.07 16.29 8.82 2.13 17.75 4.22 26.83 4.79 2.94 0.28 6.02 0.85 8.93 0.25 6.11-1.26 5.79 10.76-0.16 8.83z"/>
    <path id="path2725" d="m291.63 481.39c-2.28 1.05-4.83 1.39-7.33 1.68-6.15 0.57-12.29 1.1-18.47 1.15-10.18 0.01-20.37-0.2-30.55-0.15-12.91 0.18-25.74-0.79-38.62-1.59-14.31-1.02-28.48-3.08-42.52-6.06-14.07-2.97-27.72-7.35-41.32-11.96-11.25-3.71-22.103-8.43-32.802-13.48-6.903-3.55-13.992-6.83-20.716-10.74-3.824-1.97-7.341-4.53-10.798-7.07-2.537-1.9-4.353-4.25-5.891-6.96-1.173-2.13-1.666-4.48-2.207-6.81-0.422-1.57-0.416-3.14-0.364-4.74 0.098-2.57 1.442-4.05 3.034-5.88 2.638-1.35 5.309-0.95 8.116-0.77 4.142-0.19 8.288 0.09 12.435 0.09 6.551 0.45 13.098 0.79 19.624 1.55 7.676 0.89 15.333 1.93 23.009 2.84 8.01 0.79 15.74 3.05 23.45 5.24 8.13 2.5 16.26 5.03 24.43 7.38 7.95 2.25 15.23 6.05 22.9 9.04 0.94 0.37 0.42 1.7-0.52 1.33-7.67-2.99-15.63-4.06-23.55-6.28-8.17-2.37-16.34-4.71-24.5-7.1-7.52-2.13-15.14-3.77-22.86-5.02-7.561-1.24-15.166-1.94-22.812-2.45-6.328-0.41-12.657-1-18.992-0.38-3.991 0.25-7.892 0.98-11.829 1.63-0.34 0.1-4.726 1.5-2.41 1.08 0.244-0.4 1.299-1.58 1.121-1.81 0.027 0.23 0.347 1.65 0.278 2.33 0.227 1.18 0.345 2.36 1.02 3.38 0.995 1.36 1.92 2.74 3.291 3.76 3.086 2.49 6.289 4.85 9.427 7.29 6.111 4.42 12.123 8.95 18.697 12.68 9.948 5.88 20.169 11.36 30.909 15.66 13.25 4.91 26.88 8.86 40.72 11.75 13.86 2.61 27.87 4.57 41.95 5.39 12.7 0.79 25.45 0.6 38.16 0 10.08-0.38 20.15-1.03 30.18-2.04 6-0.65 12.01-1.07 18.01-1.74 2.46-0.19 4.99-0.47 7.34 0.35 5.01 1.73 5.77 5.21 0.96 7.43z"/>
    <path id="path2731" d="m322.9 377.7c1-2.77 2.79-5.11 4.72-7.31 3.36-4.91 6.72-9.83 10.24-14.63 3.49-5.1 7.13-10.08 11.23-14.71 3.28-3.78 7.24-6.27 12.05-7.52 5.08-0.89 9.37 1.35 13.23 4.41 4.84 3 6.75 8.01 9.72 12.47 0.4 0.69 0.81 1.38 1.21 2.07 0.51 0.88-0.72 1.6-1.23 0.72-0.39-0.66-0.78-1.33-1.17-2-2.7-4.06-7.14-6.86-10.69-10.16-3.23-1.91-6.46-3.68-10.32-3.55-4.15 0.81-7.78 2.29-10.84 5.43-4.35 4.22-8.17 8.93-11.56 13.96-3.14 4.97-6.34 9.9-9.03 15.13-0.71 2.23-1.7 4.39-1.97 6.71-0.46 3.99-6.94 2.76-5.59-1.02z"/>
    <path id="path2737" d="m335.71 357.07c-0.6-0.93-1.69-1.65-2.57-2.41-1.4-1.57-3.2-2.68-4.89-3.89-1.8-1.03-3.81-1.55-5.81-2.06-2.26-0.43-4.53-0.43-6.82-0.48-2.16 0.05-4.21 0.68-6.26 1.26-1.88 0.67-3.36 2.01-4.92 3.19-1.7 1.53-3.04 3.38-4.32 5.26-1.21 1.74-2.01 3.69-2.94 5.6-0.15 0.29-0.29 0.58-0.44 0.88-0.45 0.9-1.56 0.52-1.35-0.47 0.07-0.32 0.14-0.65 0.2-0.97 0.55-2.23 1.09-4.52 2.29-6.5 1.38-2.08 2.77-4.16 4.52-5.96 1.8-1.72 3.51-3.39 6-4.07 2.33-0.7 4.7-1.11 7.15-1.25 2.52-0.05 5.03 0.06 7.49 0.66 2.38 0.52 4.69 1.06 6.72 2.48 1.86 1.23 3.73 2.44 5.5 3.78 1.12 0.96 2.22 1.88 3.12 3.04 1.43 1.83-1.41 3.87-2.67 1.91z"/>
    <path id="path2741" d="m249.15 400.26c0.1-1.52-0.37-3.03-0.66-4.51-1.01-3.85-1.85-7.74-2.78-11.63-0.98-5.42-2.44-10.74-3.52-16.15-0.78-5.4-1.44-10.79-1.65-16.26-0.21-4.96 0.88-9.81 1.71-14.66 0.6-3.47 1.12-6.95 1.95-10.37 0.49-2.69 1.97-4.14 4.13-5.55 3.29-1.22 5.4 0.18 7.86 2.29 3.24 3.51 6.5 7.01 9.77 10.5 3.86 3.97 7.03 8.5 10.06 13.11 0.56 0.85-0.64 1.63-1.19 0.79-2.99-4.54-6.11-9.01-9.91-12.92-3.17-3.39-6.31-6.86-10.19-9.44-1.62-0.65-2.97-1.63-4.79-1.3-1.19 1.06-2.44 1.78-3.02 3.44-1.23 3.2-2.44 6.39-3.14 9.76-1.04 4.69-1.42 9.5-1.42 14.3 0.08 5.34 0.44 10.75 1.76 15.93 1.07 5.32 2.1 10.73 4.12 15.79 1.31 3.72 2.97 7.22 4.86 10.67 0.86 1.61 1.66 3.24 2.38 4.92 1.81 4.2-6.61 5.85-6.33 1.29z"/>
    <path id="path2749" d="m201.2 372.36c-0.75-1.6-1-3.4-1.39-5.12-0.86-3.67-1.67-7.34-2.26-11.07-0.86-5.46-1.79-10.92-3.02-16.31-0.89-4.74-2.16-9.41-2.86-14.19-0.69-3.76-1.3-7.52-1.86-11.3-0.4-2.1-0.76-4.18-1-6.3 0.09-3.05 1.45-3.74 4.08-4.66 2.25 0.74 3.72 2.61 5.3 4.28 2.66 2.78 4.99 5.82 7.4 8.8 3.35 3.7 6.25 7.7 9.1 11.79 3.11 4.52 6.05 9.14 9.04 13.75 2.89 4.09 5.29 8.45 7.71 12.83 1.71 4.28 3.64 8.45 5.18 12.8 1.45 3.87 2.56 7.84 3.76 11.78 0.52 3.1 0.98 6.19 1.59 9.26 0.19 0.99-1.06 1.33-1.38 0.37-1-2.95-2.1-5.85-3.32-8.72-1.11-3.93-2.34-7.82-3.49-11.73-1.41-4.24-2.54-8.62-4.89-12.47-2.06-4.45-4.56-8.71-7.06-12.93-2.84-4.64-5.81-9.2-9.04-13.58-2.92-3.94-5.81-7.88-9.01-11.58-2.5-2.7-5.08-5.34-8.12-7.44-0.46-0.31-3.12-2.4-2.72-1.39 0.15-0.11 2.67-1.68 1.85-1.17-0.1 1.91-0.31 3.84-0.11 5.76 0.3 3.74 0.54 7.48 1.02 11.21 0.82 4.7 1.31 9.46 2.34 14.13 0.93 5.37 1.95 10.76 3.66 15.94 1.26 3.44 2.49 6.9 3.96 10.25 0.69 1.63 1.49 3.23 1.92 4.95 1.15 4.6-4.36 6.35-6.38 2.06z"/>
    <path id="path2751" d="m200.17 372.98c-1.33-1.8-2.19-3.96-3.17-5.99-2.01-4.52-4.37-8.84-6.4-13.36-2.56-5.09-5.6-9.92-7.93-15.12-2.53-5.45-4.51-11.12-6.25-16.87-1.54-5.26-3.57-10.33-5.31-15.52-1.81-4.24-2.78-8.76-3.95-13.2-0.78-3.89-1.2-7.83-1.82-11.75-0.26-2.87-1.07-5.57-1.25-8.44-0.29-2.32-0.5-4.63-0.69-6.96-0.25-1.49-0.24-3.02-0.34-4.51-0.03-2.13 0.85-4.1 1.49-6.06 0.42-1.38 0.82-2.71 1.23-4.05 0.38-1.83 1.71-2.7 2.99-3.88 2.14-1.36 4.41-1.09 6.8-0.74 3.16 1.33 5.79 3.52 8.46 5.63 3.91 3.01 7.51 6.39 11.27 9.59 4.34 4.29 8.52 8.77 12.58 13.34 4.29 4.65 8.01 9.81 11.82 14.88 3.44 4.83 5.93 10.2 8.02 15.72 1.3 2.68 2.44 5.43 3.56 8.18 0.39 0.93-0.94 1.47-1.32 0.54-1.12-2.73-2.24-5.45-3.52-8.1-2.93-4.99-5.64-10.07-8.76-14.94-3.4-5.3-7.45-9.86-11.94-14.26-4.27-4.24-8.25-8.76-12.83-12.67-3.47-3.23-7.29-6.02-11.38-8.43-2.47-1.14-4.92-2.42-7.66-2.77-0.5-0.18-0.81-0.51-1.19-0.43-0.16 0.21-0.42 0.43-0.54 0.73-0.52 1.22-1.08 2.42-1.55 3.71-0.38 1.24-0.82 2.4-0.72 3.77 0.01 1.52 0.18 3.08-0.07 4.62-0.04 2.23-0.13 4.44-0.02 6.67 0.25 2.83-0.14 5.6 0.12 8.43 0.15 3.81 0.52 7.61 1.27 11.36 0.86 4.39 1.84 8.75 2.95 13.09 1.5 5.26 2.69 10.58 4.35 15.8 1.86 5.6 3.38 11.35 5.99 16.67 2.57 5.04 4.95 10.18 7.82 15.07 2.58 4.13 4.85 8.46 7.91 12.26 1.41 1.69 2.92 3.34 4.22 5.08 2.17 2.91-2.08 5.83-4.24 2.91z"/>
    <path id="path2755" d="m235.47 338.84c-1.09-2.46-1.65-5.11-2.32-7.7-1.43-4.71-2.89-9.42-4.68-14.02-2.2-5.46-3.55-11.19-4.69-16.95-1.02-5.82-2.07-11.63-3.11-17.44-0.87-4.39-1.44-8.84-1.96-13.28-0.28-3.65-0.58-7.3-0.75-10.95-0.27-2.67-0.36-5.36-0.34-8.04-0.13-2.02 0.51-3.94 0.93-5.88 0.97-2.39 2.08-3.16 4.49-3.69 3.29 0.53 6.08 2.39 8.82 4.19 4.13 3.23 8.38 6.28 12.44 9.59 4.45 3.65 8.12 8.07 11.6 12.61 2.27 2.89 4.46 5.81 6.48 8.87 0.56 0.84-0.54 1.63-1.16 0.83-2.24-2.88-4.35-5.84-6.45-8.83-3.42-4.46-7.01-8.8-11.38-12.37-3.97-3.25-7.99-6.58-12.64-8.81-2.4-1.14-4.63-2.73-7.37-2.62-0.48 0.38-1.9-0.13-1.6 1.26-0.55 1.66-1.07 3.28-1.2 5.05-0.28 2.6-0.39 5.22-0.62 7.83-0.12 3.62-0.26 7.21 0.24 10.81 0.44 4.42 1.01 8.82 1.87 13.18 1.05 5.8 2.09 11.6 3.11 17.41 1.12 5.67 2.4 11.34 4.67 16.67 1.93 4.57 4.27 8.95 6.14 13.54 1.08 2.24 2.2 4.49 3.19 6.77 1.19 2.73-2.51 4.69-3.71 1.97z"/>
    <path id="path2763" d="m238.36 337.04c0.4-2.12 0.38-4.31 0.42-6.47 0.16-3.54-0.07-7.1-0.22-10.65-0.17-3.67-0.14-7.34-0.09-11.02 0.1-2.67-0.24-5.28-0.64-7.9-0.21-2.18-0.3-4.35-0.48-6.49-0.39-1.88 0-3.67 0.33-5.49 0.14-1.57 1.22-2.5 2.06-3.68 1.36-1.7 2.81-1.42 4.69-1.59 3.01 0.5 5.42 2.17 7.79 3.97 3.05 2.51 5.64 5.45 7.88 8.69 2.6 4.04 4.75 8.34 6.97 12.6 2.13 4.26 4.16 8.57 6.17 12.89 1.79 3.56 3.1 7.28 4.41 11.03 0.15 0.49 0.31 0.99 0.47 1.48 0.31 0.97-1.05 1.4-1.36 0.44-0.16-0.49-0.31-0.98-0.47-1.47-1.29-3.69-2.75-7.31-4.35-10.88-2-4.3-4.01-8.59-6.14-12.84-2.19-4.2-4.32-8.45-6.87-12.44-2.13-3.08-4.51-6.03-7.67-8.11-2.21-1.16-4.35-2.58-6.96-2.72-0.87 0.26-1.81 0.02-2.44 0.84-0.57 0.79-1.27 1.46-1.66 2.36-0.17 1.6-0.37 3.19-0.4 4.81 0.07 2.12 0.22 4.27 0.37 6.43-0.05 2.7-0.14 5.4-0.27 8.1-0.05 3.64-0.08 7.29 0.09 10.94 0.15 3.53 0.23 7.09 0.84 10.57 0.29 2.08 0.49 4.23 1.3 6.17 1.03 2.48-4.26 3.06-3.77 0.43z"/>
    <path id="path2765" d="m259.39 297.57c0.32-1.84 0.44-3.72 0.57-5.59 0-2.98 0.68-5.85 1.38-8.72 0.62-3.25 1.75-6.37 2.97-9.43 1.34-2.92 3.47-4.92 5.93-6.86 2.11-1.65 4.55-2.73 6.91-3.97 2.58-1.38 5.13-1.44 7.92-1.27 3.69 1.14 6.3 3.8 9.04 6.35 3.59 3.37 5.29 8.05 6.98 12.56 0.36 0.95-0.98 1.45-1.33 0.5-1.62-4.33-3.93-8.06-7.28-11.29-2.45-1.97-4.89-3.98-8.03-4.67-2.15-0.15-3.92-0.33-5.9 0.89-2.26 0.95-4.4 2.1-6.46 3.44-1.96 1.6-3.82 3.27-4.86 5.65-1.24 2.83-2.41 5.65-2.94 8.73-0.37 2.7-0.79 5.42-0.75 8.16 0.08 1.7 0.06 3.48 0.63 5.09 1.15 3.2-5.37 3.78-4.78 0.43z"/>
    <path id="path2767" d="m297.86 308.78c0.31-1.62 0.39-3.23 0.65-4.86 0.27-3.34 0.69-6.61 1.23-9.92 0.78-3.77 1.75-7.48 2.68-11.22 0.58-3.23 1.59-6.35 2.71-9.41 0.81-2.46 1.98-4.72 3.38-6.89 1.13-1.88 2.84-3.22 4.48-4.58 1.71-1.67 3.54-2.16 5.82-2.47 3.07-0.09 5.65 1.08 8.3 2.35 3.2 2.48 5.82 5.57 8.03 8.95 2.94 4.07 4.66 8.79 6.85 13.26 2.61 4.5 4.35 9.42 6.09 14.3 1.42 4.53 2.08 9.2 3.48 13.73 0.29 0.96-1.07 1.38-1.37 0.42-1.38-4.49-3.48-8.64-5.31-12.96-1.83-4.74-3.94-9.34-5.98-13.99-2.09-4.29-4.49-8.44-6.98-12.51-2.06-2.84-4.14-5.69-7.08-7.67-1.79-1.31-3.47-2.65-5.78-2.67-1.48 0.36-3.05 0.49-4.35 1.46-1.41 1.25-2.87 2.39-4.06 3.88-1.28 1.99-2.69 3.94-3.55 6.17-1.18 2.97-2.36 5.92-3.24 9-0.98 3.66-2.04 7.34-2.48 11.12-0.4 3.24-0.85 6.5-0.87 9.78 0.11 1.58 0.03 3.17 0.38 4.73 0.48 2.09-3.43 2.1-3.03 0z"/>
    <path id="path2769" d="m333.31 245.86c2.16-2.41 3.45-5.47 5.06-8.27 2.42-4.09 5.16-7.96 7.96-11.79 2.25-3.21 4.78-6.2 7.34-9.16 1.42-2.05 3.28-3.57 5.21-5.08 2.32-1.32 3.56-0.51 5.74 0.43 1.86 1.73 3.64 3.55 5.4 5.36 2.42 3.54 4.82 7.07 6.76 10.92 2.09 4.08 4.19 8.11 5.75 12.44 1.49 3.69 2.68 7.48 3.81 11.29 0.95 2.5 0.86 5.21 0.86 7.78 0.01 1.01-0.94 1.21-1.39 0.31-1.11-2.21-2.32-4.54-2.97-7.04-1.19-3.72-2.32-7.45-3.48-11.17-1.56-4.15-3.05-8.37-5.11-12.29-1.95-3.58-3.71-7.37-6.51-10.38-1.34-1.83-2.55-3.7-4.6-4.83-1.03-0.33-1.9-1.1-3.11-0.73-1.89 1.12-3.77 2.25-5.27 3.95-2.55 2.91-5.05 5.87-7.28 9.04-2.76 3.79-5.48 7.62-7.87 11.66-1.63 2.83-3.41 5.63-4.27 8.8-0.44 1.62-3.16 0.01-2.03-1.24z"/>
    <path id="path2771" d="m348.27 307.14c0.85-1.86 2.21-3.42 3.33-5.13 2.44-3.74 5.29-7.19 7.94-10.78 3.2-4.22 6.91-8.01 10.28-12.08 2.9-3.52 6.07-6.79 9.35-9.95 2.35-2.33 4.77-4.58 7.19-6.84 1.49-1.6 3.39-2.68 5.2-3.81 3.44-0.89 4.51 1.14 5.01 4.14 0.98 2.9 1.39 5.9 1.72 8.95 0.58 4.36 0.8 8.75 0.99 13.14 0.12 3.06 0.3 6.12 0.46 9.19 0.05 1.01-1.38 1.08-1.43 0.07-0.16-3.07-0.34-6.13-0.46-9.2-0.19-4.32-0.35-8.67-1.03-12.95-0.75-2.7-1.36-5.62-2.75-8.02-1.02 0.17-1.57-0.17-0.34 0.05-1.36 0.75-2.73 1.48-3.9 2.59-2.6 1.95-5.16 3.92-7.7 5.96-3.29 2.91-6.57 5.82-9.45 9.15-3.48 3.87-6.47 8.12-9.63 12.26-2.63 3.4-4.6 7.15-6.37 11.06-0.84 1.72-1.44 3.54-2.46 5.15-2.52 3.96-7.88 1.33-5.95-2.95z"/>
    <path id="path2773" d="m364.54 330.44c1.15-1.63 2.29-3.21 3.62-4.7 1.27-2.03 3.08-3.4 5.02-4.73 0.83-0.57 1.57 0.38 0.89 1.12-1.44 1.58-2.9 3.17-4.32 4.78-0.84 1.55-1.84 3.06-1.97 4.85-0.18 2.47-4.66 0.71-3.24-1.32z"/>
    <path id="path2777" d="m388.02 328.26c-0.43-1.03-1.2-1.82-1.83-2.72-1.68-1.48-3.7-2.27-5.69-3.19-0.47 0.02-0.94 0.05-1.41 0.07-1.01 0.06-1.08-1.38-0.07-1.42 0.53-0.03 1.06-0.05 1.6-0.07 2.94-0.24 5.47-0.16 7.97 1.85 1.32 1.09 2.59 2.09 3.19 3.78 0.96 2.75-2.63 4.39-3.76 1.7z"/>
    <path id="path2783" d="m397.11 303.51c-1.73 1.64-2.4 4.21-3.03 6.51-1.48 6.13-1.82 12.52-2.21 18.8-0.21 3.32-0.1 6.65 0.03 9.97 0.04 1-1.39 1.06-1.43 0.05-0.12-3.37-0.24-6.74-0.02-10.1 0.39-6.38 1.19-12.71 1.69-19.07 0.3-3.08 0.26-6.26 1.33-9.19 1.15-3.15 6.08 0.73 3.64 3.03z"/>
    <path id="path2785" d="m402.07 302.65c-0.32 1.21-0.07 2.4-0.02 3.6 0.03 1.01-1.08 1.19-1.41 0.24-0.37-1.03-0.37-2.16-1.34-2.88-1.66-1.24 3.3-2.96 2.77-0.96z"/>
    <path id="path2787" d="m407.16 309.28c-0.15-2.18-0.36-4.15-0.17-6.33 0.23-3.04 1.09-6.03 1.88-8.97 0.49-2.61 1.55-4.97 2.77-7.3 1.13-1.94 2.54-3.3 4.38-4.46 4.16-0.47 4.79 2.27 6.31 5.55 1.67 4.94 3.8 9.69 5.49 14.63 0.34 1.08 0.69 2.16 1.04 3.25 0.3 0.96-1.06 1.39-1.37 0.43-0.34-1.07-0.68-2.15-1.02-3.22-1.63-4.77-3.16-9.71-6.67-13.48-0.67-0.65-3.8-2.33-1.79-2.24-0.65 0.53-1.92 0.98-2.31 2.09-1.14 1.87-2.33 3.72-2.93 5.86-0.72 2.76-1.41 5.52-1.93 8.32-0.24 1.99-0.93 3.87-0.91 5.87 0.01 1.95-2.64 1.95-2.77 0z"/>
    <path id="path2791" d="m394.45 246.15c1.85-2.8 4.03-5.45 5.83-8.37 3.06-4.91 6-9.88 8.93-14.86 2.09-3.61 4.42-7.05 6.73-10.51 1.63-2.61 3.72-4.19 6.43-5.41 3.47-0.28 5.35 1.7 7.42 4.18 2.72 2.93 3.86 6.67 4.91 10.45 1.53 5.3 2.8 10.71 3.55 16.18 0.98 5.64 1.06 11.36 1.31 17.06 0.16 2.39-0.16 4.76-0.24 7.15-0.03 1.01-1.46 0.96-1.42-0.05 0.07-2.37-0.11-4.72 0.01-7.09 0.15-5.63-0.32-11.27-1.13-16.84-0.96-5.35-1.72-10.75-3.45-15.93-1.43-3.36-3.4-6.27-5.51-9.22-1.49-1.32-2.67-2.86-4.77-3.06-2.31 0.73-4.16 1.52-5.7 3.66-2.61 3.17-4.89 6.56-6.91 10.15-2.93 4.99-5.88 9.98-8.94 14.89-1.77 2.86-3.2 5.88-4.61 8.83-0.83 1.73-3.5 0.39-2.44-1.21z"/>
    <path id="path2793" d="m434.95 265.2c2.34-1.49 4.09-3.72 5.96-5.75 1.85-2.19 3.43-4.56 5.17-6.84 1.14-1.61 2.68-2.87 4.18-4.15 2.8-0.83 4.3-0.19 6.31 1.63 1.81 2.86 2.64 5.96 3.33 9.24 0.57 5.59 0.88 11.21 0.75 16.83-0.14 6.72-1.07 13.39-1.91 20.06-1.51 7.39-3.45 14.66-5.95 21.78-2.87 6.75-4.39 14.01-7.86 20.48-2.27 2.57-3.88 5.2-5.07 8.38-0.36 0.94-1.69 0.44-1.34-0.5 1.19-3.18 1.7-6.2 1.64-9.63 1.54-7.12 5.23-13.53 7.19-20.55 2.18-6.81 4.71-13.6 5.11-20.8 0.91-6.38 1.32-12.8 1.44-19.24-0.1-5.16-0.18-10.33-1.52-15.35-0.53-2.4-0.98-4.82-1.3-7.24 0.19-0.23 1-0.82 0.97-1.21-1.23 0.58-2.78 1.13-3.88 2.31-2.17 1.79-4.33 3.6-6.18 5.75-1.69 2.02-3.77 3.92-4.41 6.55-0.52 2.17-4.51-0.55-2.63-1.75z"/>
    <path id="path2805" d="m275.9 260.36c1.08-2.97 2.71-5.77 4.02-8.68 2.78-6.12 5.13-12.45 7.55-18.73 2.12-5.51 3.91-11.14 6.12-16.61 1.15-3.7 2.51-7.31 4.11-10.83 1.25-2.8 3.1-4.77 5.51-6.52 3.92-2.03 6.55-0.13 9.69 2.28 3.14 3.35 6.25 6.8 8.68 10.71 2.9 4.46 5.62 9.08 8.18 13.76 2.22 4.24 4.04 8.68 5.93 13.08 0.39 0.93-0.92 1.49-1.32 0.56-1.86-4.36-3.66-8.75-5.86-12.96-2.51-4.6-5.38-8.84-9.31-12.37-3.27-2.7-6.04-6.01-9.65-8.28-1.02-0.51-2.05-1.11-3.07-1.55-1.31 1.24-2.63 2.34-3.4 4.05-1.78 3.23-3.58 6.49-5.1 9.87-2.27 5.43-4.79 10.76-6.96 16.23-2.5 6.08-5.25 12.24-6.29 18.76-0.46 2.89-0.78 5.8-0.97 8.7-0.36 5.64-9.79 3.84-7.86-1.47z"/>
    <path id="path2811" d="m229.71 241.82c1.74-1.43 3.14-3.19 4.58-4.88 1.9-2.97 3.69-6.03 5.55-9.04 0.51-0.9 1.12-1.74 1.69-2.6 0.55-0.85 1.73-0.06 1.18 0.79-0.55 0.86-1.16 1.68-1.66 2.57-1.85 3-3.73 5.98-5.4 9.08-0.75 2.05-1.61 4.11-1.98 6.29-0.54 3.16-6.43-0.17-3.96-2.21z"/>
    <path id="path2833" d="m264.13 215.09c2.11 0.29 3.74 1.57 5.57 2.57 2.36 1.55 4.8 2.96 7.2 4.42 2.21 1.17 4.01 2.79 5.74 4.56 1.24 1.55 2.43 2.97 3.88 4.27 0.98 0.83 1.82 1.83 2.67 2.77-0.27 0.47-0.54 0.94-0.8 1.41-0.57 1-0.18 0.55-1.18 1.13-0.46 0.27-0.92 0.54-1.38 0.8-0.96-0.92-1.96-1.86-2.84-2.87-1.1-1.62-2.28-3.07-3.61-4.53-1.5-1.46-2.99-2.97-4.7-4.22-2.18-1.62-4.35-3.23-6.93-4.21-1.6-0.87-3.21-1.61-4.82-2.37-2.5-1.18-1.54-4.1 1.2-3.73z"/>
    <path id="path2841" d="m364.75 211.73c1.84-1.04 3.34-2.57 4.88-3.98 2.87-2.26 5.17-5.08 7.63-7.75 1.63-2.12 3.45-4.07 5.31-5.98 2.1-2.01 4.14-2.02 6.83-1.83 3.2 1.26 5.43 4.06 7.79 6.44 2.85 3.21 5.29 6.77 7.85 10.21 1.84 2.66 3.68 5.26 5.1 8.16 0.51 1.24 0.15 2.53-0.03 3.8-0.15 1-0.51 1.08-1.34 0.5-0.94-0.65-1.96-1.29-2.61-2.24-1.55-2.65-2.76-5.48-4.38-8.1-2.07-3.54-4.24-6.96-7.15-9.9-1.85-1.85-3.54-3.7-6.2-4.48-1.15 0.07-2.08-0.48-3.1 0.65-1.97 1.59-3.93 3.19-5.79 4.92-2.53 2.58-5.19 5.05-7.17 8.1-1.27 1.7-2.62 3.38-3.58 5.28-1.77 3.5-7.46-1.88-4.04-3.8z"/>
    <path id="path2845" d="m180.13 248.85c0.27-2.08 0.5-4.18 0.85-6.26 0.47-2.95 0.86-5.9 1.1-8.89 0.16-2.5 1.12-4.6 2.4-6.7 2.44-2.56 4.75-2.32 7.86-1.91 3.34 0.98 6.27 2.48 9.17 4.34 3.04 2.49 5.96 5.03 8.78 7.75 2.13 1.74 3.62 3.91 5.03 6.22 0.53 0.86-0.33 1.58-1.09 0.91-1.99-1.72-3.84-3.52-5.45-5.62-2.64-2.69-5.19-5.55-8.42-7.54-2.57-1.62-4.97-3.54-8.16-3.1-1.42 0.51-2.9 0.68-3.96 1.85-0.76 1.46-1.86 2.76-2.01 4.59-0.78 2.79-1.27 5.62-1.51 8.52-0.16 2.16-0.47 4.3-0.78 6.43-0.39 2.7-4.17 2.12-3.81-0.59z"/>
    <path id="path2853" d="m296 330.82c1.12 1.87 1.3 3.98 1.52 6.11 0.63 3.9 0.91 7.19-0.9 10.79 0.09 0.72 0.18 1.43 0.26 2.15 0.13 1-1.29 1.17-1.41 0.17-0.09-0.71-0.18-1.43-0.26-2.14-2.56-2.98-3.1-6.17-3.68-9.96-0.42-2.19-0.93-4.35-0.13-6.48 1.15-3.08 2.91-3.45 4.6-0.64z"/>
    <path id="path2855" d="m310.18 327.29c0.13 2.66-0.24 5.8-0.24 8.66 0.19 3.5-0.68 6.78-0.32 10.25 0.1 1-1.3 1.16-1.42 0.16-0.44-3.5-1.97-6.63-2.2-10.19-0.31-2.76-0.85-5.75-1.24-8.29-0.58-3.81 5.22-4.43 5.42-0.59z"/>
    <path id="path2857" d="m325.45 314.04c0.25 2.86-0.36 5.61-0.82 8.42-0.16 5.43-2.44 10.21-3.97 15.3-0.29 0.97-1.22 0.93-1.42-0.06-1.08-5.2-2.72-10.17-2.26-15.58-0.19-2.44-0.57-4.88-0.75-7.31-0.48-6.52 8.67-7.29 9.22-0.77z"/>
    <path id="path2859" d="m335.57 327.37c-0.39 2.41-0.95 4.84-1.3 7.29-0.34 2.87-1.3 5.52-1.81 8.35-0.18 0.99-1.42 0.89-1.43-0.12-0.02-2.92-0.48-5.73-0.07-8.65 0.25-2.39 0.37-4.78 0.39-7.16 0.03-2.99 4.7-2.66 4.22 0.29z"/>
    <path id="path2861" d="m350.06 321.11c-0.66 3.44-2.03 6.96-3.02 10.4-1.41 4.6-3.55 8.66-4.35 13.44-0.16 1-1.57 0.76-1.4-0.23 0.78-4.73 0.22-9.27 0.35-14.03 0.05-3.44-0.31-6.9-0.6-10.22-0.55-6.37 10.24-5.64 9.02 0.64z"/>
    <path id="path2872" d="m372.94 498.82c1.84 2.42 3.97 4.65 6.02 6.91 5.11 3.38 10.21 7.24 14.53 11.65 5.17 5.45 10.28 10.94 15.45 16.43 4.15 4.48 9.51 7.62 14.47 11.15 5.02 2.91 10.36 4.61 15.88 6.18 7.55 1.73 15.35 1.87 23.05 1.89 11.05-0.32 22.05-1.34 32.93-3.25 12.65-2.12 24.85-6.1 36.84-10.58 9.96-3.87 19.66-8.4 29.2-13.23 5.1-2.79 10.3-5.42 15.4-8.18 2.96-1.62 5.81-2.74 9.09-3.18 2.02 1.02 4.2 1.61 6.24 2.4 1.33 0.52 1.22 0.4 0.93 1.8-0.45 2.16-1.06 4.36-1.55 6.58-2.82 2.61-5.75 4.28-9.61 5.19-5.56 1.55-11.04 3.37-16.59 4.96-10.3 3.27-20.44 7.01-30.61 10.68-12.45 4.25-25 8.24-37.81 11.29-11.23 2.44-22.5 4.82-34 5.63-8.8 0.79-17.65 1.36-26.41-0.2-6.98-1.5-13.92-4.06-19.56-8.54-5.63-4.21-10.66-8.62-15.01-14.21-4.86-5.69-9.4-11.61-14.25-17.28-4.04-4.52-7.67-9.45-11.54-14.06-2.44-2.06-4.86-4.17-7.29-6.2-3.08-2.58 1.77-7.03 4.2-3.83z"/>
    <path id="path2880" d="m451.7 455.5c5.59 0.68 11.15-0.07 16.68-0.96 13.59-1.65 26.56-6.17 39.41-10.67 14.39-4.96 28.46-10.74 42.29-17.08 9.26-4.77 17.89-10.61 26.43-16.54 5.44-3.8 10.91-7.54 16.16-11.59 3.85-2.91 7.26-6.28 10.53-9.8 1.85-1.89 3.27-3.96 4.61-6.2 0.15-0.54 0.02-1.11 0.04-1.67 0.71 0.11-3.77-1.39-4.51-1.61-7.75-1.37-15.7-1.07-23.53-0.59-10.77 0.48-21.46 2.12-32.13 3.62-10.34 1.67-20.69 3.27-31.01 5.06-1.41 0.24-1.75-1.75-0.34-1.99 10.34-1.79 20.71-3.4 31.07-5.07 10.72-1.51 21.46-2.78 32.2-4.1 8.14-0.91 16.21-2.28 24.36-3.09 4.73 0.2 9.2-0.08 12.12 4.22 0.61 3.17 0.93 5.66-0.86 8.56-1.63 3.16-3.17 6.46-5.8 8.93-3.89 3.5-7.89 6.95-12.27 9.87-5.74 3.73-11.33 7.68-17.49 10.7-9.38 4.81-19.01 9.08-28.74 13.13-13.88 6.37-28.01 12.16-42.46 17.15-12.98 4.54-25.96 9.09-38.79 14.06-5.84 1.9-11.51 4.21-17.32 6.14-7.05 2.34-8.02-11.37-0.65-10.48z"/>
    <path id="path2882" d="m346.3 506.73c-2.92-0.49-5.58 0.5-8.33 1.28-4.53 3.59-3.84 0.3-5.12 0.18 2.83 1.18 5.97 0.67 8.97 0.49 4.09-0.98 5.31-1.49 8.72 0.03-0.33 2.84-2.08 5.12-3.33 7.69 2.85 4.19 2.24 9.57 3.1 15.01 0.44 6.71 1.85 13.09 0.77 19.79-2.03 12.82-3.34 25.73-4.72 38.64-1.33 20.27-3.09 40.52-3.76 60.82-0.78 19.95-0.68 39.93-1.49 59.88 0.68 9.53-1.76 18.7-2.82 28.06-0.16 1.42-1.9 1.4-2.02-0.02-0.83-9.41-2.92-18.7-1.69-28.22 0.29-19.97 1.56-39.91 1.88-59.88 0.52-20.32 0.16-40.67 0.12-60.99-0.44-13.16-0.86-26.34-1.15-39.49-0.02-6.68 2.53-12.33 3.8-18.8 0.45-6.13 1.03-11.06 4.55-15.63 0.22-1.04 1.45-8.39 1.84-5.01-1.22 0.05-2.44 0.21-3.66 0.14-3.96 0.23-8.11 0.86-11.84-0.7-2.89-5.36 2.02-5.45 6.16-7.07 2.97-1.02 6-1.98 8.84-3.34 4.61-2.21 6.22 7.99 1.18 7.14z"/>
    <path id="path2965" d="m323.46 728.99c12.85-1.09 24.25-10 35.34-16.07 33-17.82 67.99-31.44 103.24-44.05 42.82-15.07 87.26-24.15 132.24-29.48 30.52-3.05 61.37-1.54 91.76 2 24.21 3.77 21.9 22.74 5.85 35.59-6.96 4.1-13.22 9.69-18.03 16.18-4.68-18.92 6.38-6.52 17.87 0.09 14 6.73 25.67 15.23 32.28 29.49 3.72 17.42-9 26.99-22.34 34.94-18.7 8.95-38.92 14.06-59.15 18.17-30.22 4.24-60.6 4.09-90.99 2.69-39.89-2.63-79.65-6.95-119.46-10.55-34.03-3.34-68.19-4.71-102.35-5.52-13.79-0.48-29.1-0.99-40.86 6.02 6.17-13.81 5.74-9.05 21.9-3.67 25.14 7.8 51.48 10.14 77.65 11.21 31.85 1.01 63.72 0.73 95.58 0.77 28.05 0.13 56.1 0.47 84.16 0.12 12.21-0.13 24.4-0.64 36.6-1.11 2.02-0.08 2.13 2.77 0.11 2.85-12.22 0.48-24.44 0.98-36.68 1.11-28.06 0.36-56.13 0.01-84.19-0.11-31.9-0.04-63.81 0.24-95.7-0.77-26.56-1.1-53.15-1.73-79.69-3.39-9.34-0.8-46.45-5.5-22.94-20.21 14.63 2.09 29.27 4.76 44.12 4.33 34.23 0.81 68.46 2.17 102.55 5.53 39.77 3.59 79.48 7.9 119.33 10.53 29.88 1.38 60.52 3.07 89.69-4.82 18.97-5.05 37.28-11.95 52.97-24.11 6.32-4.9 12.49-9.95 13.35-18.35-3.54-10.82-10.72-17.54-21.69-21.95-15.14-4.46-32.06-1.84-33.22-21.59 7.47-9.22 19.57-11.9 28.18-20.17 6.07-6.43 11.24-4.34 1.91-13.28-26.92-15.25-58.4-11.23-88.24-9.18-44.76 5.3-88.99 14.34-131.6 29.33-35.11 12.56-69.96 26.12-102.84 43.87-11.68 6.39-24.22 11.96-34.25 20.82-4.06 3.58-7.85-6.8-2.46-7.26z"/>
    <path id="path2971" d="m313.75 726.57c-1.8-9.77-6.61-18.62-11.08-27.5-15.28-23.68-39.85-39.34-63.32-53.97-36.01-21.31-75.55-35.07-115.53-46.71-41.316-11.46-83.835-16.81-126.6-17.91-26.88 1.17-58.485 0.55-79.22 20.17-11.744 18.3-0.654 35.21 12.351 49.23 28.944 25.08 64.767 39.21 100.43 51.75 32.275 9.89 66.143 18.87 100.02 13.88 13.38-4.28 21.91-10.88 16.58-24.6-12.89-23.43-39.36-29.87-63.328-36.23-35.37-8.46-71.638-9.61-107.75-7.21-23.213 3.48-51.883 4.49-68.072 23.77-7.49 14.39 4.848 25.98 14.749 35.38 30.052 18.74 64.934 26.94 99.075 34.7 43.6 9.49 88.126 12.1 132.62 12.2 33.65-0.19 67.14-3.43 100.45-7.92 2-0.27 2.38 2.57 0.38 2.83-33.44 4.51-67.06 7.76-100.84 7.94-44.69-0.09-89.434-2.72-133.24-12.26-34.539-7.85-69.798-16.2-100.18-35.2-15.551-9.43-34.67-24.8-17.223-42.64 21.863-13.41 46.635-19.5 72.095-21.66 36.424-2.4 73.002-1.24 108.67 7.31 25.928 6.89 54.048 14.96 73.858 33.86 11.13 22.73-4.8 34.66-27.49 34.31-34.559 0.26-68.544-4.13-101.31-15.77-36.084-12.69-72.305-27.02-101.54-52.45-15.57-15.32-35.38-35.88-13.298-55.22 25.197-14.93 53.102-19.53 82.292-19.02 43.01 1.11 85.773 6.48 127.33 18.02 40.22 11.71 80.01 25.57 116.24 47.02 24.23 15.12 46.89 32.1 66.52 52.99 7.84 7.98 15.65 16.98 19.72 27.43 3.55 9.09-11.58 13.07-13.35 3.48z"/>
    <path id="path3109" d="m596.7 97.593c1.43-1.118 0.01-2.949-0.14-3.234 2.41 0.137 4.76-0.377 7.08-1.03 1.98-1.035 4.65-0.83 6.36-2.271 0.13-0.114 0.28 0.096 0.14 0.21-1.9 1.598-3.43 3.427-5.99 3.936-2.51 0.908-4.99 2.046-7.57 2.648-2.23 0.052-3.38-2.137-1.52-3.864 1.98-1.846-0.48 5.264 1.64 3.605z"/>
    <path id="path3111" d="m606.49 84.029c1.39 0.423 1.08 2.67 1.15 3.951 0.14 2.847 0.54 5.672 1.42 8.362 0.73 2.069 1.25 0.597-0.15 0.646-0.21 0.008-0.52 0.424-0.35 0.559 0.26 0.213 0.65-0.036 0.97-0.054 0.15-0.336 0.3-0.673 0.44-1.01 0.08-0.169 0.3-0.055 0.22 0.114-0.15 0.343-0.3 0.686-0.45 1.028 0.63 4.205-3.66 2.555-3.16-0.626-0.39-2.887-0.8-5.775-1.38-8.624-0.29-1.329-1.05-2.889-0.17-4.083 0.65-0.894 0.45-0.57 1.46-0.263z"/>
    <path id="path3113" d="m614.94 83.086c0.39-1.061 0.7-1.927 1.6-2.633 3.28 0.419 2.14 4.081 1.69 6.521-0.4 2.688-1.01 5.353-0.55 8.072-0.68 0.26 0.47 0.691 0.45 0.466-0.05-0.708-0.97-1.01-1.59-1.23 1.4-1.243 2.79-2.479 4.29-3.579 2.09-1.761 4.87-2.013 7.43-2.214 2.02 0.081 4.12-0.754 6.11-0.308 0.81 0.662 0.44 0.255 1.07 1.263 0.1 0.154 0.1 0.065 0.08 0.251-0.16 1.325 0.06 0.744-0.61 1.766-1.9 1.125-4.23 0.834-6.32 1.16-2.05 0.229-4.06 0.485-6.04 1.148-1.51 0.884-2.63 2.198-3.7 3.65-2.14 2.136-4.97 0.937-4.41-2.397 0.41-2.802 0.88-5.594 1.22-8.41 0.1-2.056-0.9-3.039 1-2.899 0.34-1.17-0.74-0.857-1.18-0.308-0.28 0.356-0.7 0.119-0.54-0.319z"/>
    <path id="path3115" d="m593.11 110.42c0.96-0.74 2.38-1.18 3.61-1.56 4.58-1.29 9.16-2.64 13.73-4.01 4.82-1.46 9.59-3.13 14.32-4.926 1.44-0.42 3.94-1.676 4.89 0.216 0.08 0.17 0 0.08-0.01 0.27-0.19 1.94-2.87 1.98-4.19 2.37-4.91 0.99-9.75 2.38-14.57 3.82-4.55 1.35-9.15 2.57-13.6 4.23-1.41 0.54-2.75 1.01-4.18 1.03-0.93 0.01-0.76-0.86 0-1.44z"/>
    <path id="path3117" d="m598.39 116.2c-0.45 0.62 0.32 0.88 0.73 1.13 0.57 2.26 1.82 4.11 3.29 5.78 1.75 1.86 1.61 0.03 0.73 0.43-0.72 0.64-1.44 1.28-2.16 1.93 0.06 0.06 0.11 0.12 0.17 0.19-0.32-1.78-1.23-3.38-1.76-5.12-0.63-3.81 2.62-5.24 5.31-6.41 4.39-1.92 8.75-3.92 12.82-6.56 3.17-2.93 9.08-4.81 7.88 2.33-1.68 2.82-3.1 5.77-3.69 9.09-0.73 4.27-1.32 3.14-4.36 2.97-0.17-0.01-0.15-0.28 0.02-0.26 0.23 0.02 0.61 0.29 0.68 0.05 0.18-0.61-2.36-3-0.49-4 0.97-3.03 2.1-6.1 2.51-9.28-0.1 5.26 6.42 0.22-1.21 2.41-4.49 1.48-8.78 3.59-13 5.8-1.11 0.74-2.99 1.63-3.49 3.05 0.2 1.76 1.29 3.26 2.17 4.69 1.66 4.24-4.03 4.39-4.45 0.76-1.44-2.22-2.99-4.36-4.29-6.67-0.41-1.77 0.22-2.78 1.48-3.78 1-0.79 1.87 0.42 1.11 1.47z"/>
    <path id="path3119" d="m597.84 119.67c0.88-1.97 4.58-1.58 6.33-1.76 3.14 0.03 6.3-2.11 9.4-1.27 3.46 2.58-0.66 4.73-2.61 6.3-3.58 2.56-1.15 6.71-1.63 0.94-3.71-1.46 1.74-0.99 2.76-0.95 1.75 0.34 1.12 0.69 2.03-0.63 0.1-0.15 0.3 0.01 0.2 0.15-1.02 1.45-0.59 0.57-1.04 2.78-2.11 3.08-5.22 4.84-8.55 2.9-1.23-6.39 1-3.81 4.93-7.16 1.88-1.45 2.75-3.35 3.73-0.38-2.7 0.89-5.9-0.21-8.59 1.1-2.03 0.6-4.66 2.2-6.64 1.08-1.8-1.02-1.2-1.11-0.32-3.1z"/>
    <path id="path3121" d="m612.08 100.92c1.1 0.45 0.26 2.49 0.13 3.44-0.7 5.09-0.78 10.25-0.64 15.39 0.13 4.88 1.15 9.65 1.63 14.48 0.56 4.5-0.89 4.29-3.35 6.55-0.13 0.12-0.29-0.09-0.16-0.21 1.14-1.01-0.89-4.39-0.03-6.18 0.12-4.85 0.17-9.71-0.05-14.56-0.22-5.21-0.5-10.42-0.96-15.62-0.08-1.33-0.67-3.93 0.81-4.582 1.89-0.832 0.72 0.522 2.62 1.292z"/>
    <path id="path3123" d="m586.04 133.44c1.72-1 3.78-1.19 5.71-1.37 7.12-0.46 14.17-1.68 21.19-2.96 7.62-1.41 15-3.88 22.42-6.12 2.65-0.63 5.84-1.71 7.67 1.05 0.41 1.53-0.06 1.28 0.86 1.43 0.17 0.03 0.14 0.29-0.03 0.26-0.93-0.14-0.41-0.23-1.25 1.08-1.99 1.82-4.39 0.77-6.79 0.59-7.67-0.44-15.23 0.79-22.68 2.74-6.97 1.82-13.92 3.68-20.95 5.19-0.2 0.04-4.45 1-3.27 0.74 2.6-0.58-5.22-1.26-2.88-2.63z"/>
    <path id="path3125" d="m574.52 87.627c0.79-2.646 1.07 0.296 1.37 1.49 0.59 3.373 2.82 5.201 4.78 7.626 0.18 0.222-0.11 0.498-0.29 0.276-2.05-2.543-3.85-4.456-7.09-4.84-2.5-0.761-4.71-2.034-3.79-5.243 1.07-3.719 3.91 4.396 5.02 0.691z"/>
    <path id="path3131" d="m565.29 101.38c1.39 0.53 2.87 0.66 4.32 0.93 3.16 0.64 6.31 1.35 9.36 2.48 3.41 1.47 3.74 4.45 1.34 7.24-1.37 1.32-3.66 2.33-4.04 4.16 1.19-2.51-0.46-2.08 3.24-0.7 3.09 0.93 5.05 2.78 5.6 6.26 0.27 1.84-1.28 3.7-1.04 5.28 0.04-2.32 0.63-0.85 1.65 0.58 1.6 4.64-2.29 6.5-5.54 7.91-3.31 1.22-6.49 2.74-9.63 4.39-1.71 1.56 1.08 1.46 0.78-1.96-0.21-2.45-3.32-1.89 0.36-1.47 5.53 0.08 11.02 0.49 16.53 0.99 6.24 0.69 12.28 2.45 18.33 4.18 5.07 1.8 10.24 2.43 15.54 2.22 7.13-0.74 14.24-2.01 21.18-3.92 4.34-0.28 7.71-1.05 11.48-3.36 0.15-0.09 0.26 0.14 0.12 0.24-3.7 2.26-6.7 5.21-10.39 7.49-7.16 2.75-12.77 7.11-20.37 7.97-6.21 0.56-13.69-1.8-19.34-4.92-5.47-2.53-11.13-6.15-17.03-7.1-5.23-0.92-10.64 0.17-15.9 0.98-1.06 0.18-2.18 0.98-3.17 0.55-4.05-1.76-3.16-5.49 0.37-6.02 3.15-1.11 6.41-2 9.2-4.05 1.5-1.32 1.49-3.17 2.27-1.2-0.13-0.36-1.98-2.73-1.5-4.24 0.37-1.39 1.15-2.6 1.32-4.06 0.36-1.48-0.98-2.18-2.07-2.74-2.55-0.95-6.61-1.37-5.23-5.42 1.5-1.59 3.48-2.56 4.83-4.34 0.68-1.04 1.16-0.98-0.15-2.27-2.43-1.99-5.24-3.14-8.29-3.45-1.46-0.1-2.94-0.25-4.39 0.05-1.72 0.34-1.39-3.32 0.26-2.68z"/>
    <path id="path3133" d="m571.3 187.61c3.73 0.72 7.47-0.29 11.06-1.27 4.89-1.35 8.86-4.13 12.44-7.61 1.42-0.89 0.36-3.95 0.17-1.79-0.26 1.67-1.08 2.98-1.02 4.85 0.17 2.92 1.4 4.06 4.17 4.09 5.17-1.59 8.07-6.53 10.59-10.97 1.07-2.79 0.17-8.74 4.61 0.64 0.53 1.14-1.87 1.71-2.7 2.65-1.49 2.76-6.58 8.32-3.99 11.55 1.87-1.64-1.19-1.34-1.01-2.1 0.38-1.66 7.69-5.34 9.05-6.24 5.46-3.7 11.22-7.2 17.76-8.47 3.28-0.38 7.09 0.03 7.47 3.89 0.04 0.35-0.12 0.2-0.47 0.16-1.85-0.19-4.06 0.11-6.09 0.46-5.97 1.27-11.6 3.14-16.47 6.99-3.34 2.65-10.93 11.48-14.11 5.4 1.67-4.4 3.57-8.69 5.06-13.15 0.36-1.25-0.37-4.19 0.87-3.8 8.66 2.65 4.32 2.07 2.03 3.6-4.04 3.84-7.77 8.01-11.92 11.72-5.17 2.32-8.31-1.28-9.55-6.24-0.2-4.4 0.83-9.88 6.33-9.71 4.47 1.56 4.1 5.27 1.59 8.64-3.54 4.21-8.9 6.02-13.67 8.5-3.54 1.65-7.29 3.08-10.45 5.38-4.22 3.08-6.87-8.17-1.75-7.17z"/>
    <path id="path3135" d="m591.51 205c-3.77 1.79-7.32 3.93-10.69 6.39-2.79 2.4-5.96 4.82-7.44 8.3-8.93-0.6 2.54-7.13 5.07-9.24 3.76-3.4 8.17-10.82 10.74-2.04-2.05 6.49-4.73 12.74-6.47 19.35-1.38 3.58-0.01 7.14 0.3 7.41 8.11-3.78 14.73-11.29 21.68-17.06 7.06-4.71 12.89-10.63 18.74-16.69 0.94-0.3 2.13-1.61 2.81-0.9 7.48 7.8-3.81 11.68-9 15.34-5.48 3.79-11.48 7.81-18.41 6.96-5.41-4.16-0.09-11.58 2.61-15.94 3.56-5.21 7.14-11.22 13.68-12.46 9.41 4.26 2.11 13.61-1.2 19.8-2.81 5.69-7.73 13.13-4.11 19.44 5.89 4.9 14.13 2.86 20.87 1.29 5.53-2.19 10.92-5.03 15.89-8.26 0.3-0.19 0.43-0.19 0.48 0.16 1.47 10.27-6.08 13.15-15.08 14.9-9.83 1.5-22.52 3.36-28.83-6.07-1.57-8.62 2.74-15.87 5.98-23.66 1.24-3.28 1.53-3.58 2.16-6.86 0.21-1.1-0.85-3.15 0.25-3.35 0.9-0.17 0.69 3.29 2.55 1.03 0.6-3.75-11.82 2.23-11.17 4.98-2.45 3.71-6.05 9.05-3.76 13.61 5.55 2.05 11.43-6 15.58-8.62 11.7-11.22 1.96-9.61 9.78-3.57 0.5 0.39 1.02-0.77 1.52-1.16-8.01-1.93-15.24 6.28-21.02 10.42-7.26 6.02-14.51 12.16-21.35 18.62-7.74 4.6-5.49-6.19-3.91-10.2 1.72-5.69 4.32-11.76 3.73-17.78 2.98 2.87 2.69-4.09-4.19 2.25-1.73 1.73-2.15 2-3.54 3.97-0.68 0.96-1.01 4.09-1.64 3.11-2.13-3.33 4.36-1.8-3.37-2.26 3.54-0.91 6.5-3.45 9.55-5.53 3.42-2.49 6.76-5.24 10.67-6.92 0.88-0.38 1.4 0.83 0.54 1.24z"/>
  </g>
  <metadata>
    <rdf:RDF>
      <cc:Work>
        <dc:format>image/svg+xml</dc:format>
        <dc:type rdf:resource="http://purl.org/dc/dcmitype/StillImage"/>
        <cc:license rdf:resource="http://creativecommons.org/licenses/publicdomain/"/>
        <dc:publisher>
          <cc:Agent rdf:about="http://openclipart.org/">
            <dc:title>Openclipart</dc:title>
          </cc:Agent>
        </dc:publisher>
        <dc:title>Calligraphy Lotus</dc:title>
        <dc:date>2007-08-31T23:07:30</dc:date>
        <dc:description>Simple hand drawing of a lotus.</dc:description>
        <dc:source>http://openclipart.org/detail/5126/calligraphy-lotus-by-sneptune</dc:source>
        <dc:creator>
          <cc:Agent>
            <dc:title>SnEptUne</dc:title>
          </cc:Agent>
        </dc:creator>
        <dc:subject>
          <rdf:Bag>
            <rdf:li>calligraphy</rdf:li>
            <rdf:li>clip art</rdf:li>
            <rdf:li>clipart</rdf:li>
            <rdf:li>flower</rdf:li>
            <rdf:li>image</rdf:li>
            <rdf:li>line art</rdf:li>
            <rdf:li>lotus</rdf:li>
            <rdf:li>media</rdf:li>
            <rdf:li>public domain</rdf:li>
            <rdf:li>svg</rdf:li>
          </rdf:Bag>
        </dc:subject>
      </cc:Work>
      <cc:License rdf:about="http://creativecommons.org/licenses/publicdomain/">
        <cc:permits rdf:resource="http://creativecommons.org/ns#Reproduction"/>
        <cc:permits rdf:resource="http://creativecommons.org/ns#Distribution"/>
        <cc:permits rdf:resource="http://creativecommons.org/ns#DerivativeWorks"/>
      </cc:License>
    </rdf:RDF>
  </metadata>
</svg>
