<?xml version="1.0"?>
<svg xmlns:rdf="http://www.w3.org/1999/02/22-rdf-syntax-ns#" xmlns="http://www.w3.org/2000/svg" xmlns:cc="http://web.resource.org/cc/" xmlns:xlink="http://www.w3.org/1999/xlink" xmlns:dc="http://purl.org/dc/elements/1.1/" xmlns:svg="http://www.w3.org/2000/svg" id="Layer_1" xml:space="preserve" overflow="visible" viewBox="0 0 364.104 523.932" version="1.1" enable-background="new 0 0 364.104 523.932">
<g clip-rule="evenodd" fill-rule="evenodd">
	<path d="m105.66 36.764c2.346 0.564 3.355 2.428 3.382 5.241-2.26-0.647-3.86-1.936-3.38-5.241z" fill="#007E7A"/>
	<path d="m109.04 42.005c2.724 3.04 6.13 5.417 6.763 10.486-3.41-2.363-6.24-5.3-6.76-10.486z" fill="#007E7A"/>
	<path d="m87.499 93.594c3.017 0.482 3.034 3.876 5.99 4.418-1.709 4.19-2.327-2.063-6.042-0.958 0.017-1.153 0.034-2.306 0.052-3.46z" fill="#fff"/>
	<path d="m128.99 95.952c2.884 0.043 5.767 0.087 8.651 0.131 0.52 2.794-9.25 2.646-8.65-0.131z" fill="#fff"/>
	<path d="m116.86 97.499c1.729 0.027 3.46 0.053 5.189 0.079 0.772 3.137-3.425 1.154-5.216 1.651 0.01-0.577 0.02-1.153 0.03-1.73z" fill="#fff"/>
	<path d="m148 97.97c2.884 0.044 5.767 0.087 8.651 0.131 0.52 2.799-9.25 2.649-8.65-0.131z" fill="#fff"/>
	<path d="m194.58 107.33c-7.199-1.537-13.709-3.746-18.926-7.208 5.59-0.176 17.34 0.7 18.93 7.21z" fill="#fff"/>
	<path d="m187.63 108.95c-11.536 0.396-14.612-7.415-25.846-7.313 8.64-4.319 18.99 4.25 25.85 7.31z" fill="#fff"/>
	<path d="m196.23 112.54c1.729 0.026 3.46 0.053 5.188 0.079 1.191 5.096 9.729 3.064 10.25 8.808-5.67-2.45-11.16-5.08-15.44-8.89z" fill="#fff"/>
	<path d="m207.46 113.58c8.666-0.445 20.297 3.601 23.187 11.6-8.13-3.48-14.88-8.3-23.19-11.6z" fill="#fff"/>
	<path d="m132.11 118.5c3.002-0.64 3.638 1.017 5.165 1.808-3.626 5.048-0.456 17.1-2.948 23.316-1.456-3.002-0.706-5.605-4.286-2.66 0.19-8.02 3.06-13.26 2.07-22.47z" fill="#fff"/>
	<path d="m103.56 118.93c7.026 4.793 3.202 16.747 0.512 23.369-5.956-2.11-3.97-19.96-0.51-23.37z" fill="#fff"/>
	<path d="m94.001 121.38c3.42-0.476 0.946 4.765 1.625 6.947-1.153-0.018-2.306-0.035-3.46-0.053 2.447-2.35 0.212-4.07 1.835-6.9z" fill="#fff"/>
	<path d="m80.029 129.82c1.155 0.018 2.307 0.034 3.461 0.052-0.017 1.153-0.035 2.306-0.053 3.46-2.199-0.13-3.336-1.31-3.408-3.51z" fill="#fff"/>
	<path d="m107.53 142.35c-0.139 2.2-1.31 3.335-3.512 3.407 0.13-2.2 1.3-3.34 3.51-3.41z" fill="#fff"/>
	<path d="m117.86 145.97c-0.002 6.439-2.903 9.894-3.696 15.518-1.153-0.018-2.306-0.035-3.46-0.052-0.035 2.307-0.07 4.614-0.105 6.92-8.4-5.481 3.59-14.396-1.416-20.788 4.2 0.81 5.76-1.1 8.68-1.6z" fill="#fff"/>
	<path d="m128.24 146.12c-1.168 6.703-2.648 13.083-2.057 21.601 2.622-5.791 2.494-14.415 5.491-19.818 3.02-0.372 0.905 4.234 3.395 4.378-2.369 10.326-1.93 17.776-0.392 25.951-2.523-2.382-5.062-4.75-5.045-9.593-4.106-1.304 0.566 6.44-3.54 5.137-2.443-10.019-3.702-16.495 0.393-25.951-2.783-1.111-0.703 2.79-3.486 1.679 0.17-2.77 2.03-3.78 5.26-3.39z" fill="#fff"/>
	<path d="m247.58 149.66c2.003 0.329 4.045 0.622 3.407 3.513-1.92-0.4-3.06-1.57-3.41-3.51z" fill="#007E7A"/>
	<path d="m183.42 159.07c2.002 0.615 3.609 1.612 3.395 4.377-2.49-0.15-4.1-1.15-3.4-4.38z" fill="#007E7A"/>
	<path d="m238.78 159.91c5.716 5.468-5.698 12.521-7.209 18.925-2.722 0.369-2.25-2.362-4.285-2.66 2.82-6.47 8.77-9.71 11.5-16.27z" fill="#fff"/>
	<path d="m115.92 159.78c3.138-0.772 1.154 3.426 1.651 5.218-3.14 0.77-1.16-3.43-1.65-5.22z" fill="#fff"/>
	<path d="m136.62 163.56c3.139-0.772 1.155 3.426 1.652 5.217-3.13 0.76-1.15-3.43-1.65-5.22z" fill="#fff"/>
	<path d="m160.74 170.84c3.138-0.772 1.155 3.425 1.652 5.216-3.14 0.77-1.15-3.43-1.65-5.22z" fill="#007E7A"/>
	<path d="m86.296 173.18c0.577 0.008 1.154 0.017 1.73 0.026-0.035 2.308-0.07 4.614-0.104 6.92-0.577-0.009-1.153-0.018-1.73-0.026 0.034-2.31 0.069-4.62 0.104-6.92z" fill="#fff"/>
	<path d="m250.62 177.39c-0.322 7.28-5.259 9.806-8.858 13.709 0.975-3.217-2.11-2.497-1.65-5.215 3.76-2.57 4.22-8.54 10.51-8.49z" fill="#fff"/>
	<path d="m255.61 191.31c5.473 2.675-3.493 4.203-1.86 8.625-1.155-0.018-2.308-0.035-3.462-0.053-0.55-5.26 4.3-4.94 5.32-8.58z" fill="#fff"/>
	<path d="m133.53 196.39c0.007 3.521-3.253 3.675-6.973 3.354 1.04-2.44 3.56-3.35 6.97-3.35z" fill="#007E7A"/>
	<path d="m264.1 201.82c-0.206 3.301-4.603 2.284-3.565 6.867-1.155-0.018-2.31-0.036-3.461-0.052 0.29-4.38 2.64-6.65 7.02-6.82z" fill="#fff"/>
	<path d="m262.29 206.99c1.152 0.018 2.307 0.035 3.461 0.052-0.141 2.2-1.31 3.335-3.514 3.408 0.02-1.16 0.04-2.31 0.05-3.46z" fill="#fff"/>
	<path d="m250.1 211.99c3.141-0.772 1.156 3.426 1.651 5.217-3.13 0.77-1.15-3.43-1.65-5.22z" fill="#fff"/>
	<path d="m270.79 217.5c2.614-0.833 1.504 1.951 1.678 3.487-4.009-1.203-2.94 2.828-6.947 1.625 0.22-3.29 5.39-1.48 5.27-5.12z" fill="#fff"/>
	<path d="m255.14 222.45c-1.008 1.892-1.067 4.757-3.54 5.137-0.3-3.23 0.77-5.07 3.54-5.14z" fill="#fff"/>
	<path d="m229.17 222.93c1.159 3.83-2.881 2.301-5.228 2.516-0.27-2.92 3.77-1.39 5.23-2.52z" fill="#fff"/>
	<path d="m146.12 222.53c3.137 0.366 8.528-1.454 6.868 3.565-2.07-1.41-6.29-0.73-6.87-3.57z" fill="#fff"/>
	<path d="m101 230.5c-1.926-0.405-3.062-1.577-3.408-3.513 1.576-1.54 4.338 0.13 3.408 3.51z" fill="#fff"/>
	<path d="m214.95 247.8c-9.193 6.924-14.669 17.68-26.29 22.1 13.109-11.088 24.745-23.69 33.473-39.293 1.2 6.07-5.77 10.92-7.18 17.19z" fill="#fff"/>
	<path d="m100.98 232.24c2.983-0.055 2.154 3.592 5.138 3.538-2.899 1.112-0.107 8.088-3.591 8.598 1.13-5.66-1.39-7.76-1.55-12.14z" fill="#fff"/>
	<path d="m171.7 247.15c1.925 0.406 3.061 1.577 3.408 3.514-2.111-1.643-9.246 5.313-12.11-0.184 4.3 0.33 8.32 0.38 8.7-3.33z" fill="#007E7A"/>
	<path d="m254.73 249.27c3.778 4.118-5.597 8.501-5.414 14.627-4.478-0.517-4.955 3.091-8.701 3.331 1.11-3.544 5.101-4.115 5.32-8.574-4.182 0.962-3.862 6.562-10.459 5.034 0.019-1.152 0.036-2.307 0.053-3.46 8.8-1.18 12.07-8.06 19.2-10.96z" fill="#fff"/>
	<path d="m265.07 252.02c1.89 1.006 4.755 1.066 5.136 3.538-3.32 0.38-4.56-1.26-5.14-3.54z" fill="#fff"/>
	<path d="m289.29 252.39c5.361 2.186 9.937 5.134 15.465 7.156-0.034 2.307-0.069 4.613-0.104 6.921-5.53-4.31-10.61-9.04-15.37-14.08z" fill="#fff"/>
	<path d="m171.6 254.07c-0.401 3.688-7.263 0.715-10.407 1.574 0.4-3.69 7.26-0.71 10.41-1.57z" fill="#007E7A"/>
	<path d="m180.06 266.31c-2.28 2.336-4.425 4.812-8.73 5.059 1.28-3.37 4.69-4.54 8.73-5.06z" fill="#fff"/>
	<path d="m263.03 272.76c1.153 0.017 2.307 0.034 3.459 0.051-0.019 1.154-0.034 2.307-0.052 3.461-2.2-0.14-3.34-1.31-3.41-3.51z" fill="#fff"/>
	<path d="m269.92 274.59c5.481-0.205 8.791 1.701 10.302 5.348-4.014-0.082-5.122-2.984-10.354-1.888 0.02-1.15 0.04-2.31 0.05-3.46z" fill="#fff"/>
	<path d="m108.97 275.62c5.081 2.272-2.601 5.123-2.713 7.748-2.45-2.59 2.43-5.07 2.71-7.75z" fill="#fff"/>
	<path d="m262.92 279.68c9.504-1.266 11.779 4.481 20.708 3.773-5.51 4.07-16.26-1.16-20.71-3.77z" fill="#fff"/>
	<path d="m219.59 284.21c3.367 5.359-8.453 9.932-10.616 15.415-9.741 3.43-15.467 10.997-26.16 13.447 11.42-10.49 28.22-15.43 36.78-28.86z" fill="#fff"/>
	<path d="m261.09 286.57c10.508 3.76 21.119 1.761 28.468 5.623-1.839 2.499-4.584 4.061-7.865 5.073-6.56-3.87-16.78-4.18-20.61-10.69z" fill="#fff"/>
	<path d="m219.44 294.59c-6.713 8.306-16.023 13.939-26.238 18.637 7.91-7.07 16.62-13.32 26.24-18.64z" fill="#fff"/>
	<path d="m288.59 299.1c-0.401 3.687-7.262 0.714-10.409 1.572 0.4-3.69 7.26-0.71 10.41-1.57z" fill="#fff"/>
	<path d="m164.85 299.82c-3.224 0.775-4.918 3.131-9.555 2.451 0.51-3.34 6.65-4.34 9.55-2.45z" fill="#fff"/>
	<path d="m290.24 304.32c-0.906 3.636 3.352 4.554 5.95 7.012-9.04 5.392-18.442-2.946-26.764-3.866 0.022-1.441 0.045-2.884 0.065-4.325 5.56-0.3 11.03 1.51 20.74 1.18z" fill="#fff"/>
	<path d="m238.02 324.29c2.286-0.228 2.205 1.841 2.543 3.5-2.9 0.83-2.81-1.24-2.54-3.5z" fill="#fff"/>
	<path d="m61.53 323.35c3.678 1.305 1.635 10.735-1.888 10.354-0.788-4.9 2.973-5.13 1.888-10.35z" fill="#007E7A"/>
	<path d="m149.76 324.69c2.595 0.039 5.19 0.078 7.785 0.116 0.23 2.26-8.26 2.98-7.78-0.12z" fill="#fff"/>
	<path d="m289 329.39c1.977 2.627 5.403 3.847 7.693 6.171-3.154 0.518-12.018-0.075-13.789-3.669 3.2 0.38 5.9 0.22 6.1-2.5z" fill="#fff"/>
	<path d="m89.774 343.68c2.405 2.823-1.135 6.991-1.874 9.49-3.164-0.53 0.279-8.14 1.874-9.49z" fill="#fff"/>
	<path d="m242.85 348.59c1.009-0.125 1.536 0.215 1.718 0.893-7.503 12.767-22.829 17.466-39.254 21.037 13.09-6.71 29.04-10.46 37.53-21.93z" fill="#007E7A"/>
	<path d="m135.57 347.83c7.949 9.535 2.543 31.077 8.062 39.06-3.52 1.142-2.707-1.92-5.163-1.811-0.417-9.166-1.62-18.62-4.746-29.488 1.153 0.019 2.308 0.036 3.46 0.052-0.78-2.3-4.27-4.8-1.61-7.81z" fill="#007E7A"/>
	<path d="m272.2 352.5c3.3-0.644 1.038 4.107 1.64 6.083-2.47-0.16-1.52-3.64-1.64-6.08z" fill="#fff"/>
	<path d="m270.37 359.39c3.586-0.068 0.809 6.034 1.601 8.677-3.07-0.31-1.68-7.98-1.6-8.68z" fill="#fff"/>
	<path d="m273.83 359.44c2.684 1.94 2.164 6.991 3.303 10.431-2.95-1.67-3.74-5.46-3.3-10.43z" fill="#fff"/>
	<path d="m83.497 358.3c3.021 4.322 0.79 11.12-0.235 15.571-5.375 23.354-15.172 47.001-30.327 60.107 8.442-27.03 22.277-48.5 30.562-75.68z" fill="#fff"/>
	<path d="m216.71 360.31c-0.625 4.624-7.345 2.972-10.457 5.034 1.11-4.13 6.58-3.77 10.46-5.03z" fill="#007E7A"/>
	<path d="m169.97 361.33l5.19 0.078c0.772 3.14-3.425 1.155-5.216 1.651 0.02-0.58 0.02-1.15 0.03-1.73z" fill="#fff"/>
	<path d="m156.06 366.31c2.307 0.035 4.614 0.07 6.92 0.105 0.477 3.418-4.765 0.944-6.947 1.626l0.03-1.74z" fill="#fff"/>
	<path d="m169.82 371.71c-0.4 3.688-7.261 0.715-10.405 1.572 0.39-3.68 7.25-0.71 10.4-1.57z" fill="#fff"/>
	<path d="m195.72 375.56c-4 2.627-15.894 1.761-19.072 2.309-1.27-4.19 18.61-2.81 19.07-2.31z" fill="#007E7A"/>
	<path d="m268.28 383.58c2.339 1.422 3.48 4.009 3.342 7.837-1.93-1.82-3.4-4.08-3.34-7.84z" fill="#fff"/>
	<path d="m278.58 388.93c2.715 1.912 3.566 5.631 5.059 8.729-1.718-0.015-1.136 2.344-3.486 1.678 1.24-5.19-2.82-5.22-1.57-10.41z" fill="#fff"/>
	<path d="m288.9 392.55c2.26 0.647 3.86 1.937 3.382 5.243-2.45-0.45-2.43-3.32-3.38-5.24z" fill="#fff"/>
	<path d="m127.08 394.43c7.668 5.061 6.828 18.379 16.107 21.874-1.152 6.233 6.1 4.312 6.79 8.756-1.466-0.341-1.642 0.65-1.755 1.705-14.03-3.46-21.8-17.46-21.14-32.33z" fill="#007E7A"/>
	<path d="m271.5 399.21c1.154 0.016 2.309 0.034 3.46 0.052-0.017 1.154-0.035 2.306-0.052 3.46-2.99 0.63-4.13-0.54-3.41-3.51z" fill="#fff"/>
	<path d="m305.97 408.38c2.723 0.882 6.564 3.88 5.101 6.133-3.09-0.7-4.73-2.79-5.1-6.13z" fill="#fff"/>
	<path d="m328.33 417.37c2.306 0.033 4.613 0.069 6.92 0.103 0.477 3.421-4.765 0.948-6.946 1.626 0.01-0.58 0.02-1.15 0.03-1.73z" fill="#fff"/>
	<path d="m257.37 418.03c3.742 0.345 3.671 4.394 5.084 7.001-2.871 1.725-6.654 2.511-10.432 3.303 0.871-2.909 4.997-2.464 6.133-5.1 0.293-2.271-3.346-0.73-2.543-3.501 1.47 0.34 1.65-0.65 1.76-1.7z" fill="#fff"/>
	<path d="m340.41 419.28c1.926 0.405 3.061 1.577 3.408 3.514-3.42 0.83-4.99-1.98-3.41-3.51z" fill="#fff"/>
	<path d="m281.56 420.12c2.308 0.036 4.612 0.071 6.922 0.104 1.081 8.732-2.805 12.339-2.044 20.735 3.307-0.104 2.421-4.529 6.972-3.354-0.062 6.445-3.044 5.597-8.729 5.06-1.56-7.74-6.97-16.91-3.12-22.55z" fill="#fff"/>
	<path d="m302.27 423.9c1.154 0.017 2.307 0.035 3.461 0.052-2.073 3.185-1.54 5.956-1.912 12.085-8.05 0.15-1.66-7.98-1.55-12.14z" fill="#007E7A"/>
	<path d="m338.5 431.37c-4.022-0.645-6.497-2.788-12.083-1.913 1.73-3.61 12.06-1.74 12.08 1.91z" fill="#fff"/>
	<path d="m347.16 430.64c1.551 0.133 1.839-1.032 3.476-0.812-0.036 2.306-0.07 4.613-0.105 6.92-3.687-0.871-2.394 3.389-5.244 3.381-0.23-4.04 3.05-4.47 1.86-9.49z" fill="#fff"/>
	<path d="m180.07 437.63c6.15 0 11.591 0.688 14.654 3.683-3.748-0.059-7.497-0.113-11.245-0.171 3.656 4.976 18.817-1.211 22.438 3.801-7.15 1.519-29.01 4.164-37.171-2.293 1.164-3.776 9.063-0.613 13-1.533 0.01-1.73-2.35-1.14-1.68-3.49z" fill="#007E7A"/>
	<path d="m203.4 439.71c2.884 0.045 5.769 0.088 8.651 0.133 0.52 2.8-9.25 2.65-8.65-0.13z" fill="#007E7A"/>
	<path d="m350.46 441.93c-0.138 2.2-1.311 3.338-3.515 3.408 0.14-2.2 1.31-3.34 3.52-3.41z" fill="#fff"/>
	<path d="m127.25 440.29c4.71 4.523 4.258 14.054 8.362 19.163-6.75-2.54-7.31-11.09-8.36-19.16z" fill="#007E7A"/>
	<path d="m322.72 444.97c-2.039 4.491-11.753 5.256-16.501 4.078 3.59-3.33 9.3-4.47 16.5-4.08z" fill="#fff"/>
	<path d="m345.18 447.04c3.704 0.227-0.757 5.089-0.969 6.908-3.41 0.08 0.43-5.43 0.97-6.91z" fill="#fff"/>
	<path d="m259.52 447.48c1.442 0.021 2.886 0.044 4.326 0.065-0.615 2.001-1.612 3.609-4.378 3.395 0.02-1.15 0.03-2.31 0.05-3.46z" fill="#007E7A"/>
	<path d="m260.31 452.68c-11.264 10.647-25.664 18.06-33.368 32.375-2.524 0.912-4.449 2.443-6.972 3.356 7.03-18.52 22.52-28.34 40.34-35.74z" fill="#007E7A"/>
	<path d="m298.37 453.26c2.307 0.036 4.615 0.07 6.922 0.105 0.477 3.42-4.765 0.946-6.946 1.627 0.01-0.58 0.02-1.15 0.03-1.73z" fill="#fff"/>
	<path d="m313.94 453.49c2.16 0.746 7.475-1.568 6.896 1.836-0.52 3.8-7.06 0.51-6.9-1.84z" fill="#fff"/>
	<path d="m312.13 458.66c3.037-0.103 6.494-0.618 5.14 3.541-3.23 0.29-5.07-0.77-5.14-3.54z" fill="#fff"/>
	<path d="m127.87 456.74c1.402 3.751 7.434 3.013 7.667 7.901 2.021-1.431 4.713-2.17 8.677-1.6 1.385 6.299-3.127 9.185-0.183 12.111-1.731-0.027-3.46-0.052-5.19-0.079-0.694 2.947 3.498 1.152 2.529 4.364-2.131 0.732-4.711 1-5.242 3.381-4.238 0.42-1.984-5.461-2.465-8.688-2.48-4.83-6.92-11.89-5.81-17.38z" fill="#007E7A"/>
	<path d="m264.53 459.67c-10.241 9.649-19.714 20.092-25.609 34.222-2.496-0.99-4.373-2.578-6.869-3.565 4.712-12.13 16.503-16.959 21.207-29.098 5.3 1.08 5.68-2.91 11.27-1.55z" fill="#007E7A"/>
	<path d="m92.335 460.53c3.817 5.823-3.58 14.955-5.505 20.681-1.553 0.087-1.809-1.084-3.447-0.917 1.385-8.24 8.32-10.75 8.952-19.76z" fill="#007E7A"/>
	<path d="m258.11 483.8c-4.602 0.531-3.287 7.156-7.052 8.547-1.412-2.098 0.967-6.157 1.862-8.625-3.29 0.127-1.636 5.344-5.27 5.113 3.658-10.872 11.494-17.438 17.693-25.689 2.889 1.565 4.446-0.517 8.649 0.13-0.687 9.834-4.898 16.037-8.99 22.359-0.318 4.358 1.186 10.593-3.616 10.329 0.026-1.729 0.052-3.46 0.078-5.19-3.065 0.062-1.512 4.887-3.552 6.004-3.091-1.616-2.551 0.114-5.203 0.785-0.47-6.92 4.14-8.62 5.4-13.76zm8.83-11.98c1.111-2.783-2.79-0.703-1.678-3.485-1.938 0.346-3.107 1.481-3.511 3.407 2.782 1.112 0.702-2.789 3.485-1.678 0.08 1.05 0.22 2.04 1.7 1.75zm-7.95 11.12c1.868-3.343 4.352-6.057 6.198-9.424-2.89 1.74-7.54 6.26-6.2 9.42z" fill="#007E7A"/>
	<path d="m33.46 463.1c0.577 0.01 1.153 0.019 1.73 0.026-0.036 2.307-0.07 4.614-0.105 6.92-0.577-0.009-1.153-0.018-1.73-0.026 0.034-2.31 0.07-4.62 0.105-6.92z" fill="#fff"/>
	<path d="m308.53 468.12c3.299 2.197 8.897 2.164 8.534 7.915-2.893-2.877-7.697-3.898-10.277-7.077 1.01 0.15 1.55-0.17 1.75-0.84z" fill="#fff"/>
	<path d="m97.446 465.79c1.584 3.237-0.441 17.599-5.491 19.818-0.87-4.893 4.795-10.145 3.735-18.113 1.467 0.34 1.642-0.65 1.756-1.71z" fill="#007E7A"/>
	<path d="m40.301 468.39c2.843 5.195 1.704 14.258 3.146 20.814-4.864-3.23-2.929-13.06-3.146-20.81z" fill="#fff"/>
	<path d="m43.761 468.44c1.401-0.221 1.478 0.84 2.583 0.904 0.786 2.389 2.34 12.075-1.062 12.963 1.381-6.44-1.944-8.33-1.521-13.86z" fill="#fff"/>
	<path d="m48.952 468.52c3.183 12.255 3.551 27.239 6.318 39.897-6.035-9.49-6.072-24.79-6.318-39.9z" fill="#fff"/>
	<path d="m52.412 468.57c2.815-1.024 0.619 2.811 3.434 1.783-1.013 3.642 1.866 11.295-1.914 12.084 1.233-6.3-2.28-8-1.52-13.86z" fill="#fff"/>
	<path d="m35.059 471.77c3.859 7.105 5.995 24.798 2.962 32.924 0.039-11.96-5.276-18.74-2.962-32.92z" fill="#fff"/>
	<path d="m282.43 477.24c6.38 6.594 3.061 22.604 9.071 29.554 3.214-2.898-1.883-4.943-0.734-8.662 3.723 1.502 2.206 8.087 6.788 8.754-1.578 2.474-4.75 3.304-3.59 8.599-2.818-0.677-2.009-4.869-3.356-6.973-3.071 0.306-1.766 3.758-5.215 1.651-1.94-10.05-1.15-22.74-2.97-32.92z" fill="#fff"/>
	<path d="m100.75 476.23c4.107 4.255 4.202 12.403 6.645 18.271-4.083-0.299-3.532-5.096-8.584-4.456 0.03-5.23-0.352-10.9 1.934-13.81z" fill="#007E7A"/>
	<path d="m308.33 481.1c4.217 1.023 4.867 5.507 10.304 5.346-1.673 2.961-1.661 2.186-0.079 5.193-1.154-0.018-2.307-0.036-3.459-0.054-0.24-5.46-5.68-5.85-6.76-10.49z" fill="#fff"/>
	<path d="m59.11 483.38c2.472 0.158 1.527 3.631 1.639 6.082-3.299 0.65-1.039-4.1-1.639-6.08z" fill="#fff"/>
	<path d="m45.257 484.04c4.161 9.033 3.794 22.457 6.422 32.976-5.948-7.3-5.53-20.78-6.422-32.98z" fill="#fff"/>
	<path d="m71.181 486.16c4.431 5.361 4.149 15.295 4.824 24.296-3.45-6.31-3.014-16.39-4.824-24.3z" fill="#fff"/>
	<path d="m55.584 487.66c0.577 0.009 1.153 0.017 1.73 0.027-0.035 2.305-0.07 4.61-0.105 6.92-0.576-0.009-1.153-0.018-1.729-0.026 0.035-2.31 0.069-4.62 0.104-6.92z" fill="#fff"/>
	<path d="m76.345 487.97c2.803 1.826 3.353 5.837 3.303 10.432-2.549-2.07-3.334-5.85-3.303-10.43z" fill="#fff"/>
	<path d="m83.24 489.81c3.689 7.784 5.62 17.274 6.5 27.786-5.136-6.39-6.43-16.5-6.5-27.79z" fill="#fff"/>
	<path d="m88.429 489.88c2.827 0.666 3.324 3.595 3.356 6.974-2.258-1.21-3.171-3.73-3.356-6.97z" fill="#fff"/>
	<path d="m162.8 492.74c2.613 7.692 5.096 15.51 4.798 26.028-5.79-4.61-4.55-16.05-4.8-26.03z" fill="#fff"/>
	<path d="m347.91 495.54c1.011-0.126 1.538 0.215 1.721 0.892-5.874 5.953-3.52 20.387-14.169 21.416 0.021-1.441 0.043-2.883 0.065-4.325 0.991 0.74 2.301 1.177 4.312 0.931 3.27-5.71 3.8-14.25 8.08-18.91z" fill="#fff"/>
	<path d="m157.56 496.12c3.138-0.771 1.155 3.426 1.651 5.216-3.14 0.77-1.16-3.43-1.65-5.22z" fill="#fff"/>
	<path d="m214.63 497.85c2.34 4.266 2.765 10.388 3.212 16.488-4.98-1.64-4.67-13.81-3.21-16.49z" fill="#fff"/>
	<path d="m188.67 498.32c2.291 5.164 3.984 10.906 4.929 17.38-5.56-1.99-5.05-9.88-4.93-17.38z" fill="#fff"/>
	<path d="m114.17 504.12c3.139-0.771 1.154 3.428 1.651 5.217-3.14 0.76-1.15-3.43-1.65-5.22z" fill="#fff"/>
	<path d="m207.6 505.53c2.814-1.027 0.618 2.81 3.434 1.781-0.036 2.309-0.07 4.615-0.105 6.921-3.24-0.83-3.5-4.55-3.32-8.7z" fill="#fff"/>
	<path d="m221.44 505.74c0.577 0.009 1.152 0.018 1.729 0.027-0.033 2.307-0.069 4.612-0.103 6.919-0.578-0.008-1.154-0.016-1.73-0.024 0.03-2.32 0.06-4.62 0.1-6.93z" fill="#fff"/>
	<path d="m79.544 505.32c2.848 2.351 1.926 8.358 3.276 12.163-3.453-1.76-3.647-6.68-3.276-12.16z" fill="#fff"/>
	<path d="m129.72 506.08c3.454 1.764 3.647 6.689 3.276 12.164-2.62-2.58-3.54-6.79-3.28-12.16z" fill="#fff"/>
	<path d="m115.8 511.06c3.138-0.772 1.154 3.426 1.651 5.215-3.14 0.77-1.16-3.42-1.65-5.22z" fill="#fff"/>
	<path d="m39.621 513.37c1.154 0.018 2.307 0.036 3.46 0.054-0.026 1.729-0.052 3.461-0.079 5.191-2.544-0.37-1.925-3.81-3.381-5.24z" fill="#fff"/>
	<path d="m61.321 337.19c-3.917 12.817-15.186 23.311-17.891 38.665-1.363 7.741 2.551 19.146-3.839 25.034 0.043-2.884 0.087-5.767 0.131-8.649-6.679 7.756-5.403 23.714-9.173 34.47 7.943-5.283 8.876-17.792 15.937-23.985 0.506-3.459-0.5-6.53 0.157-10.38 1.84-10.781 8.985-20.403 12.581-30.959 1.309-3.842 0.518-8.33 1.914-12.085 0.605-1.628 2.847-2.003 3.512-3.406 5.492-11.586 5.449-26.812 10.968-38.771-0.832-0.897-1.683-1.776-2.556-2.635-2.229 4.729-0.968 13.06-8.832 11.979-1.554 1.034-0.254 5.012-4.379 3.396-1.607 14.155-13.648 17.56-14.337 32.663-2.237-7.571 2.597-19.718 5.648-30.198 2.417-8.303 7.233-13.744 9.016-24.091 10.276-6.111 29.212 0.723 39.857-3.723-2.479-19.61 6.498-54.87-11.143-64.196 0.339-8.373-8.064-19.314 0.38-25.086-2.909-2.576-5.164-5.788-6.776-9.62-20.01-2.173-37.768 2.654-55.376 0.028 14.389-8.303 36.65-8.494 50.446-17.407-1.518-12.985 8.151-14.441 5.623-28.468-24.306-19.59-56.24-31.79-83.194-48.83 7.798-1.031 16.845 2.969 25.008 5.569 17.766 5.66 36.558 13.33 53.356 18.977 4.246-3.532 4.672-10.999 8.873-14.575-12.569-16.5-29.723-28.555-42.584-44.77-6.659-4.905-12.542-10.562-17.039-17.563-4.482-3.891-10.47-6.321-11.915-13.159 23.553 14.652 42.344 33.925 65.01 49.436 0.447 1.925-1.669 1.206-1.769 2.569 0.802 2.879 1.726-0.94 2.608-0.827 7.289 4.796 17.03 15.733 27.577 7.339 3.172 0.048 6.343 0.096 9.516 0.144-4.614-20.242-16.007-33.906-21.694-53.107-8.508-11.636-12.398-27.751-19.28-40.962 6.115 0.011 11.263 6.253 7.629 10.498 2.782 1.111 0.703-2.789 3.485-1.678 2.237 6.922 7.262 11.14 10.12 17.458-4.846-1.834-5.703-7.537-9.359-10.524 0.609 3.4 4.815 10.66 8.44 13.972 2.291 0.311-0.735-4.858 2.649-3.42-1.169 3.406 2.82 1.809 1.651 5.217-1.925 0.447-1.207-1.672-2.568-1.771 1.649 8.149 6.536 14.602 11.77 22.674 2.104 3.244 4.682 5.304 5.913 9.607 0.452 1.583 2.76 1.57 3.42 2.648 2.214 3.611 2.729 7.891 5.02 11.324 3.643 5.459 7.53 12.21 13.618 14.914-7.595-13.087-17.573-23.862-23.646-38.427 10.408 12.064 18.446 26.427 27.081 40.209 12.644-0.618 20.418 3.489 31.953 3.943 4.812-18.422 9.238-37.24 15.558-56.004 1.928-10.312 1.777-22.766 9.068-27.55 1.355 38.285 2.652 55.626 2.073 91.746 9.479 7.283 25.184 8.525 33.488 16.946 22.721-9.379 43.769-20.485 64.51-31.904 1.785 0.542 5.697-0.984 6.041 0.957-13.929 18.441-36.588 27.883-53.436 43.319 5.919 11.022 18.446 15.631 21.184 29.738 31.062 2.172 61.419 2.733 90.776 4.834-5.244 6.893-22.044 1.876-29.516 6.474-20.121 0.052-35.81 4.675-56.307 4.34 5.499 21.062 3.682 38.358-2.607 57.932 11.601 1.531 19.921 6.246 27.513 11.663 3.079 7.55 5.557 21.783-0.432 28.547 0.556 9.652-1.913 16.183-5.519 21.548 4.287 5.218 5.725 13.199 8.351 20.025 0.371 15.233-10.03 22.977-8.308 34.483 0.99 1.88 1.82 3.918 4.26 4.394-3.647 19.728 1.783 29.737 9.751 41.678 9.197-0.968 13.269 3.037 22.465 2.069 9.429 4.206 7.687 19.252 17.828 22.766-0.157 1.004 0.166 1.544 0.838 1.745-2.015 34.572-0.425 60.406-3.116 91.665-41.393 11.502-108.58-1.409-157.54 4.541-4.929-3.336-11.53-0.325-17.276-1.991-47.867 2.344-94.224 5.406-140.19 1.342-5.999-5.262-0.664-21.518-4.759-28.626 0.338-32.041-2.167-61.52 3.078-89.072 1.307-6.867 2.704-15.43 7.233-20.657 1.099-9.117 2.765-17.648 2.162-28.519 8.708 1.4 7.039-14.817 15.819-16.201-1.708 2.633-3.57 5.106-5.308 7.706 4.344 1.78 5.702-7.04 8.836-9.39zm26.125-240.14c3.716-1.106 4.333 5.147 6.042 0.958-2.956-0.542-2.973-3.936-5.99-4.418-0.017 1.154-0.034 2.307-0.052 3.46zm50.194-0.971c-2.884-0.044-5.767-0.088-8.651-0.131-0.6 2.777 9.17 2.925 8.65 0.131zm-20.81 3.146c1.791-0.497 5.988 1.486 5.216-1.651-1.729-0.026-3.46-0.052-5.189-0.079-0.01 0.577-0.02 1.153-0.03 1.73zm39.82-1.128c-2.884-0.044-5.767-0.087-8.651-0.131-0.6 2.78 9.17 2.93 8.65 0.131zm19 2.019c5.217 3.462 11.727 5.671 18.926 7.208-1.59-6.51-13.34-7.386-18.93-7.21zm-13.86 1.52c11.233-0.102 14.31 7.709 25.846 7.313-6.87-3.06-17.22-11.629-25.85-7.31zm49.88 19.79c-0.521-5.744-9.059-3.712-10.25-8.808-1.728-0.026-3.458-0.052-5.188-0.079 4.28 3.81 9.77 6.44 15.44 8.89zm18.98 3.75c-2.89-7.999-14.521-12.045-23.187-11.6 8.31 3.3 15.06 8.12 23.19 11.6zm-86.79 17.72c3.867-3.221 2.081 0.385 5.165 1.809 0.55-1.775-1.306-6.03 1.808-5.165-0.469 3.296 0.161 5.525 1.625 6.946 28.861 5.526 54.625 14.054 73.975 28.807-1.56-5.765-3.178-10.714-2.359-15.61 1.362 0.099 0.643 2.217 2.568 1.769-3.494-3.495 1.009-4.847 0.157-10.38-6.932 0.175-7.562 6.848-9.7 11.966-1.564-4.077-5.761-0.458-7.731-3.578-2.136-11.614 9.057-18.782-1.391-22.516-1.934-0.692-2.715 3.112-5.188-0.079-1.117 5.292-3.341 9.442-4.549 14.64-2.374-0.821-6.071-0.36-7.759-1.848-1.316-6.479 4.961-12.349 5.491-19.817-6.441 2.447-4.153 18.551-12.359 16.252 3.63-5.338 6.023-11.949 7.222-19.792-2.976-1.091-5.696-2.428-10.355-1.886-1.009 8.037-2.244 15.844-7.221 19.791 2.053-7.254 4.529-14.075 6.382-21.534-3.385-0.855-2.227 2.975-6.081 1.638-1.743 3.403-1.164 14.625-4.612 18.965-3.257-1.039-7.195-0.754-9.477-2.739 1.481-0.816 2.259-2.356 1.808-5.164 2.637 0.667 2.568-1.454 5.204-0.787-0.123-6.569 2.466-10.343 3.695-15.518-2.494-0.989-4.373-2.577-6.867-3.566-0.406 1.925-1.577 3.062-3.513 3.409-0.166 8.321-2.071 14.85-2.935 22.451-0.865-0.013-1.73-0.026-2.595-0.04-0.857-10.253 4.087-14.529 3.826-24.168-1.685-1.207-4.929-0.901-6.894-1.835-0.898 9.323 0.956 21.485-6.422 24.13-5.406-5.486 1.685-14.34-2.255-22.53-6.398 3.947-5.064 15.864-5.583 25.872 3.384 1.438 0.357-3.731 2.648-3.421 1.734 2.932 1.778 0.636 4.325 0.066-0.03 1.15-0.04 2.31-0.06 3.46zm-19.03-0.29c2.203-0.073 3.374-1.208 3.513-3.408-2.782-1.112-0.703 2.79-3.486 1.678-0.193-8.904-3.567-14.722-3.094-24.273-2.089 0.323-1.856-1.609-4.312-0.93-1.642 6.507-3.576 12.713-2.923 21.585 3.063 2.003 4.612 0.477 5.99 4.417 1.725-0.565-0.462-5.161 2.661-4.286-1.25 3.49 1.83 2.77 1.65 5.22zm5.21-1.65c3.58-2.945 2.83-0.343 4.286 2.66 2.492-6.217-0.678-18.269 2.948-23.316-1.527-0.792-2.163-2.448-5.165-1.808 0.98 9.22-1.89 14.46-2.08 22.47zm-25.97 1.34c2.69-6.622 6.514-18.576-0.512-23.369-3.46 3.41-5.446 21.26 0.51 23.37zm-11.904-14.03c1.154 0.018 2.307 0.035 3.46 0.053-0.679-2.182 1.794-7.423-1.625-6.947-1.623 2.84 0.612 4.56-1.835 6.9zm-8.729 5.06c0.018-1.154 0.036-2.307 0.053-3.46-1.154-0.018-2.306-0.035-3.461-0.052 0.072 2.2 1.209 3.38 3.408 3.51zm165.98 9.43c-3.492 3.306-3.466-0.753-6.894-1.835-0.583 4.829 3.565 5.065 5.072 7.863-4.062 2.111 2.531 8.344 5.124 4.405-0.22 1.732 3.808 3.561 0.788 5.203-1.363-0.099-0.644-2.217-2.571-1.77 2.251 2.933 3.502 6.833 5.036 10.46 3.668-0.903 11.232 2.207 12.135-1.546-2.883-0.044-5.767-0.089-8.649-0.131 0.43-4.285-2.583-0.529-3.42-2.648 4.282-5.823-0.046-16.365-6.688-15.676 0.103-1.362 2.217-0.643 1.77-2.568-2.781-1.111-0.703 2.789-3.485 1.678-1.03-2.79 2.81-0.59 1.78-3.41zm-145.4 3c2.202-0.072 3.373-1.207 3.512-3.407-2.21 0.07-3.38 1.21-3.51 3.41zm5.16 1.8c5.006 6.392-6.984 15.307 1.416 20.788 0.035-2.306 0.07-4.614 0.105-6.92 1.154 0.018 2.307 0.034 3.46 0.052 0.793-5.624 3.694-9.079 3.696-15.518-2.92 0.51-4.48 2.42-8.68 1.6zm13.81 1.95c2.783 1.111 0.704-2.79 3.486-1.679-4.094 9.456-2.835 15.932-0.393 25.951 4.106 1.304-0.566-6.441 3.54-5.137-0.016 4.844 2.522 7.211 5.045 9.593-1.538-8.174-1.977-15.625 0.392-25.951-2.489-0.144-0.375-4.75-3.395-4.378-2.997 5.403-2.869 14.027-5.491 19.818-0.591-8.517 0.889-14.898 2.057-21.601-3.24-0.39-5.1 0.62-5.26 3.39zm29.34 5.63c-1.957-2.827 0.38-4.522-3.381-5.242 0.94 1.92 0.92 4.78 3.38 5.24zm-55.888 33.76c-1.397-6.7-6.844-13.684-4.877-20.839 3.739 0.503 5.362-0.178 6.908 0.969-0.346 5.733 0.504 10.307 3.263 13.028-2.054-8.905-1.165-22.013 3.066-31.103-8.048-0.973-5.925 8.535-13.106 8.454-0.671 3.993-2.783 6.501-3.617 10.329 3.042 6.13 2.581 15.67 8.355 19.16zm53.278-32.93c-2.688 3.692 2 10.071-2.778 12.072 0.083-5.479 0.166-10.958 0.248-16.436-7.212 5.535-0.774 14.671-0.339 22.491 3.271 1.322 0.229-3.865 3.5-2.543-0.083 2.637 0.719 4.416 2.516 5.229 1.585-3.521-2.317-7.386 0.17-11.246 3.702 2.375 4.21 7.849 4.115 13.906 4.517 1.869 4.607 8.03 8.494 10.511 0.3-4.294-4.141-8.449-2.424-11.285 1.513 1.374 1.455 4.272 4.259 4.392 0.421-3.068-4.597-8.646 0.157-10.38 0.271 5.42 0.913 10.477 5.006 12.189-0.018-3.136-4.399-10.077 0.184-12.111 0.218 7.743 2.141 13.834 6.658 17.406-1.099-4.205-6.302-12.992-1.469-17.327 0.074 6.18 0.656 11.865 4.982 13.919-0.693-3.521-4.027-12.846 0.235-15.57 0.203 8.894 2.559 15.701 6.606 20.865 0.139-7.237-3.497-10.812-4.944-16.515 4.249-0.748 0.143-4.957 2.716-7.746 1.206 3.089 7.377 1.366 11.22 1.9 0.486 4.641 2.104 8.186 5.032 10.459-0.508-4.025-3.209-7.216 0.156-10.38-7.28-4.302-11.738-11.341-22.307-12.451-0.521 1.513 0.968 5.099-0.943 5.177-3.76 0.522-2.269-4.049-2.492-6.958-4.037-0.94 0.058 6.5-2.7 6.88-2.159-2.167-0.93-7.62-4.193-8.715-1.466 4.34 2.754 10.616-1.888 10.354 0.027-1.73 0.053-3.461 0.079-5.191-3.797-1.277-0.092 5.176-2.673 5.152-0.92-4.169-2.444-3.19-6.03-1.822 0.052-3.459 0.104-6.92 0.157-10.379-2.665 4.28-3.279 10.673-8.833 11.979 3.12-2.93 1.03-6.72-2.51-7.8zm77.56 20.2c2.035 0.298 1.563 3.028 4.285 2.66 1.511-6.404 12.925-13.458 7.209-18.925-2.72 6.57-8.67 9.81-11.49 16.27zm-109.71-11.17c-0.497-1.792 1.487-5.99-1.651-5.218 0.49 1.79-1.49 5.99 1.65 5.22zm20.71 3.77c-0.497-1.791 1.487-5.989-1.652-5.217 0.49 1.8-1.49 5.99 1.65 5.22zm-52.089 11.33c0.577 0.009 1.153 0.018 1.73 0.026 0.035-2.306 0.069-4.612 0.104-6.92-0.577-0.009-1.153-0.018-1.73-0.026-0.034 2.3-0.069 4.61-0.104 6.92zm153.93 5.79c-0.46 2.719 2.625 1.999 1.65 5.215 3.6-3.904 8.536-6.43 8.858-13.709-6.3-0.05-6.76 5.92-10.51 8.5zm-120.19-5.28c-6.354-0.55-13.958 6.506-12.242 8.468 4.451-3.319 7.53-8.052 16.541-6.671-0.949-1.921-0.923-4.788-3.382-5.243-0.17 1.28 0.26 3.19-0.92 3.44zm54.26 16.39c-14.427-3.05-25.232-9.613-40.486-11.861 0.064-1.104 1.126-1.181 0.904-2.582-2.131 0.732-3.213 2.545-6.947 1.625-1.437 3.383 3.731 0.357 3.422 2.647-1.466 1.126-1.896 3.319-5.23 2.517-1.383 3.898 5.655-0.374 4.273 3.525-3.831 0.022-6.382-1.196-7.733-3.578 3.306 0.479 4.594-1.121 5.242-3.381-10.762 3.55-17.916 10.819-24.508 18.665 4.136-1.65 7.779-8.987 12.188-5.007 1.111-2.783-2.788-0.704-1.678-3.487 3.097-0.321 2.949-3.988 6.973-3.355-0.026 1.73-0.053 3.46-0.079 5.191-5.726 2.884-10.752 6.488-14.024 11.901 5.909-2.995 10.891-11.606 17.471-10.984-0.099 1.362-2.217 0.643-1.77 2.569 2.784 1.111 0.705-2.79 3.487-1.678-0.018 1.153-0.035 2.306-0.053 3.459 2.784 1.111 0.704-2.789 3.487-1.678 1.414 1.741-0.095 1.099-0.053 3.46 1.532 0.54 3.63-2.481 4.325 0.065-0.869 2.035-3.081 2.683-3.539 5.138-1.293-0.167-3.198 0.261-3.448-0.918 0.396-1.641 1.896-2.144 1.796-4.298-1.153-0.018-2.307-0.035-3.46-0.052-0.661 3.199 1.423 3.735 0.76 6.933-8.486 2.648-9.572 10.333-8.964 20.63-2.783-1.111-0.704 2.789-3.487 1.678 1.554 3.467 1.188 3.8 3.356 6.973-2.783-1.111-0.704 2.79-3.486 1.678-1.111 2.784 2.789 0.704 1.678 3.487-3.43 0.564-0.685 7.493-5.295 6.842 0.392 5.108-4.174 9.723-1.087 14.692 4.567-1.441 10.814-1.152 13.906-4.116 5.084 4.43 13.263-3.557 16.384 3.709 3.554 0.734 1.688-4.118 5.242-3.381-3.055 4.388 3.211 2.537 5.125 4.403-0.674 1.94-4.857 0.265-6.934 0.76 0.473 5.278 7.218 0.194 12.085 1.913 1.112-2.783-2.79-0.703-1.678-3.486 2.764 0.159 6.632-0.754 6.015 2.687-1.36 0.062-2.997-0.162-2.621 1.691 2.593 0.893 4.054 2.884 7.746 2.712 0.763-1.848 3.215-1.957 6.082-1.639-0.773-3.228-6.541-1.608-5.085-6.997 5.184 1.242 5.222-2.816 10.406-1.574 0.03-2.018 0.061-4.037 0.092-6.055 4.581-2.599 9.812-4.528 12.255-9.332-5.052 1.235-7.28 5.382-12.217 6.736-1.151-0.587-1.582-1.873-1.677-3.486 5.669 0.571 7.782-2.521 10.458-5.034-2.718-0.458-1.998 2.626-5.216 1.653 1.438-3.384-3.731-0.358-3.421-2.649 4.15-2.184-1.532-3.091-1.639-6.081 4.308 3.114 10.133-3.837 12.24-8.466-8.49 4.649-13.44-2.303-22.464-2.07 0.249 5.233-8.032 1.676-9.593 5.046-3.564-0.235-3.18-4.303-5.976-5.282-0.521 1.513 0.968 5.098-0.944 5.177-1.071-3.224-6.307-2.406-5.952-7.012-2.782-1.111-0.703 2.788-3.486 1.677 3.419 5.063-3.04 11.789-7.142 14.601-0.527 3.443-0.514 2.599-0.092 6.056-2.56 1.461-5.48 2.551-5.295 6.842 2.981 0.143 2.262-3.525 5.244-3.382-2.298 4.887 3.595 3.639 4.207 7.852-1.423-1.462-6.324 0.453-6.016-2.688-4.068 1.255-6.786 1.897-10.46 5.034-0.996-9.227 1.119-15.247 5.478-18.953-1.598-0.852-2.93 2.547-3.459-0.053 2.437-6.858 8.846-9.623 12.346-15.386-5.378 2.071-7.031 7.98-12.268 10.197 0.813-7.713 2.436-9.387 2.043-20.735 9.805-13.113 32.113-4.415 46.738-1.024-0.417-3.945 0.571-6.439 3.565-6.868 1.027 2.815-2.81 0.619-1.783 3.434 2.491-0.946 4.247-2.65 5.269-5.112 0.22-1.731-3.807-3.56-0.787-5.202 2.299-0.241-0.882 4.833 2.543 3.499 1.196-4.57-2.439-4.453-1.599-8.676-3.765 1.39-2.45 8.017-7.051 8.545 1.31-3.9 3.85-6.56 5.34-10.3zm-51.72-12.89c-8.301 4.328-15.648 9.64-21.022 16.987 6.6-6.09 15.75-9.54 21.02-16.99zm85.43 72.24c-4.675 11.872-19.564 13.218-27.156 22.086-6.306-0.044-10.898 6.32-16.501 4.075-0.113-2.459 5.643 1.132 4.365-2.529-1.785-0.541-5.699 0.983-6.042-0.957 0.052-2.579 6.391 1.316 5.229-2.515-3.321 0.342-7.622-1.084-12.085-1.913-1.397 3.628 4.806-0.118 3.408 3.511-6.343-0.096-12.687-0.19-19.03-0.287-2.726-3.221-1.405-5.495-3.329-8.702-2.613 1.991-3.923 5.328-6.173 7.693-1.414-1.47-5.069-0.765-7.772-0.983-3.18 4.482-1.134 9.624-3.669 13.789 6.017-2.754 9.215 1.613 15.597-1.494 0.817-3.416-0.108-5.291 0.969-6.908 4.014 3.208 13.207 1.393 19.87 2.03-1.875-4.999-15.374 1.279-17.249-3.722 7.782 0.691 17.888-0.875 24.208 1.231-2.551 0.066-3.418 3.329-6.986 4.221-3.724 0.933-9.994-2.34-12.138 1.547 7.498 0.112 14.995 0.226 22.492 0.341 20.736-10.255 41.803-20.168 52.528-40.737-5.22 1.63-4.32 9.58-10.53 10.21zm-34.22 31.49c0.618 1.389 4.238-0.134 3.421 2.647-8.92-4.824-17.943-0.98-31.98-2.214 5.111 7.234 16.285-0.922 25.912 2.987-0.741 2.748-5.122 1.747-6.12 4.233 4.45 1.9 5.993-3.711 8.663-0.733-1.872 1.875-6.106 1.317-6.985 4.221 8.369-2.212 17.23-3.914 21.783-10.054-4.901 0.527-9.413 6.09-13.906 4.116 2.11-1.05 3.058-3.292 6.96-2.491-0.92-1.99-6.29-4.07-7.73-2.73zm25.18-5.67c5.679-9.374 17.705-12.205 21.127-23.906-10.486 12.326-23.853 21.684-37.667 30.58 7.28-0.4 10.32-5.18 16.54-6.67zm-24.28 3.09c4.042-1.08 2.852 2.916 6.894 1.834 1.397-3.629-4.806 0.119-3.408-3.512 3.844-0.89 4.28 1.531 6.893 1.834 1.323-3.27-3.864-0.228-2.542-3.499 18.123-6.798 32.362-17.599 39.476-35.742-10.56 18.4-27.91 29.8-47.31 39.09zm47.56-54.65c-8.728 15.604-20.363 28.206-33.473 39.293 11.621-4.42 17.097-15.175 26.29-22.1 1.4-6.27 8.37-11.12 7.18-17.19zm-95.4 14.13c3.392-0.019 4.007-2.897 5.27-5.112-2.49 0.94-4.24 2.65-5.27 5.11zm43.65-25.3c3.451-0.542 3.547-4.543 6.998-5.086 1.038 4.584-3.358 3.565-3.564 6.868 6.855-4.062 11.531-10.371 12.424-20.578-4.506 2.968-2.489 12.663-8.86 13.709-1.037-4.583 3.36-3.565 3.566-6.868-4.38 3.11-8.86 6.11-10.57 11.96zm79.9-19.56c1.154 0.018 2.307 0.035 3.462 0.053-1.633-4.422 7.333-5.949 1.86-8.625-1.02 3.65-5.87 3.33-5.32 8.58zm-23.4 2.24c-1.048 1.848-1.937 3.86-4.39 4.259-0.188-2.536 1.995-2.628 1.808-5.164-2.987 1.314-6.029 2.571-7.865 5.072-4.682-2.608-9.895-0.628-14.678-1.952-1.278 12.738-8.922 18.917-14.259 27.472 6.91-0.72-0.338 2.562 2.529 4.364 1.786-0.794 3.095-2.081 3.526-4.272-1.018-0.152-2.459 0.111-2.582-0.904 4.214-7.661 9.011-14.725 13.314-22.295 9.024 5.232 27.846 3.965 28.665-7.354-3.453 0.543-3.549 4.543-6.999 5.086-0.63-1.95 4.04-2.7 0.93-4.32zm30.19 6.52c1.151 0.017 2.306 0.035 3.461 0.052-1.037-4.583 3.359-3.566 3.565-6.867-4.38 0.17-6.73 2.44-7.02 6.82zm-74.68 17.9c2.283-0.88 3.939-3.25 3.433 1.782 6.78-5.311 10.362-13.918 14.183-22.282-2.816 1.026-0.618-2.809-3.436-1.782-1.196 9.308-5.315 15.607-10.695 20.604 0.446-7.253 11.536-12.578 5.507-20.682 0.495 8.124-2.245 12.915-7.157 15.466 1.045-5.118 9.635-14.379 3.736-18.114 0.366 11.799-7.834 14.767-10.734 23.198 3.949-0.029 3.299-4.798 6.998-5.084 1.07 4.03-2.93 2.84-1.84 6.88zm44.22-6.25c4.436 1.351 3.76-2.567 7.812-1.612 0.108-6.344 9.361-7.904 6.276-14.614-3.05 7.1-8.45 11.79-14.09 16.22zm-113.22-8.63c3.715-2.613 8.606-4.015 10.511-8.493-3.9 2.41-8.01 4.63-10.51 8.49zm112.2 19c-0.017 1.152-0.035 2.306-0.053 3.459 9.459-1.38 13.603-8.238 19.241-13.554-0.667-6.091 8.14-10.342 3.682-14.653-5.73 10.2-8.05 23.92-22.87 24.74zm36.64-20.21c2.204-0.072 3.373-1.208 3.514-3.408-1.154-0.018-2.309-0.034-3.461-0.052-0.01 1.15-0.03 2.3-0.05 3.46zm-10.49 6.76c-0.495-1.791 1.489-5.989-1.651-5.217 0.5 1.79-1.48 5.99 1.65 5.22zm-57.3 12.98c6.605-2.563 7.969-10.529 10.642-17.144-4.62 4.6-6.13 12.41-10.64 17.14zm22.65-10.04c6.606 0.365 9.395-3.203 12.218-6.738-6.057-0.327-8.443 8.302-13.894 3.252-1.12 2.78 2.78 0.7 1.67 3.49zm48.42 2.46c4.007 1.203 2.938-2.828 6.947-1.625-0.174-1.536 0.937-4.319-1.678-3.487 0.12 3.65-5.05 1.84-5.27 5.12zm-60.66 6c-2.829 5.186-9.571 7.163-10.588 13.685 6.628-6.639 13.031-13.509 15.935-23.985-3.79 1.86-3.51 6.94-5.34 10.29zm-3.62 10.33c5.409-4.968 10.76-9.995 12.398-18.848-4.63 5.77-7.94 12.9-12.4 18.85zm50.36-11.35c2.473-0.38 2.532-3.246 3.54-5.137-2.77 0.07-3.84 1.91-3.54 5.14zm-27.66-2.15c2.347-0.215 6.387 1.314 5.228-2.516-1.46 1.14-5.5-0.39-5.23 2.52zm-70.96 0.66c1.66-5.02-3.731-3.199-6.868-3.565 0.59 2.83 4.81 2.15 6.87 3.56zm41.08 30.04c9.805-6.878 14.347-19.183 21.205-29.098-9.1 7.6-13.73 19.81-21.2 29.1zm-96.464-29.15c0.347 1.937 1.482 3.108 3.408 3.513 0.93-3.38-1.832-5.05-3.404-3.51zm98.534 6.68c3.019-0.404 4.037-2.868 5.269-5.112-2.49 0.95-4.25 2.65-5.27 5.11zm15.55 1.97c-4.459 15.904-17.736 22.718-28.18 32.454 16.385-8.299 27.902-21.61 35.203-39.27-4.35 0.2-2.67 6.62-7.02 6.82zm18.87 10.67c4.373-3.106 6.834-8.183 8.86-13.708-3.23 4.28-6.99 8.02-8.86 13.71zm-128.03-1.94c3.483-0.509 0.691-7.486 3.591-8.598-2.984 0.054-2.154-3.593-5.138-3.538 0.17 4.39 2.69 6.49 1.55 12.14zm20.79-1.41c4.14-0.711 4.902-4.904 7.891-6.802 1.362 0.099 0.643 2.217 2.569 1.769 0.113-1.053 0.289-2.044 1.756-1.703-0.346-1.938-1.483-3.107-3.408-3.513-2.05 4.32-6.95 5.71-8.81 10.24zm100.24 8.43c3.815-3.682 5.368-9.694 8.86-13.71-5.04 2.42-7.25 7.76-8.86 13.71zm-44.88-7.6c2.815-1.026 0.619 2.809 3.434 1.782 1.111-2.782-2.79-0.703-1.678-3.486 1.057-0.082 2.052-0.227 1.757-1.704-1.93 0.35-3.1 1.49-3.51 3.41zm4.98 13.92c6.497-3.848 12.965-7.722 15.807-15.336-5.98 4.38-11.25 9.49-15.81 15.34zm103.91-5.35c-2.577-3.183-6.396-5.161-12.032-5.374 2.63 3.13 8.51 3.1 12.03 5.37zm-52.03 7.87c-0.017 1.154-0.034 2.308-0.053 3.46 6.597 1.527 6.277-4.072 10.459-5.034-0.22 4.459-4.21 5.03-5.32 8.574 3.746-0.24 4.224-3.848 8.701-3.331-0.183-6.125 9.192-10.509 5.414-14.627-7.13 2.9-10.4 9.78-19.2 10.96zm-8.62-1.86c3.665-1.201 4.476-5.343 6.186-8.559-4.36 0.48-3.75 6.09-6.19 8.56zm43.3-2.81c-0.381-2.472-3.246-2.532-5.136-3.538 0.58 2.28 1.82 3.92 5.14 3.54zm34.44 10.9c0.035-2.308 0.07-4.614 0.104-6.921-5.528-2.022-10.104-4.971-15.465-7.156 4.77 5.05 9.85 9.78 15.37 14.08zm-29.51 6.48c-0.862-5.604-5.589-2.477-9.45-4.469 1.629-3.008 3.53-5.735 2.766-11.207-5.804 1.084-7.176-2.132-10.327-3.617-4.555 6.208 0.701 10.344 1.493 15.597 6.69-0.23 8.72 2.51 15.52 3.7zm-55.23-9.49c1.456 1.43 0.84 4.869 3.384 5.243-0.135-4.238 2.74-5.373 3.591-8.599-4.35 0.18-2.69 7.88-6.97 3.36zm-48.58 7.92c4.305-0.247 6.45-2.723 8.73-5.059-4.04 0.52-7.45 1.69-8.73 5.06zm39.77 2.33c-0.748 3.915-2.391 6.907-7.023 6.816-13.897 12.35-32.811 25.829-57.433 21.627-1.529-6.13-8.457-2.402-12.006-7.103-1.412 5.077-10.14-4.623-11.285 2.425 5.543 1.441 13.559 0.483 14.613 6.278-9.773 0.699-18.874 18.478-2.883 18.991 3.527-2.222 7.691-3.786 13.893-3.253 27.872-7.29 53.266-17.134 68.913-37.028-17.392 13.409-37.074 29.142-62.766 31.066 3.413-0.876 5.593-3.02 10.42-2.438-0.373-3.02 4.236-0.905 4.377-3.395 1.442 0.022 2.885 0.044 4.325 0.065 4.107-3.088 8.752-5.622 14.812-6.697 8.629-9.555 23.471-12.706 28.937-25.52-15.617 16.113-36.162 27.149-61.075 33.686 0.018-1.154 0.034-2.306 0.052-3.46 26.554-4.26 44.879-17 59.345-33.712-2.46-0.19-1.74 2.89-5.22 1.64zm55.34 2.57c0.018-1.154 0.033-2.307 0.052-3.461-1.152-0.017-2.306-0.034-3.459-0.051 0.07 2.2 1.21 3.37 3.41 3.51zm3.43 1.78c5.231-1.097 6.34 1.806 10.354 1.888-1.511-3.646-4.82-5.553-10.302-5.348-0.01 1.15-0.03 2.31-0.05 3.46zm41.29 130.41c3.383 1.438 0.359-3.729 2.648-3.419 4.538 4.404 9.772 8.135 18.035 8.924-0.808-4.899-7.143-4.435-6.763-10.484-3.979 0.45-6.65-0.369-8.623-1.861-0.374 2.545-3.815 1.926-5.245 3.383-3.91-8.139-10.443-13.735-11.743-24.404-8.304-8.705-9.344-24.461-16.791-34-5.673-19.781-15.862-35.181-21.667-54.835-5.364-3.319-2.477-14.644-10.146-15.729 4.089 19.898 10.665 37.385 14.709 57.327 1.44 0.022 2.884 0.045 4.324 0.065 2.793 8.938 4.364 19.062 9.123 26.095 1.614 0.265-1.729-6.118 0.97-6.906 6.055 11.456 10.085 24.877 15.886 36.58 1.729 0.026 3.461 0.053 5.19 0.079 1.49 8.22 6.46 13.05 10.09 19.19zm-204.9-125.1c0.112-2.625 7.793-5.476 2.713-7.748-0.28 2.69-5.16 5.17-2.71 7.75zm63.21-3.37c2.602-0.247 4.464-1.256 5.242-3.382-1.91 0.95-4.78 0.92-5.24 3.38zm114.16 3.46c-8.929 0.708-11.204-5.039-20.708-3.773 4.45 2.61 15.2 7.84 20.71 3.77zm-26.97 67.08c0.634-3.779-3.883-6.979-0.708-10.393 2.507 4.954 2.061 12.774 5.806 16.528 0.47-10.388-4.603-16.732-1.377-23.383-2.784 0.713-2.687-1.372-3.42-2.647 1.285-8.351-2.541-11.739-1.429-19.923-7.386-6.471-6.2-21.261-12.546-28.742-3.219 14.538 3.824 26.37 5.466 39.017 5.407 1.87 6.857 12.088 5.796 17.394-2.583-0.052 1.316-6.391-2.516-5.228-0.13 7.5 1.86 12.96 4.93 17.37zm-73.84-37.46c10.693-2.45 16.419-10.018 26.16-13.447 2.163-5.483 13.983-10.056 10.616-15.415-8.57 13.44-25.37 18.38-36.78 28.87zm43.46-13.18c4.19-0.661 3.631-6.215 7.037-7.682 0.062 1.36-0.162 2.997 1.691 2.621-2.807-3.714-0.729-6.123 0.155-10.382-3.98 4.09-5.93 10.29-8.88 15.44zm55.41-2.63c3.281-1.013 6.026-2.574 7.865-5.073-7.349-3.862-17.96-1.863-28.468-5.623 3.83 6.51 14.05 6.82 20.6 10.69zm-166.03-5.97c1.336-3.854-2.492-2.695-1.638-6.083-2.149 0.715-3.213 2.547-3.54 5.141 3.271 1.319 0.229-3.864 3.5-2.544 0.18 1.53-0.94 4.32 1.68 3.48zm105.45 6.79c4.366-0.184 2.93-6.351 5.322-8.571-3.4 1.17-4.67 4.55-5.32 8.57zm-27.91 15.15c10.215-4.697 19.525-10.331 26.238-18.637-9.62 5.32-18.33 11.57-26.24 18.64zm-44.78-14.52c6.747 1.096 8.639-2.811 15.598-1.495-2.93-3.94-12.4-0.09-15.6 1.49zm63.76 18.27c-5.984 7.595-12.694 14.441-21.913 18.705 4.042 1.764 5.208-3.924 7.798-0.749-3.23 3.114-8.354 4.273-14.771 4.104 1.26 5.4 8.12-1.733 9.504 1.009-1.945 1.216-2.57 3.792-5.255 4.245-1.399 3.63 4.804-0.115 3.408 3.513-5.568 1.289-11.628 2.074-13.947 6.712 3.873-1.007 11.147-3.127 15.584-0.629-4.783 1.219-11.089 0.87-15.61 2.359 1.809 7.378 11.387-2.075 15.52 3.695-5.423 0.853-12.391 0.112-13.919 4.98 5.138 1.458 8.202-3.807 12.125-0.681-2.766 3.884-11.047 2.084-17.341 2.334-1.437 3.381 3.731 0.355 3.421 2.646-2.119 3.38-2.736 8.308-7.917 8.532 6.536 4.606 19.041 2.766 25.061 2.108-9.022 9.069-26.376-2.562-37.235 2.032 15.308 4.099 27.676 5.098 43.212 3.25-11.836 6.758-27.146 0.901-41.574 2.836 8.179 3.582 26.149 3.317 33.711 2.238-0.858 0.871-1.735 1.725-2.634 2.556-13.602-0.998-19.062 3.875-30.277-0.457 7.994 8.826 19.575 1.628 31.103 3.064-1.176 6.109-15.699-1.537-15.663 5.82 3.759 0.614 9.796-0.981 12.099 1.048-8.497 0.236-17.269 3.813-24.235 0.498 4.756 8.386 15.232-0.656 20.708 3.774-3.732-0.92-4.813 0.894-6.946 1.626-0.229 3.063 4.033 1.771 3.382 5.241-2.35-0.666-1.768 1.695-3.487 1.678 1.32 9.854-8.558 8.164-13.158 11.915-0.639-1.368-2.726-1.332-2.542-3.499 2.554-2.022 6.379-4.071 8.676-1.599-2.001-3.513 1.409-2.105 1.808-5.164-2.711-2.484-4.327-6.029-5.033-10.46-11.165-1.258-8.918-10.278-15.335-15.804 3.308-0.899 5.364 2.369 6.067-0.774-2.426-1.624-7.344-0.831-7.719-4.443 1.64-0.36 5.196 1.256 4.352-1.667-3.634 0.687-4.693-1.128-6.017-2.687 0.099-1.361 2.217-0.643 1.77-2.567-4.398-2.12-2.15-5.398-5.06-8.729 2.876-0.233 3.24 1.972 5.152 2.673-0.1 1.364-2.217 0.646-1.769 2.57 3.473 2.255 7.901 5.356 10.379 0.156-2.621-0.582-7.467 0.995-8.637-0.996 0.054-2.58 6.392 1.317 5.229-2.516-3.432 0.202-5.271-1.137-6.881-2.7-0.241-2.298 4.834 0.881 3.5-2.544-2.791-1.271-6.261-1.88-6.842-5.294 2.456-0.11 1.644 2.951 5.165 1.809-3-8.222-4.848-14.821-4.772-27.761-4.036-0.061-8.073-0.121-12.11-0.182-1.251 9.253 1.901 23.043-2.175 29.386 2.118 23.229 10.435 40.448 24.3 52.281-4.385 0.844-4.918-2.049-8.623-1.863-11.759-12.741-17.895-30.937-20.842-52.228-4.056 1.764-1.18 10.525-0.196 12.975-7.809 9.548 5.833 29.766 1.104 41.548 5.675 9.555 10.794 19.644 18.625 27.104 3.515 0.284 6.411 1.167 5.977 5.28-5.395-1.459-4.591 3.47-9.554 2.452-7.784-12.809-21.523-24.393-16.635-44.378-6.822-5.601-6.131-23.025-5.558-32.964 1.363 0.103 0.645 2.218 2.569 1.77-4.225-6.695-1.724-19.92-5.649-26.907-3.212 8.11 1.564 24.455-3.065 31.103 0.057-3.747 0.113-7.497 0.169-11.244-12.089 35.856-16.721 79.4-39.645 104.09 0.088-1.506-0.152-2.693-0.812-3.474 19.462-32.066 29.51-73.834 38.962-116.22-7.715 7.521-7.726 20.065-10.864 31.848-4.198 15.755-9.043 32.143-14.561 47.369-4.514 12.46-12.993 22.293-16.093 34.365-1.73-0.024-3.461-0.052-5.19-0.078 0.436 6.965 4.112 10.783 6.684 15.675 7.702 0.485 12.354 3.928 20.709 3.775 6.717 7.404 17.131 11.223 27.458 15.124 2.735-3.152 6.249-2.116 10.394-0.709 0.905-2.581 0.992-6.006 5.269-5.111 0.259 8.431-1.343 19.855 4.876 20.839-1.801-7.78-7.932-26.218 3.878-27.626-1.142-3.522 1.918-2.709 1.809-5.168 13.194-6.314 24.454-14.62 36.671-21.939-5.536-0.128-19.176 3.646-27.694 0.446 0.711-4.539 8.545-1.733 13.016-2.398 8.324-3.134 18.846-4.004 27.785-6.501 5.443 6.023 9.858-5.826 16.461-1.484 2.14-1.118-1.518-2.633 0.918-3.446 1.361 0.1 0.644 2.217 2.567 1.769 0.22-1.632-0.944-1.922-0.812-3.474 2.707 1.034 2.126-1.326 3.489-1.676 9.813-0.495 21.783-5.774 32.109-6.438 3.436-0.22 10.056-1.54 12.07 2.779-18.524 1.402-35.817 4.075-47.771 12.256-3.172-0.047-6.344-0.096-9.517-0.143-2.215 4.743-7.025 6.812-13.944 6.711-0.15 1.014 0.111 2.457-0.904 2.581-6.567 0.846-8.869 6.087-16.527 5.807-6.194 5.329-11.398 11.68-18.415 16.162-1.297-1.352-5.907-1.632-5.215 1.651 3.339-1.105 7.259 2.131 11.259-0.694-0.018 1.152-0.035 2.305-0.052 3.458 2.98 0.145 2.26-3.526 5.242-3.38 0.18 0.678 0.709 1.015 1.717 0.891-0.163 4.418-0.589 9.095 1.559 11.271-0.204 5.668-0.427 17.773 4.877 20.84-0.419-10.094-5.624-23.72-2.989-31.194 1.153 0.018 2.306 0.035 3.459 0.053 0.75 10.638 0.631 22.116 4.745 29.488 3.294-6.005-4.307-19.965-2.175-27.721 3.748 0.059 7.496 0.116 11.245 0.172-0.017 1.152-0.035 2.307-0.053 3.459 2.98 0.145 2.261-3.525 5.243-3.38 1.247 4.3 2.526 2.809 6.028 1.821 2.723 7.303-2.879 22.68 5.689 24.311-1.323-6.754-6.394-20.329-0.473-25.963 2.49 0.14 1.446 3.71 4.272 3.526 0.521-1.514-0.97-5.1 0.943-5.177 0.639 1.37 2.725 1.333 2.543 3.499 4.518-1.984 6.709-1.229 12.138-1.549 0.162 9.503 0.832 18.515 4.824 24.3 1.22-7.729-3.994-13.727-0.553-20.772 3.888 0.694 2.798 2.368 6.056 0.092 0.483 8.053 0.514 16.547 4.876 20.838 0.616-5.597-5.392-15.483 1.992-17.275-0.255 7.066 0.231 13.414 4.955 15.649-0.293-5.694-4.745-11.856-2.334-17.339 6.086 3.67 0.693 22.355 9.202 20.904-1.287-4.731-4.29-12.3-2.334-17.339 1.106-0.032 1.215-1.092 2.609-0.826-0.036 5.687 1.741-0.61 5.177 0.942-1.445 4.844-0.162 12.795 3.223 15.622 2.383-3.996-3.572-11.104-0.628-15.583 7.963 0.514 1.655 14.872 7.522 17.418 1.72-7.364-3.91-12.098-0.59-18.179 7.41 0.77 1.158 14.79 7.535 16.554 0.627-4.016-3.201-7.409-0.68-12.124 3.709 2.369 2.137 9.86 5.87 12.202 2.052-4.377-0.245-18.993-0.459-26.828-6.147-0.48 0.436 12.162-4.521 12.91-0.931-4.211 2.279-12.438-1.521-13.867-0.606 3.473 0.986 9.215-1.033 11.232-10.479-9.613 3.912-25.354 6.59-35.375-4.786 1.234-4.558-2.396-8.623-1.86-5.074-10.841-9.767-18.868-9.882-33.029-5.266-0.155-8.812 1.462-10.46 5.033 2.621 0.583 7.467-0.995 8.636 0.998-28.316 1.421-65.559 4.948-95.14-2.306 1.111-2.782-2.789-0.702-1.678-3.485 19.581 5.6 53.319 9.286 74.367 2.856 1.265-4.261 6.911-4.007 10.472-5.899 2.46-7.716 10.04-10.151 12.385-17.984-3.574 1.897-8.367 7.167-13.905 4.116 3.654-2.382 8.536-3.502 10.499-7.628-6.456 2.14-12.843 9.01-20.016 7.483 8.063-3.994 19.986-8.68 21.024-16.985-6.901 6.651-16.382 15.323-27.053 15.164 10.19-5.016 20.219-10.201 26.253-19.502-7.742 4.909-15.505 14.469-25.309 14.325 3.019-1.572 5.147-4.065 9.581-4.18 2.786-4.742 7.146-7.86 12.268-10.197-0.334-3.033 2.855-6.945 5.255-4.249-0.099 1.362-2.216 0.646-1.769 2.571 4.437-1.645 3.978 3.71 2.516 5.229 5.427-1.857 3.308 3.609 5.99 4.415 0.03-2.017 0.061-4.037 0.091-6.054-11.653-16.253-17.344-38.29-25.074-58.351-8.602 11.926-24.343 16.491-38.415 22.78 1.248-3.985 5.431-4.946 10.458-5.034 8.401-8.327 22.584-10.691 28.021-22.071-10.431 7.992-22.578 18.893-37.496 19.333 10.32-4.005 18.153-10.574 28.77-14.274-0.634-1.949 4.034-2.696 0.929-4.312-5.256 4.957-16.462 9.117-23.526 10.891-1.56 0.396-4.91 5.068-5.188-0.077 12.239-3.196 22.127-8.819 29.671-16.855-9.796 5.128-18.224 11.67-29.646 15.126 0.373-3.717 3.601-4.488 6.998-5.086 1.399-3.628-4.806 0.116-3.408-3.512 9.621-4.728 19.858-8.816 26.213-16.91-7.007 3.035-13.098 11.678-20.931 10.933 3.572-2.019 0.144-2.233-1.678-3.487 10.372-5.414 18.291-13.358 24.574-22.987-10.17 4.22-11.14 17.86-24.52 18.71zm14.02-11.9c-2.49 0.946-4.248 2.651-5.269 5.111 2.49-0.95 4.25-2.65 5.27-5.11zm51.98-4.41c3.147-0.858 10.008 2.114 10.409-1.572-3.15 0.86-10.01-2.12-10.41 1.57zm-122.89 1.61c4.637 0.68 6.331-1.676 9.555-2.451-2.89-1.9-9.03-0.9-9.55 2.45zm45.69 11.07c7.589-3.013 13.54-7.711 18.374-13.564-5.84 4.8-13.24 8.01-18.37 13.56zm68.51-10.21c-0.021 1.441-0.043 2.884-0.065 4.325 8.321 0.92 17.724 9.258 26.764 3.866-2.599-2.458-6.856-3.376-5.95-7.012-9.7 0.33-15.17-1.48-20.74-1.18zm-148.95 8.99c3.294-2.451 1.972-2.472 5.189 0.08 0.48-3.307-1.122-4.596-3.381-5.243-0.51 2.34-0.73 2.14-1.81 5.16zm96.75 10.12c5.312-4.479 13.497-6.003 15.781-13.604-5.39 4.39-10.9 8.67-15.78 13.6zm-154.89 58.22c-3.877 3.032-4.882 9.024-7.13 13.736 2.784 1.11 0.704-2.789 3.486-1.678-5.686 14.345-14.02 25.96-22.201 37.734-3.575-0.212-2.668 2.827-6.068 0.774-0.536 2.791 0.195 4.354 1.651 5.216-2.807 16.644 2.491 25.426 13.409 28.756 4.997-0.124 11.283 1.089 13.867-1.521 2.457-0.109 1.645 2.951 5.164 1.809-0.678-4.831 5.268-6.417 2.752-10.341 3.134 0.875 5.027-6.312 6.212-10.289-3.442 0.552-1.853 6.29-5.294 6.842 11.242-27.539 21.003-55.22 27.259-86.111 3.268-16.132 7.167-33.011 7.705-51.799-2.983 0.056-2.154-3.591-5.137-3.538-0.441 8.146-9.279 20.343-3.001 26.777 2.095-1.063-0.373-6.828 1.849-7.759 1.015 0.15 2.457-0.112 2.582 0.903-6.227 11.445-3.163 32.469-11.021 42.23-1.504 20.706-11.133 33.037-18.034 48.181 4.601-0.528 3.285-7.156 7.051-8.546-8.852 16.939-16.399 35.223-30.982 46.254-2.34-0.57-6.881 0.994-7.773-0.982 7.64-5.891 17.091-9.91 21.063-19.583-4.411 3.07-7.892 7.094-13.971 8.441-4.784-7.521 3.37-13.09 3.773-20.708-5.502 3.698-4.655 13.946-13.199 14.509-1.7-0.624-2.271-2.342-2.53-4.365 11.451-2.545 10.997-17.361 20.237-22.189 0.377 1.661-2.723 3.685 0.812 3.474 8.589-11.474 8.683-26.616 16.172-39.557-1.668-3.895-1.284-4.013 0.118-7.784 0.22-1.732-3.806-3.56-0.787-5.203 2.078-0.312-0.539 3.933 2.557 2.635 0.218-1.634-0.946-1.925-0.813-3.475 2.483 0.733 3.726-2.834 4.403-5.124 4.692-15.841 6.023-34.999 11.14-50.016-3.33-0.263-6.134 4.643-7.025 6.815-2.611 6.37-2.863 15.56-5.53 22.413-1.565 4.021-4.87 6.492-5.347 10.301 3.519 9.361-7.632 22.252-6.539 31.916 2.517-3.261 2.663-8.968 6.225-11.153-3.078 8.541-5.643 17.609-10.747 24.063-0.341-5.61 3.578-6.84 3.64-12.05zm213.82-64.25c4.767-0.36 6.743 1.983 10.343 2.751 0.239 2.299-4.835-0.881-3.502 2.544 6.17-0.198 12.769 2.146 16.45-0.617-5.129-5.819-17.419-4.691-24.969-8.164-1.12 2.78 2.79 0.7 1.68 3.49zm-102.11 0.18c3.5-0.199 5.936-1.495 7.839-3.342-1.442-0.021-2.884-0.044-4.327-0.065 1.3 3.66-4.79-0.27-3.51 3.4zm66.45 11.39c-0.338-1.659-0.257-3.728-2.543-3.5-0.27 2.26-0.36 4.33 2.54 3.5zm-83.01-2.99c-2.595-0.038-5.189-0.077-7.785-0.116-0.48 3.11 8.01 2.39 7.79 0.12zm125.35 7.09c1.771 3.594 10.635 4.187 13.789 3.669-2.29-2.324-5.717-3.544-7.693-6.171-0.2 2.72-2.9 2.88-6.1 2.5zm-195 21.28c0.739-2.499 4.279-6.667 1.874-9.49-1.595 1.35-5.038 8.96-1.874 9.49zm185.94 5.41c-0.602-1.976 1.66-6.727-1.64-6.083 0.12 2.44-0.83 5.92 1.64 6.08zm-1.87 9.49c-0.792-2.643 1.985-8.745-1.601-8.677-0.08 0.7-1.47 8.37 1.6 8.68zm5.16 1.8c-1.139-3.439-0.619-8.49-3.303-10.431-0.44 4.97 0.35 8.76 3.3 10.43zm-224.2 64.1c15.155-13.106 24.952-36.754 30.327-60.107 1.025-4.451 3.256-11.249 0.235-15.571-8.285 27.19-22.12 48.66-30.562 75.68zm117.02-70.91c1.791-0.496 5.988 1.488 5.216-1.651l-5.19-0.078c-0.02 0.58-0.02 1.15-0.03 1.73zm132.56 45.27c-6.559-14.097-12.523-28.762-20.134-41.834 6.29 14.35 9.95 31.25 20.13 41.83zm-146.48-40.29c2.182-0.682 7.423 1.792 6.947-1.626-2.306-0.035-4.613-0.07-6.92-0.105-0.01 0.59-0.02 1.17-0.03 1.74zm3.38 5.24c3.145-0.857 10.005 2.116 10.405-1.572-3.15 0.86-10.01-2.11-10.41 1.57zm112.21 18.14c0.139-3.828-1.003-6.415-3.342-7.837-0.06 3.76 1.41 6.02 3.34 7.84zm17.31-0.6c0.479-3.308-1.122-4.594-3.382-5.243 1.45 1.43 0.84 4.86 3.38 5.24zm-8.78 8.52c2.351 0.666 1.769-1.692 3.486-1.678-1.492-3.098-2.344-6.816-5.059-8.729-1.25 5.19 2.81 5.22 1.57 10.41zm12.14-1.55c0.479-3.307-1.122-4.596-3.382-5.243 0.94 1.92 0.92 4.79 3.38 5.24zm-0.13 8.65c-2.677-3.654-2.119-10.443-6.736-12.214 1.35 4.93 3.18 9.41 6.74 12.21zm-17.25-3.72c0.017-1.154 0.035-2.306 0.052-3.46-1.151-0.018-2.306-0.036-3.46-0.052-0.72 2.97 0.42 4.14 3.41 3.51zm-12.3 11.93c1.553 7.557 9.476 16.206 4.823 24.301 7.766 11.218 19.804 22.2 38.627 20.485-5.057-1.345-9.338-3.442-14.641-4.548-0.417-5.562-4.596-7.474-8.508-9.646-2.905-7.689-8.671-12.61-10.052-21.781-2.671-0.534-3.22-3.127-5.125-4.405-1.533-7.729 3.56-8.631 3.683-14.652-3.04 3.29-3.85 8.91-8.81 10.24zm39.38 28.28c3.281-10.677 14.934-12.722 24.483-16.935 0.184-2.452-2.901-1.733-1.651-5.218-9.006-3.021-11.546 2.261-17.276-1.991-6.891 4.853-16.376-2.199-17.169-8.913-5.761 0.391-12.728-8.99-15.557-1.1 12.786 1.233 15.426 12.309 25.715 15.965-6.226 7.957 1.236 14.622-2.058 21.598 3.429-1.025 12.037-3.872 16.541-6.671 5.596-0.968 15.402 2.403 18.19-1.455-13.33-4.01-21.97-1.47-31.2 4.71zm9.08-28.42c1.464-2.253-2.378-5.251-5.101-6.133 0.37 3.34 2.01 5.43 5.1 6.13zm17.23 4.59c2.182-0.678 7.423 1.795 6.946-1.626-2.307-0.033-4.614-0.069-6.92-0.103-0.01 0.58-0.02 1.15-0.03 1.73zm-72.69 0.63c-0.803 2.771 2.836 1.23 2.543 3.501-1.136 2.636-5.262 2.19-6.133 5.1 3.777-0.792 7.561-1.578 10.432-3.303-1.413-2.607-1.342-6.656-5.084-7.001-0.11 1.05-0.29 2.04-1.76 1.7zm88.21 3.07c-0.348-1.937-1.482-3.108-3.408-3.514-1.58 1.52-0.01 4.33 3.41 3.51zm-59.13 19.87c5.685 0.537 8.666 1.386 8.729-5.06-4.551-1.175-3.665 3.25-6.972 3.354-0.761-8.396 3.125-12.003 2.044-20.735-2.31-0.033-4.614-0.068-6.922-0.104-3.86 5.64 1.55 14.81 3.12 22.55zm41.73-13.21c5.586-0.875 8.061 1.269 12.083 1.913-0.02-3.65-10.35-5.52-12.08-1.91zm20.78-1.42c-5.729 4.635-7.064 13.802-10.694 20.604 5.87-4.49 7.39-13.46 10.69-20.6zm-1.91 12.08c2.851 0.008 1.558-4.252 5.244-3.381 0.035-2.307 0.069-4.614 0.105-6.92-1.637-0.22-1.925 0.945-3.476 0.812 1.19 5.03-2.09 5.46-1.87 9.49zm1.65 5.22c2.204-0.07 3.377-1.208 3.515-3.408-2.21 0.07-3.38 1.21-3.52 3.41zm-40.72 3.71c4.748 1.178 14.462 0.413 16.501-4.078-7.2-0.39-12.91 0.75-16.5 4.08zm38 4.9c0.212-1.819 4.673-6.682 0.969-6.908-0.55 1.48-4.39 6.99-0.97 6.91zm-18.43 17.03c5.526-4.259 7.964-11.704 10.666-18.874-4.32 5.49-8.11 11.55-10.67 18.87zm19.24-13.55c2.281-1.166 4.772-2.11 5.271-5.114-1.154-0.018-2.307-0.033-3.461-0.051 1.14 3.51-1.92 2.7-1.81 5.16zm-46.69-2.44c2.182-0.681 7.423 1.793 6.946-1.627-2.307-0.035-4.615-0.069-6.922-0.105-0.01 0.58-0.02 1.15-0.03 1.73zm22.5 0.34c0.579-3.404-4.735-1.09-6.896-1.836-0.16 2.35 6.38 5.64 6.9 1.84zm2.96 32.92c1.153 0.018 2.307 0.033 3.461 0.053 3.311-11.813 10.882-19.239 14.309-30.933-7.1 9.08-12.09 20.34-17.77 30.88zm-6.53-26.05c1.354-4.159-2.103-3.644-5.14-3.541 0.07 2.77 1.91 3.83 5.14 3.54zm-283.92 7.82c0.577 0.009 1.153 0.018 1.73 0.026 0.035-2.306 0.069-4.613 0.105-6.92-0.577-0.008-1.153-0.017-1.73-0.026-0.035 2.3-0.071 4.61-0.105 6.92zm285.34 12.96c-2.845-6.333-12.227-6.321-13.631-14.05-6.81 0.925-8.736-2.891-15.545-1.965 1.123 19.651 15.38 31.101 19.214 45.282-4.58-3.795-10.434-6.354-11.035-14.01-1.154-0.018-2.306-0.036-3.46-0.054 5.21 4.378 3.408 11.106 4.954 15.647 2.784 1.112 0.702-2.787 3.487-1.678-0.019 1.154-0.035 2.309-0.053 3.461 3.473 0.65 2.178-3.61 5.242-3.381 0.905 1.036 5.38 2.395 9.504 1.009-1.214-10.758-12.896-11.354-12.624-23.553-2.884-0.922-6.034-6.039-4.193-8.716 6.069 5.76 7.291 16.226 16.148 19.281-0.904-11.346-14.499-14.909-12.585-26.148 6.53 1.34 7.62 7.95 14.57 8.88zm-11.91-14.02c2.58 3.179 7.385 4.2 10.277 7.077 0.363-5.751-5.235-5.718-8.534-7.915-0.2 0.67-0.74 0.99-1.75 0.84zm22.9 30.63c-2.639-9.604 9.018-20.015 9.096-29.279-5.861 12.115-14.783 21.075-16.998 36.946 4.162-1.86 2.926-9.28 7.091-11.14 0.13 1.29-0.36 3.18 0.81 3.47zm-7.15 15.46c1.86-1.595 1.846-5.125 4.416-5.989 1.087 4.633-2.945 3.99-1.859 8.624 5.003-0.112 2.256-8.215 7.051-8.545 1.058 4.604-2.574 4.377-1.862 8.624 6.921-3.41 5.096-15.831 10.693-20.604 0.453 3.977-0.367 6.647-1.86 8.624 4.166-0.98 3.966-6.456 5.349-10.302-2.783-1.112-0.703 2.789-3.488 1.678 0.404-4.857 3.242-7.201 3.645-12.06-5.286 6.559-7.584 16.196-11.611 24.053 0.308-13.451 10.195-24.632 13.55-37.866-7.761 11.037-12.63 25.05-18.74 37.787-3.201-3.074 1.779-5.144 0.995-8.637-3.39 2.99-6.73 10.64-6.29 14.62zm-279.08-25.84c-1.442-6.557-0.303-15.619-3.146-20.814 0.217 7.74-1.718 17.57 3.146 20.81zm1.836-6.9c3.401-0.888 1.848-10.574 1.062-12.963-1.105-0.064-1.182-1.125-2.583-0.904-0.424 5.52 2.901 7.41 1.521 13.86zm9.988 26.11c-2.767-12.658-3.136-27.643-6.318-39.897 0.245 15.11 0.282 30.41 6.318 39.9zm-1.339-25.98c3.78-0.789 0.9-8.442 1.914-12.084-2.815 1.027-0.619-2.808-3.434-1.783-0.76 5.85 2.753 7.55 1.52 13.86zm-15.911 22.26c3.032-8.126 0.896-25.818-2.962-32.924-2.314 14.17 3.001 20.95 2.962 32.92zm247.38 5.47c3.449 2.106 2.144-1.346 5.215-1.651 1.348 2.104 0.538 6.296 3.356 6.973-1.16-5.295 2.012-6.125 3.59-8.599-4.582-0.667-3.065-7.252-6.788-8.754-1.148 3.719 3.948 5.764 0.734 8.662-6.011-6.95-2.691-22.96-9.071-29.554 1.81 10.17 1.02 22.86 2.96 32.92zm29.7-18.59c1.152 0.018 2.305 0.036 3.459 0.054-1.582-3.008-1.594-2.232 0.079-5.193-5.437 0.161-6.087-4.322-10.304-5.346 1.07 4.65 6.51 5.04 6.76 10.49zm-254.35-2.11c-0.112-2.451 0.833-5.924-1.639-6.082 0.6 1.97-1.66 6.72 1.639 6.08zm-9.07 27.55c-2.628-10.519-2.261-23.942-6.422-32.976 0.892 12.2 0.474 25.68 6.422 32.98zm24.326-6.56c-0.675-9.001-0.394-18.935-4.824-24.296 1.81 7.91 1.374 17.99 4.824 24.3zm-20.525-15.88c0.576 0.009 1.153 0.018 1.729 0.026 0.035-2.31 0.07-4.615 0.105-6.92-0.577-0.011-1.153-0.019-1.73-0.027-0.035 2.3-0.069 4.61-0.104 6.92zm24.168 3.82c0.049-4.595-0.5-8.605-3.303-10.432-0.031 4.58 0.754 8.36 3.303 10.43zm10.092 19.19c-0.881-10.512-2.811-20.002-6.5-27.786 0.07 11.3 1.364 21.41 6.5 27.79zm2.046-20.73c-0.032-3.379-0.53-6.308-3.356-6.974 0.184 3.23 1.097 5.75 3.356 6.97zm75.814 21.91c0.298-10.519-2.185-18.336-4.798-26.028 0.25 9.98-0.99 21.42 4.8 26.03zm172.24-4.32c-2.012 0.246-3.321-0.19-4.312-0.931-0.022 1.442-0.044 2.884-0.065 4.325 10.649-1.029 8.295-15.463 14.169-21.416-0.183-0.677-0.71-1.018-1.721-0.892-4.28 4.67-4.81 13.21-8.07 18.92zm-239.73 4.17c-0.337-6.491-1.525-12.158-3.198-17.354-0.703-2.729 2.158-8.913-2.477-7.824 0.057 6.75 2.527 18.55 5.675 25.17zm59.1-17.28c-0.497-1.79 1.486-5.987-1.651-5.216 0.49 1.79-1.49 5.99 1.65 5.22zm58.63 13c-0.447-6.101-0.872-12.223-3.212-16.488-1.46 2.68-1.77 14.85 3.21 16.49zm-24.24 1.36c-0.944-6.474-2.638-12.216-4.929-17.38-0.12 7.5-0.63 15.39 4.93 17.38zm-77.78-6.37c-0.497-1.789 1.487-5.988-1.651-5.217 0.5 1.8-1.49 5.99 1.65 5.22zm95.1 4.9c0.035-2.306 0.069-4.612 0.105-6.921-2.815 1.028-0.619-2.809-3.434-1.781-0.17 4.15 0.09 7.87 3.33 8.7zm10.41-1.57c0.576 0.009 1.152 0.017 1.73 0.024 0.033-2.307 0.069-4.612 0.103-6.919-0.576-0.01-1.151-0.019-1.729-0.027-0.03 2.32-0.06 4.62-0.1 6.93zm-138.51 4.83c-1.351-3.805-0.429-9.812-3.276-12.163-0.371 5.47-0.177 10.39 3.276 12.16zm22.54-3.12c-1.431-2.021-2.17-4.71-1.6-8.676-3.404-0.58-1.089 4.733-1.834 6.893 2.81-1.02 0.62 2.81 3.43 1.79zm27.63 3.88c0.371-5.475 0.178-10.4-3.276-12.164-0.25 5.36 0.67 9.57 3.28 12.16zm-15.54-1.97c-0.497-1.789 1.487-5.987-1.651-5.215 0.49 1.8-1.49 5.99 1.65 5.22zm-74.448 2.34c0.027-1.73 0.053-3.462 0.079-5.191-1.154-0.018-2.307-0.036-3.46-0.054 1.456 1.42 0.837 4.86 3.381 5.24z" fill="#007E7A"/>
	<path d="m143.91 139.44c-2.546 0.569-2.59 2.865-4.325-0.066-2.291-0.31 0.736 4.859-2.648 3.421 0.519-10.008-0.816-21.925 5.583-25.872 3.94 8.19-3.151 17.043 2.255 22.53 7.378-2.645 5.524-14.807 6.422-24.13 1.965 0.934 5.209 0.628 6.894 1.835 0.261 9.64-4.683 13.915-3.826 24.168 0.865 0.014 1.73 0.027 2.595 0.04 0.864-7.602 2.769-14.13 2.935-22.451 1.936-0.347 3.107-1.484 3.513-3.409 2.495 0.989 4.373 2.577 6.867 3.566-1.229 5.175-3.817 8.949-3.695 15.518-2.636-0.667-2.567 1.453-5.204 0.787 0.451 2.807-0.327 4.348-1.808 5.164 2.282 1.985 6.22 1.7 9.477 2.739 3.448-4.34 2.87-15.562 4.612-18.965 3.854 1.336 2.696-2.493 6.081-1.638-1.853 7.458-4.329 14.279-6.382 21.534 4.977-3.947 6.212-11.753 7.221-19.791 4.659-0.542 7.38 0.795 10.355 1.886-1.198 7.843-3.592 14.454-7.222 19.792 8.206 2.298 5.918-13.806 12.359-16.252-0.53 7.468-6.808 13.338-5.491 19.817 1.688 1.488 5.385 1.026 7.759 1.848 1.208-5.198 3.432-9.348 4.549-14.64 2.474 3.191 3.255-0.613 5.188 0.079 10.447 3.734-0.745 10.902 1.391 22.516 1.971 3.12 6.167-0.499 7.731 3.578 2.138-5.118 2.769-11.791 9.7-11.966 0.852 5.534-3.651 6.885-0.157 10.38-1.926 0.448-1.206-1.67-2.568-1.769-0.818 4.896 0.8 9.845 2.359 15.61-19.35-14.752-45.114-23.281-73.975-28.807-1.464-1.421-2.095-3.65-1.625-6.946-3.114-0.865-1.258 3.389-1.808 5.165-3.084-1.424-1.298-5.03-5.165-1.809 0.04-1.16 0.05-2.32 0.07-3.47z" fill="#fff"/>
	<path d="m123.18 137.4c-3.123-0.875-0.936 3.721-2.661 4.286-1.378-3.94-2.927-2.414-5.99-4.417-0.653-8.872 1.281-15.079 2.923-21.585 2.455-0.679 2.223 1.253 4.312 0.93-0.473 9.551 2.901 15.369 3.094 24.273 2.783 1.112 0.704-2.79 3.486-1.678-0.139 2.2-1.31 3.335-3.513 3.408 0.18-2.45-2.9-1.73-1.65-5.21z" fill="#fff"/>
	<path d="m247.64 146.2c2.782 1.111 0.704-2.789 3.485-1.678 0.447 1.925-1.667 1.206-1.77 2.568 6.642-0.689 10.97 9.853 6.688 15.676 0.837 2.12 3.85-1.637 3.42 2.648 2.883 0.042 5.767 0.087 8.649 0.131-0.902 3.753-8.467 0.644-12.135 1.546-1.534-3.627-2.785-7.527-5.036-10.46 1.928-0.447 1.208 1.671 2.571 1.77 3.02-1.642-1.008-3.471-0.788-5.203-2.593 3.939-9.186-2.293-5.124-4.405-1.507-2.798-5.655-3.034-5.072-7.863 3.428 1.082 3.401 5.141 6.894 1.835 1.03 2.8-2.81 0.6-1.78 3.42zm3.35 6.97c0.638-2.891-1.404-3.184-3.407-3.513 0.35 1.94 1.49 3.11 3.41 3.51z" fill="#fff"/>
	<path d="m148.94 149.9c3.761 0.72 1.424 2.415 3.381 5.242-2.45-0.46-2.43-3.32-3.38-5.24z" fill="#fff"/>
	<path d="m88.078 169.74c0.834-3.827 2.946-6.335 3.617-10.329 7.181 0.081 5.059-9.427 13.106-8.454-4.23 9.09-5.12 22.198-3.066 31.103-2.759-2.722-3.609-7.295-3.263-13.028-1.546-1.147-3.169-0.466-6.908-0.969-1.967 7.155 3.48 14.139 4.877 20.839-5.768-3.49-5.307-13.03-8.358-19.16z" fill="#fff"/>
	<path d="m152.2 163.79c5.553-1.306 6.168-7.699 8.833-11.979-0.053 3.459-0.104 6.92-0.157 10.379 3.586-1.368 5.11-2.347 6.03 1.822 2.581 0.024-1.124-6.43 2.673-5.152-0.026 1.73-0.052 3.461-0.079 5.191 4.642 0.262 0.421-6.015 1.888-10.354 3.263 1.096 2.034 6.549 4.193 8.715 2.758-0.38-1.336-7.82 2.7-6.88 0.223 2.909-1.268 7.481 2.492 6.958 1.911-0.078 0.422-3.664 0.943-5.177 10.568 1.11 15.026 8.149 22.307 12.451-3.365 3.164-0.664 6.355-0.156 10.38-2.928-2.273-4.546-5.818-5.032-10.459-3.843-0.534-10.014 1.189-11.22-1.9-2.573 2.789 1.533 6.998-2.716 7.746 1.447 5.702 5.083 9.278 4.944 16.515-4.048-5.164-6.403-11.972-6.606-20.865-4.263 2.725-0.928 12.049-0.235 15.57-4.326-2.054-4.908-7.739-4.982-13.919-4.833 4.335 0.37 13.122 1.469 17.327-4.518-3.572-6.44-9.664-6.658-17.406-4.583 2.035-0.202 8.976-0.184 12.111-4.093-1.712-4.736-6.769-5.006-12.189-4.754 1.734 0.264 7.312-0.157 10.38-2.805-0.12-2.746-3.018-4.259-4.392-1.716 2.836 2.725 6.991 2.424 11.285-3.886-2.48-3.977-8.642-8.494-10.511 0.095-6.058-0.413-11.532-4.115-13.906-2.488 3.86 1.415 7.725-0.17 11.246-1.797-0.813-2.599-2.593-2.516-5.229-3.271-1.322-0.229 3.865-3.5 2.543-0.435-7.819-6.873-16.956 0.339-22.491-0.083 5.478-0.165 10.957-0.248 16.436 4.778-2 0.09-8.38 2.778-12.072 3.56 1.07 5.65 4.86 2.5 7.81zm34.61-0.34c0.215-2.765-1.393-3.762-3.395-4.377-0.7 3.23 0.91 4.23 3.39 4.38zm-24.42 12.61c-0.497-1.791 1.486-5.988-1.652-5.216 0.5 1.79-1.49 5.99 1.65 5.22z" fill="#fff"/>
	<path d="m120.84 177.16c2.458 0.456 2.433 3.322 3.382 5.243-9.011-1.381-12.09 3.352-16.541 6.671-1.717-1.962 5.888-9.018 12.242-8.468 1.19-0.24 0.76-2.15 0.92-3.44z" fill="#fff"/>
	<path d="m101.45 201.09c5.374-7.347 12.721-12.659 21.022-16.987-5.27 7.46-14.42 10.91-21.02 16.99z" fill="#fff"/>
	<path d="m168.84 207.3c4.601-0.529 3.287-7.156 7.051-8.545-0.84 4.223 2.795 4.106 1.599 8.676-3.425 1.334-0.244-3.74-2.543-3.499-3.02 1.642 1.007 3.471 0.787 5.202-1.022 2.462-2.778 4.166-5.269 5.112-1.027-2.815 2.81-0.619 1.783-3.434-2.994 0.429-3.982 2.923-3.565 6.868-14.625-3.391-36.933-12.089-46.738 1.024 0.392 11.348-1.23 13.022-2.043 20.735 5.237-2.216 6.89-8.126 12.268-10.197-3.5 5.763-9.91 8.528-12.346 15.386 0.53 2.6 1.861-0.799 3.459 0.053-4.359 3.706-6.474 9.726-5.478 18.953 3.674-3.137 6.392-3.779 10.46-5.034-0.309 3.14 4.593 1.225 6.016 2.688-0.611-4.213-6.505-2.965-4.207-7.852-2.982-0.143-2.263 3.525-5.244 3.382-0.185-4.291 2.735-5.381 5.295-6.842-0.422-3.457-0.436-2.612 0.092-6.056 4.102-2.812 10.562-9.538 7.142-14.601 2.783 1.111 0.704-2.788 3.486-1.677-0.355 4.606 4.88 3.788 5.952 7.012 1.912-0.08 0.423-3.665 0.944-5.177 2.796 0.979 2.412 5.047 5.976 5.282 1.561-3.37 9.842 0.188 9.593-5.046 9.024-0.233 13.974 6.719 22.464 2.07-2.107 4.629-7.933 11.58-12.24 8.466 0.107 2.99 5.789 3.897 1.639 6.081-0.31 2.291 4.858-0.735 3.421 2.649 3.218 0.974 2.498-2.111 5.216-1.653-2.676 2.513-4.789 5.605-10.458 5.034 0.095 1.613 0.525 2.899 1.677 3.486 4.937-1.354 7.165-5.501 12.217-6.736-2.443 4.804-7.674 6.733-12.255 9.332-0.031 2.019-0.062 4.037-0.092 6.055-5.184-1.242-5.223 2.816-10.406 1.574-1.456 5.389 4.312 3.77 5.085 6.997-2.866-0.318-5.319-0.209-6.082 1.639-3.692 0.172-5.153-1.819-7.746-2.712-0.376-1.854 1.261-1.629 2.621-1.691 0.617-3.44-3.251-2.527-6.015-2.687-1.112 2.783 2.79 0.703 1.678 3.486-4.867-1.719-11.612 3.365-12.085-1.913 2.077-0.495 6.26 1.181 6.934-0.76-1.914-1.866-8.18-0.016-5.125-4.403-3.555-0.737-1.688 4.115-5.242 3.381-3.121-7.266-11.299 0.721-16.384-3.709-3.092 2.964-9.338 2.675-13.906 4.116-3.087-4.97 1.479-9.584 1.087-14.692 4.61 0.651 1.866-6.278 5.295-6.842 1.111-2.783-2.789-0.703-1.678-3.487 2.783 1.112 0.704-2.789 3.486-1.678-2.168-3.172-1.802-3.506-3.356-6.973 2.784 1.111 0.704-2.789 3.487-1.678-0.608-10.296 0.478-17.982 8.964-20.63 0.663-3.198-1.421-3.734-0.76-6.933 1.154 0.017 2.307 0.035 3.46 0.052 0.1 2.155-1.399 2.657-1.796 4.298 0.25 1.179 2.154 0.751 3.448 0.918 0.458-2.455 2.67-3.104 3.539-5.138-0.695-2.546-2.793 0.475-4.325-0.065-0.042-2.361 1.467-1.719 0.053-3.46-2.784-1.111-0.704 2.789-3.487 1.678 0.018-1.154 0.035-2.306 0.053-3.459-2.782-1.112-0.703 2.789-3.487 1.678-0.447-1.926 1.671-1.208 1.77-2.569-6.58-0.623-11.562 7.989-17.471 10.984 3.272-5.413 8.298-9.017 14.024-11.901 0.026-1.73 0.053-3.46 0.079-5.191-4.024-0.633-3.876 3.034-6.973 3.355-1.11 2.783 2.789 0.704 1.678 3.487-4.41-3.979-8.053 3.357-12.188 5.007 6.593-7.846 13.747-15.115 24.508-18.665-0.648 2.26-1.936 3.86-5.242 3.381 1.351 2.382 3.902 3.601 7.733 3.578 1.382-3.899-5.656 0.373-4.273-3.525 3.334 0.802 3.765-1.391 5.23-2.517 0.309-2.29-4.859 0.736-3.422-2.647 3.733 0.919 4.815-0.894 6.947-1.625 0.222 1.401-0.84 1.477-0.904 2.582 15.254 2.248 26.06 8.811 40.486 11.861-1.48 3.74-4.02 6.4-5.34 10.3zm-42.28-7.56c3.72 0.321 6.98 0.167 6.973-3.354-3.41 0-5.93 0.91-6.97 3.35zm19.35 36.64c-1.248 3.484 1.836 2.765 1.652 5.217 3.984-4.754 22.416-2.167 19.188-10.092-4.01 4.64-11.68 5.52-20.84 4.87zm17.09 14.1c2.864 5.497 9.999-1.459 12.11 0.184-0.347-1.937-1.482-3.107-3.408-3.514-0.38 3.71-4.4 3.66-8.7 3.33zm-1.81 5.16c3.144-0.858 10.006 2.114 10.407-1.574-3.15 0.86-10.01-2.12-10.41 1.57z" fill="#fff"/>
	<path d="m182.32 288.84c13.814-8.896 27.181-18.254 37.667-30.58-3.422 11.701-15.448 14.532-21.127 23.906-6.22 1.49-9.26 6.27-16.54 6.67z" fill="#fff"/>
	<path d="m221.9 246.18c-7.114 18.144-21.354 28.944-39.476 35.742-1.322 3.271 3.865 0.229 2.542 3.499-2.613-0.303-3.049-2.724-6.893-1.834-1.398 3.631 4.805-0.117 3.408 3.512-4.042 1.082-2.852-2.914-6.894-1.834 19.39-9.3 36.74-20.7 47.31-39.09z" fill="#fff"/>
	<path d="m218.44 246.12c-10.726 20.569-31.792 30.482-52.528 40.737-7.497-0.115-14.994-0.229-22.492-0.341 2.144-3.887 8.414-0.614 12.138-1.547 3.568-0.892 4.435-4.154 6.986-4.221-6.32-2.106-16.426-0.54-24.208-1.231 1.875 5.001 15.374-1.277 17.249 3.722-6.663-0.638-15.856 1.178-19.87-2.03-1.077 1.617-0.151 3.492-0.969 6.908-6.382 3.107-9.581-1.26-15.597 1.494 2.535-4.165 0.489-9.307 3.669-13.789 2.704 0.219 6.359-0.486 7.772 0.983 2.25-2.365 3.56-5.702 6.173-7.693 1.924 3.207 0.603 5.481 3.329 8.702 6.344 0.097 12.688 0.191 19.03 0.287 1.398-3.629-4.805 0.117-3.408-3.511 4.463 0.829 8.764 2.255 12.085 1.913 1.162 3.831-5.177-0.064-5.229 2.515 0.342 1.94 4.257 0.416 6.042 0.957 1.278 3.661-4.478 0.07-4.365 2.529 5.604 2.245 10.196-4.119 16.501-4.075 7.591-8.868 22.481-10.214 27.156-22.086 6.21-0.63 5.31-8.58 10.54-10.23z" fill="#fff"/>
	<path d="m132.02 239.63c-1.263 2.214-1.877 5.093-5.27 5.112 1.02-2.46 2.77-4.17 5.27-5.11z" fill="#fff"/>
	<path d="m180.95 207.49c-0.207 3.303-4.604 2.285-3.566 6.868 6.371-1.047 4.354-10.741 8.86-13.709-0.893 10.207-5.569 16.515-12.424 20.578 0.206-3.303 4.602-2.284 3.564-6.868-3.451 0.542-3.547 4.543-6.998 5.086 1.72-5.86 6.2-8.86 10.57-11.96z" fill="#fff"/>
	<path d="m225.96 206.44c3.45-0.543 3.546-4.543 6.999-5.086-0.819 11.319-19.641 12.586-28.665 7.354-4.304 7.57-9.101 14.635-13.314 22.295 0.123 1.016 1.564 0.752 2.582 0.904-0.432 2.191-1.74 3.479-3.526 4.272-2.867-1.802 4.381-5.084-2.529-4.364 5.337-8.555 12.98-14.733 14.259-27.472 4.783 1.324 9.996-0.657 14.678 1.952 1.836-2.5 4.878-3.758 7.865-5.072 0.188 2.535-1.996 2.627-1.808 5.164 2.453-0.399 3.342-2.411 4.39-4.259 3.1 1.62-1.57 2.37-0.94 4.32z" fill="#fff"/>
	<path d="m184.23 219.65c-3.699 0.286-3.049 5.056-6.998 5.084 2.9-8.431 11.101-11.399 10.734-23.198 5.9 3.74-2.69 13-3.73 18.12 4.912-2.551 7.652-7.342 7.157-15.466 6.029 8.104-5.061 13.429-5.507 20.682 5.38-4.996 9.499-11.296 10.695-20.604 2.817-1.027 0.619 2.808 3.436 1.782-3.82 8.364-7.402 16.971-14.183 22.282 0.507-5.031-1.149-2.662-3.433-1.782-1.1-4.04 2.9-2.85 1.82-6.89z" fill="#fff"/>
	<path d="m240.7 204.06c3.085 6.71-6.168 8.271-6.276 14.614-4.052-0.956-3.376 2.963-7.812 1.612 5.65-4.42 11.05-9.11 14.09-16.22z" fill="#fff"/>
	<path d="m123.91 203.16c-1.905 4.478-6.796 5.88-10.511 8.493 2.5-3.85 6.61-6.07 10.51-8.49z" fill="#fff"/>
	<path d="m248.46 205.91c4.458 4.311-4.349 8.562-3.682 14.653-5.639 5.316-9.782 12.174-19.241 13.554 0.018-1.154 0.036-2.308 0.053-3.459 14.83-0.81 17.15-14.53 22.87-24.74z" fill="#fff"/>
	<path d="m205.1 213.04c-2.673 6.615-4.036 14.581-10.642 17.144 4.5-4.72 6.01-12.53 10.64-17.14z" fill="#fff"/>
	<path d="m215.42 216.66c5.45 5.05 7.837-3.579 13.894-3.252-2.823 3.535-5.611 7.103-12.218 6.738 1.12-2.79-2.78-0.71-1.67-3.49z" fill="#fff"/>
	<path d="m210.21 218.31c-2.903 10.476-9.307 17.346-15.935 23.985 1.017-6.522 7.759-8.499 10.588-13.685 1.82-3.36 1.54-8.44 5.34-10.31z" fill="#fff"/>
	<path d="m213.64 220.1c-1.639 8.853-6.989 13.88-12.398 18.848 4.46-5.96 7.77-13.09 12.4-18.85z" fill="#fff"/>
	<path d="m215.27 227.04c-6.858 9.915-11.4 22.22-21.205 29.098 7.47-9.29 12.1-21.5 21.21-29.1z" fill="#fff"/>
	<path d="m201.4 228.56c-1.231 2.245-2.25 4.708-5.269 5.112 1.02-2.46 2.78-4.16 5.27-5.11z" fill="#fff"/>
	<path d="m218.7 228.82c-7.301 17.659-18.818 30.97-35.203 39.27 10.443-9.736 23.721-16.55 28.18-32.454 4.35-0.2 2.67-6.62 7.02-6.82z" fill="#fff"/>
	<path d="m166.75 231.5c3.228 7.925-15.203 5.338-19.188 10.092 0.184-2.452-2.9-1.733-1.652-5.217 9.16 0.66 16.83-0.22 20.84-4.87z" fill="#007E7A"/>
	<path d="m239.41 232.6c-2.026 5.525-4.487 10.603-8.86 13.708 1.87-5.69 5.63-9.43 8.86-13.71z" fill="#fff"/>
	<path d="m132.12 232.71c1.925 0.406 3.062 1.575 3.408 3.513-1.467-0.341-1.643 0.65-1.756 1.703-1.926 0.448-1.207-1.669-2.569-1.769-2.989 1.898-3.75 6.091-7.891 6.802 1.86-4.52 6.76-5.91 8.81-10.24z" fill="#fff"/>
	<path d="m232.41 237.68c-3.492 4.017-5.045 10.028-8.86 13.71 1.61-5.95 3.82-11.29 8.86-13.71z" fill="#fff"/>
	<path d="m182.19 240.38c0.295 1.477-0.7 1.622-1.757 1.704-1.112 2.783 2.789 0.704 1.678 3.486-2.815 1.027-0.619-2.808-3.434-1.782 0.4-1.92 1.57-3.06 3.51-3.41z" fill="#fff"/>
	<path d="m199.46 242.38c-2.842 7.615-9.31 11.488-15.807 15.336 4.56-5.86 9.83-10.97 15.81-15.34z" fill="#fff"/>
	<path d="m275.53 246.99c5.637 0.213 9.455 2.191 12.032 5.374-3.52-2.27-9.4-2.24-12.03-5.37z" fill="#fff"/>
	<path d="m233.09 249.81c-1.71 3.216-2.521 7.358-6.186 8.559 2.45-2.47 1.84-8.08 6.19-8.56z" fill="#fff"/>
	<path d="m259.62 269.24c-0.792-5.253-6.048-9.388-1.493-15.597 3.151 1.485 4.523 4.701 10.327 3.617 0.765 5.472-1.137 8.199-2.766 11.207 3.861 1.992 8.588-1.136 9.45 4.469-6.8-1.19-8.83-3.93-15.52-3.7z" fill="#fff"/>
	<path d="m226.88 260.1c-0.851 3.226-3.726 4.36-3.591 8.599-2.544-0.374-1.928-3.813-3.384-5.243 4.28 4.51 2.62-3.19 6.97-3.36z" fill="#fff"/>
	<path d="m216.32 272.05c-14.466 16.712-32.791 29.452-59.345 33.712-0.018 1.154-0.035 2.306-0.052 3.46 24.913-6.536 45.458-17.572 61.075-33.686-5.466 12.813-20.308 15.965-28.937 25.52-6.06 1.075-10.705 3.609-14.812 6.697-1.44-0.021-2.883-0.043-4.325-0.065-0.141 2.489-4.75 0.375-4.377 3.395-4.827-0.581-7.007 1.562-10.42 2.438 25.691-1.925 45.374-17.657 62.766-31.066-15.646 19.895-41.041 29.738-68.913 37.028-6.202-0.533-10.366 1.031-13.893 3.253-15.991-0.514-6.891-18.292 2.883-18.991-1.055-5.795-9.07-4.837-14.613-6.278 1.145-7.048 9.873 2.652 11.285-2.425 3.549 4.7 10.477 0.973 12.006 7.103 24.622 4.202 43.536-9.277 57.433-21.627 4.633 0.091 6.275-2.901 7.023-6.816 3.48 1.26 2.76-1.82 5.22-1.64z" fill="#fff"/>
	<path d="m301.07 389.27c-1.729-0.026-3.461-0.053-5.19-0.079-5.801-11.703-9.831-25.124-15.886-36.58-2.698 0.788 0.645 7.171-0.97 6.906-4.759-7.033-6.33-17.156-9.123-26.095-1.44-0.021-2.884-0.043-4.324-0.065-4.044-19.942-10.62-37.429-14.709-57.327 7.669 1.085 4.781 12.409 10.146 15.729 5.805 19.654 15.994 35.054 21.667 54.835 7.447 9.539 8.487 25.295 16.791 34 1.3 10.669 7.833 16.266 11.743 24.404 1.43-1.457 4.871-0.838 5.245-3.383 1.973 1.492 4.644 2.312 8.623 1.861-0.38 6.05 5.955 5.585 6.763 10.484-8.263-0.789-13.497-4.52-18.035-8.924-2.289-0.311 0.734 4.857-2.648 3.419-3.62-6.14-8.59-10.97-10.08-19.19z" fill="#fff"/>
	<path d="m174.72 276.61c-0.778 2.126-2.641 3.135-5.242 3.382 0.45-2.46 3.32-2.43 5.24-3.38z" fill="#fff"/>
	<path d="m251.73 333.15c3.832-1.163-0.067 5.176 2.516 5.228 1.062-5.306-0.389-15.523-5.796-17.394-1.642-12.646-8.685-24.479-5.466-39.017 6.346 7.481 5.16 22.271 12.546 28.742-1.112 8.184 2.714 11.572 1.429 19.923 0.733 1.275 0.636 3.36 3.42 2.647-3.226 6.65 1.847 12.995 1.377 23.383-3.745-3.754-3.299-11.574-5.806-16.528-3.175 3.413 1.342 6.613 0.708 10.393-3.07-4.4-5.06-9.86-4.93-17.37z" fill="#fff"/>
	<path d="m181.43 290.56c-3.902-0.801-4.85 1.441-6.96 2.491 4.494 1.974 9.005-3.589 13.906-4.116-4.553 6.14-13.415 7.842-21.783 10.054 0.879-2.903 5.114-2.346 6.985-4.221-2.669-2.978-4.212 2.634-8.663 0.733 0.998-2.486 5.378-1.485 6.12-4.233-9.626-3.909-20.801 4.247-25.912-2.987 14.038 1.233 23.06-2.61 31.98 2.214 0.817-2.781-2.803-1.259-3.421-2.647 1.43-1.33 6.8 0.75 7.74 2.73z" fill="#fff"/>
	<path d="m235.16 284.45c-0.885 4.259-2.962 6.668-0.155 10.382-1.854 0.376-1.629-1.261-1.691-2.621-3.406 1.467-2.847 7.021-7.037 7.682 2.96-5.15 4.91-11.35 8.89-15.44z" fill="#fff"/>
	<path d="m113.98 287.81c-3.271-1.32-0.229 3.863-3.5 2.544 0.326-2.594 1.391-4.426 3.54-5.141-0.854 3.388 2.974 2.229 1.638 6.083-2.62 0.84-1.5-1.95-1.68-3.48z" fill="#fff"/>
	<path d="m226.44 289.51c-2.393 2.221-0.956 8.388-5.322 8.571 0.64-4.02 1.91-7.4 5.32-8.57z" fill="#fff"/>
	<path d="m164.02 297.22c-6.959-1.315-8.851 2.591-15.598 1.495 3.2-1.59 12.67-5.44 15.6-1.5z" fill="#fff"/>
	<path d="m236.68 298.32c-6.283 9.629-14.202 17.573-24.574 22.987 1.821 1.254 5.25 1.469 1.678 3.487 7.833 0.745 13.924-7.897 20.931-10.933-6.354 8.094-16.592 12.183-26.213 16.91-1.397 3.628 4.808-0.116 3.408 3.512-3.397 0.598-6.625 1.369-6.998 5.086 11.422-3.456 19.85-9.998 29.646-15.126-7.544 8.036-17.432 13.659-29.671 16.855 0.278 5.146 3.629 0.474 5.188 0.077 7.064-1.773 18.271-5.934 23.526-10.891 3.105 1.615-1.562 2.362-0.929 4.312-10.616 3.7-18.449 10.27-28.77 14.274 14.918-0.44 27.065-11.341 37.496-19.333-5.438 11.38-19.62 13.744-28.021 22.071-5.027 0.088-9.21 1.049-10.458 5.034 14.072-6.289 29.813-10.854 38.415-22.78 7.73 20.061 13.421 42.098 25.074 58.351-0.03 2.017-0.061 4.037-0.091 6.054-2.683-0.806-0.563-6.272-5.99-4.415 1.462-1.52 1.921-6.874-2.516-5.229-0.447-1.926 1.67-1.209 1.769-2.571-2.399-2.696-5.589 1.216-5.255 4.249-5.121 2.337-9.481 5.455-12.268 10.197-4.434 0.114-6.562 2.607-9.581 4.18 9.804 0.144 17.566-9.416 25.309-14.325-6.034 9.301-16.062 14.486-26.253 19.502 10.671 0.159 20.151-8.513 27.053-15.164-1.038 8.306-12.961 12.991-21.024 16.985 7.173 1.526 13.56-5.344 20.016-7.483-1.963 4.126-6.845 5.246-10.499 7.628 5.538 3.051 10.331-2.219 13.905-4.116-2.345 7.833-9.925 10.269-12.385 17.984-3.561 1.893-9.207 1.639-10.472 5.899-21.048 6.43-54.786 2.743-74.367-2.856-1.111 2.783 2.789 0.703 1.678 3.485 29.582 7.254 66.824 3.727 95.14 2.306-1.169-1.993-6.015-0.415-8.636-0.998 1.648-3.571 5.194-5.188 10.46-5.033 0.115 14.161 4.808 22.188 9.882 33.029 4.065-0.536 3.837 3.095 8.623 1.86-2.678 10.021-17.068 25.762-6.59 35.375 2.02-2.018 0.427-7.76 1.033-11.232 3.8 1.429 0.59 9.656 1.521 13.867 4.957-0.748-1.626-13.391 4.521-12.91 0.214 7.835 2.511 22.451 0.459 26.828-3.733-2.342-2.161-9.833-5.87-12.202-2.521 4.715 1.307 8.108 0.68 12.124-6.377-1.764-0.125-15.784-7.535-16.554-3.32 6.081 2.31 10.814 0.59 18.179-5.867-2.546 0.44-16.904-7.522-17.418-2.944 4.479 3.011 11.587 0.628 15.583-3.385-2.827-4.668-10.778-3.223-15.622-3.436-1.553-5.213 4.744-5.177-0.942-1.395-0.266-1.503 0.794-2.609 0.826-1.956 5.039 1.047 12.607 2.334 17.339-8.509 1.451-3.116-17.234-9.202-20.904-2.411 5.482 2.041 11.645 2.334 17.339-4.724-2.235-5.21-8.583-4.955-15.649-7.384 1.792-1.376 11.679-1.992 17.275-4.362-4.291-4.393-12.785-4.876-20.838-3.258 2.276-2.168 0.603-6.056-0.092-3.441 7.046 1.772 13.043 0.553 20.772-3.992-5.785-4.662-14.797-4.824-24.3-5.429 0.32-7.62-0.436-12.138 1.549 0.182-2.166-1.904-2.129-2.543-3.499-1.913 0.077-0.423 3.663-0.943 5.177-2.826 0.184-1.782-3.387-4.272-3.526-5.921 5.634-0.851 19.209 0.473 25.963-8.568-1.631-2.967-17.008-5.689-24.311-3.502 0.987-4.781 2.479-6.028-1.821-2.982-0.146-2.263 3.524-5.243 3.38 0.018-1.152 0.036-2.307 0.053-3.459-3.749-0.056-7.498-0.113-11.245-0.172-2.132 7.756 5.47 21.716 2.175 27.721-4.114-7.372-3.995-18.851-4.745-29.488-1.153-0.018-2.306-0.035-3.459-0.053-2.635 7.475 2.57 21.101 2.989 31.194-5.304-3.066-5.081-15.172-4.877-20.84-2.148-2.177-1.722-6.854-1.559-11.271-1.008 0.124-1.537-0.213-1.717-0.891-2.982-0.146-2.262 3.524-5.242 3.38 0.017-1.153 0.034-2.306 0.052-3.458-4 2.825-7.919-0.411-11.259 0.694-0.691-3.283 3.918-3.003 5.215-1.651 7.017-4.482 12.221-10.833 18.415-16.162 7.659 0.28 9.96-4.961 16.527-5.807 1.016-0.124 0.754-1.567 0.904-2.581 6.919 0.102 11.729-1.968 13.944-6.711 3.173 0.047 6.345 0.096 9.517 0.143 11.954-8.181 29.247-10.854 47.771-12.256-2.015-4.319-8.635-2.999-12.07-2.779-10.326 0.663-22.296 5.942-32.109 6.438-1.363 0.35-0.782 2.71-3.489 1.676-0.132 1.552 1.032 1.842 0.812 3.474-1.924 0.448-1.206-1.669-2.567-1.769-2.436 0.813 1.222 2.328-0.918 3.446-6.603-4.342-11.018 7.508-16.461 1.484-8.939 2.497-19.461 3.367-27.785 6.501-4.471 0.665-12.304-2.141-13.016 2.398 8.518 3.199 22.158-0.574 27.694-0.446-12.217 7.319-23.477 15.625-36.671 21.939 0.11 2.459-2.951 1.646-1.809 5.168-11.81 1.408-5.68 19.846-3.878 27.626-6.219-0.983-4.617-12.408-4.876-20.839-4.277-0.895-4.364 2.53-5.269 5.111-4.145-1.407-7.659-2.443-10.394 0.709-10.327-3.901-20.741-7.72-27.458-15.124-8.355 0.152-13.007-3.29-20.709-3.775-2.572-4.892-6.249-8.71-6.684-15.675 1.729 0.026 3.459 0.054 5.19 0.078 3.101-12.072 11.58-21.905 16.093-34.365 5.517-15.227 10.363-31.614 14.561-47.369 3.138-11.782 3.149-24.326 10.864-31.848-9.452 42.383-19.5 84.15-38.962 116.22 0.661 0.78 0.901 1.968 0.812 3.474 22.924-24.692 27.556-68.236 39.645-104.09-0.057 3.747-0.113 7.497-0.169 11.244 4.63-6.647-0.147-22.992 3.065-31.103 3.926 6.987 1.425 20.212 5.649 26.907-1.925 0.448-1.206-1.667-2.569-1.77-0.573 9.938-1.264 27.363 5.558 32.964-4.889 19.985 8.851 31.569 16.635 44.378 4.963 1.018 4.16-3.911 9.554-2.452 0.435-4.113-2.462-4.996-5.977-5.28-7.831-7.461-12.95-17.55-18.625-27.104 4.729-11.782-8.913-32-1.104-41.548-0.984-2.449-3.859-11.211 0.196-12.975 2.947 21.291 9.083 39.486 20.842 52.228 3.705-0.186 4.238 2.707 8.623 1.863-13.866-11.833-22.182-29.052-24.3-52.281 4.076-6.343 0.924-20.133 2.175-29.386 4.037 0.061 8.074 0.121 12.11 0.182-0.076 12.939 1.772 19.539 4.772 27.761-3.521 1.143-2.708-1.919-5.165-1.809 0.581 3.414 4.052 4.022 6.842 5.294 1.334 3.425-3.741 0.246-3.5 2.544 1.609 1.563 3.449 2.902 6.881 2.7 1.163 3.833-5.176-0.064-5.229 2.516 1.169 1.991 6.016 0.414 8.637 0.996-2.478 5.2-6.907 2.099-10.379-0.156-0.448-1.925 1.669-1.206 1.769-2.57-1.912-0.701-2.275-2.906-5.152-2.673 2.91 3.33 0.662 6.608 5.06 8.729 0.447 1.925-1.67 1.206-1.77 2.567 1.324 1.559 2.382 3.373 6.017 2.687 0.844 2.923-2.711 1.307-4.352 1.667 0.375 3.612 5.293 2.819 7.719 4.443-0.703 3.144-2.76-0.125-6.067 0.774 6.417 5.525 4.17 14.546 15.335 15.804 0.706 4.431 2.322 7.976 5.033 10.46-0.398 3.059-3.809 1.651-1.808 5.164-2.297-2.473-6.123-0.424-8.676 1.599-0.183 2.167 1.904 2.131 2.542 3.499 4.6-3.751 14.478-2.061 13.158-11.915 1.719 0.018 1.137-2.344 3.487-1.678 0.65-3.471-3.611-2.178-3.382-5.241 2.132-0.732 3.213-2.546 6.946-1.626-5.476-4.431-15.951 4.611-20.708-3.774 6.966 3.315 15.738-0.262 24.235-0.498-2.303-2.029-8.339-0.434-12.099-1.048-0.036-7.357 14.487 0.289 15.663-5.82-11.528-1.437-23.109 5.762-31.103-3.064 11.215 4.332 16.675-0.541 30.277 0.457 0.898-0.831 1.775-1.685 2.634-2.556-7.562 1.079-25.532 1.344-33.711-2.238 14.429-1.935 29.738 3.922 41.574-2.836-15.536 1.848-27.904 0.849-43.212-3.25 10.859-4.595 28.213 7.037 37.235-2.032-6.02 0.657-18.525 2.498-25.061-2.108 5.18-0.225 5.797-5.152 7.917-8.532 0.311-2.29-4.858 0.735-3.421-2.646 6.294-0.25 14.576 1.55 17.341-2.334-3.923-3.126-6.986 2.139-12.125 0.681 1.528-4.868 8.497-4.128 13.919-4.98-4.133-5.771-13.711 3.683-15.52-3.695 4.521-1.489 10.827-1.141 15.61-2.359-4.437-2.498-11.711-0.378-15.584 0.629 2.319-4.638 8.379-5.423 13.947-6.712 1.396-3.628-4.808 0.117-3.408-3.513 2.685-0.453 3.31-3.029 5.255-4.245-1.384-2.742-8.244 4.392-9.504-1.009 6.417 0.169 11.541-0.99 14.771-4.104-2.59-3.175-3.756 2.513-7.798 0.749 9.219-4.264 15.929-11.11 21.913-18.705 13.38-0.85 14.35-14.49 24.5-18.66zm-29.46 60.12c12.005-1.1 21.57-9.392 30.445-10.788-5.754 5.196-14.622 7.185-20.093 12.676 11.008-1.836 17.403-8.421 25.297-13.463 0.015-3.993-0.824-7.156-3.329-8.702-6.18 11.48-21.22 13.84-32.32 20.27zm-1.91 12.08c16.425-3.571 31.751-8.271 39.254-21.037-0.182-0.678-0.709-1.018-1.718-0.893-8.48 11.47-24.43 15.22-37.53 21.93zm-68.13-14.87c-1.153-0.016-2.307-0.033-3.46-0.052 3.126 10.868 4.329 20.322 4.746 29.488 2.456-0.109 1.644 2.952 5.163 1.811-5.518-7.982-0.112-29.524-8.062-39.06-2.66 3 0.83 5.5 1.61 7.81zm107.2 5.94c-9.478 12.194-28.491 14.56-41.874 22.727 14.162-2.683 27.686-10.699 38.283-14.13-9.429 9.023-24.383 12.353-35.768 19.359 17.584-5.011 33.912-11.317 44.483-23.554-0.238-2.875-3.808 2.22-4.312-0.931 4.352-0.578 2.477-5.062-0.788-5.202 0.846-1.768 3.43-1.737 3.526-4.273-1.441-0.022-2.882-0.043-4.325-0.065-7.63 12.928-27.703 13.026-39.268 21.902 15.31-2.7 29.96-10.72 40.05-15.85zm3.3 10.43c-7.429 6.803-15.627 10.69-23.604 16.084-7.92 3.312-22.067 4.701-23.539 11.756 17.893-9.085 40.114-13.708 52.347-28.628-2.455 0.11-1.645-2.949-5.164-1.808-0.36 0.5 0.39 2.2-0.05 2.6zm-41.43-6.68c3.112-2.062 9.832-0.41 10.457-5.034-3.88 1.26-9.35 0.9-10.46 5.03zm-23.47 7.43c2.725-3.05 13.738 2.445 13.895-3.251-1.91 0.05-15.21-0.04-13.9 3.25zm-6.13 5.1c3.179-0.548 15.072 0.318 19.072-2.309-0.46-0.5-20.34-1.88-19.07 2.31zm23.81 27.19c20.245-6.955 41.622-12.741 53.213-28.613-14.73 12.62-35.11 19.44-53.21 28.61zm32.14-8.17c-9.37 6.138-21.757 8.196-29.621 13.396 21.658-5.497 39.863-14.554 53.213-28.614-8 2.87-16.6 10.63-23.59 15.21zm-84.38 29.87c0.113-1.055 0.289-2.046 1.755-1.705-0.69-4.443-7.942-2.522-6.79-8.756-9.28-3.495-8.439-16.813-16.107-21.874-0.66 14.87 7.11 28.87 21.14 32.33zm-48.495 2.73c-0.369 11.723-0.846 23.551 2.989 31.194-0.108 8.346 1.742 14.787 6.645 18.271 0.41-1.63-1.096-5.232 1.797-4.3 4.866 4.37 1.798 16.439 10.118 17.458-1.803-10.751-10.252-15.055-8.205-29.541-5.462 0.834-1.802 6.151-4.483 10.313-0.781-3.786-2.563-6.604-4.181-9.581 0.511-18.048-0.472-33.007 4.153-45.796 0.636-4.027-1.593-11.013 2.766-11.205-1.785 27.367-1.494 49.452 8.443 71.077 0.568 5.13 1.336 10.069 7.642 9.635 0.34-6.456-3.499-10.51-0.643-14.72-11.23-18.944-12.128-46.39-12.729-73.737-3.007 1.582-2.232 1.593-5.191-0.077-1.88 11.54-4.78 22.02-9.135 31.01zm105.78-13.98c7.062-1.21 13.264-3.312 18.271-6.645-6.67 1.63-14.66 1.89-18.27 6.65zm-23.75 25.6c-3.937 0.92-11.836-2.243-13 1.533 8.161 6.457 30.021 3.812 37.171 2.293-3.621-5.012-18.782 1.175-22.438-3.801 3.748 0.058 7.497 0.112 11.245 0.171-3.062-2.995-8.504-3.683-14.654-3.683-0.67 2.36 1.69 1.77 1.68 3.49zm30.3-1.27c-2.883-0.045-5.768-0.088-8.651-0.133-0.6 2.78 9.17 2.93 8.65 0.13zm-76.44 19.61c-4.104-5.109-3.652-14.64-8.362-19.163 1.05 8.07 1.61 16.62 8.36 19.16zm123.86-8.51c2.766 0.215 3.763-1.394 4.378-3.395-1.44-0.021-2.884-0.044-4.326-0.065-0.02 1.15-0.03 2.31-0.05 3.46zm-92.59 0.33c8.131 4.481 23.08 1.017 30.304-1.273 0.64 2.154 4.266 2.242 4.337-0.799-9.77-0.99-22.29 2.78-34.64 2.07zm28.16 26.38c13.418-9.892 27.372-19.227 44.508-25.283-4.173-0.79-6.127 0.711-8.676 1.601 0.176-3.583-6.005-0.994-8.624-1.863-2.078 4.005-9.328 2.684-11.351 6.752-9.938 0.004-10.461 9.714-20.051 10.079-3.047 6.602-16.359 7.049-14.941 15.347 16.094-10.35 31.14-21.787 48.912-30.406 1.628 0.407 5.232-1.099 4.3 1.794-17.7 5.184-30.259 15.668-41.94 27.053 5.3 1.09 6.14-2.45 7.86-5.07zm15.67-6.68c-8.543 3.201-15.717 7.812-20.13 15.271 2.882 0.043 5.767 0.087 8.648 0.13 6.928-8.087 16.015-13.947 26.24-18.638 2.263-6.453 13.421-3.736 14.022-11.902-12.4 2.15-20.36 8.88-28.78 15.14zm9.26 17.44c2.522-0.913 4.447-2.444 6.972-3.356 7.704-14.315 22.104-21.728 33.368-32.375-17.82 7.4-33.31 17.22-40.34 35.73zm-86.31-14.28c0.481 3.228-1.773 9.108 2.465 8.688 0.53-2.381 3.11-2.648 5.242-3.381 0.969-3.212-3.223-1.417-2.529-4.364 1.73 0.027 3.459 0.052 5.19 0.079-2.944-2.927 1.568-5.812 0.183-12.111-3.964-0.57-6.656 0.169-8.677 1.6-0.233-4.889-6.265-4.15-7.667-7.901-1.09 5.48 3.35 12.54 5.81 17.38zm119.6-12.9c-4.704 12.139-16.495 16.968-21.207 29.098 2.496 0.987 4.373 2.575 6.869 3.565 5.896-14.13 15.368-24.572 25.609-34.222-5.59-1.37-5.97 2.62-11.27 1.55zm-169.88 19.06c1.638-0.167 1.894 1.004 3.447 0.917 1.925-5.726 9.322-14.857 5.505-20.681-0.632 9.01-7.567 11.52-8.952 19.76zm169.33 17.27c2.652-0.671 2.112-2.401 5.203-0.785 2.04-1.117 0.486-5.942 3.552-6.004-0.026 1.73-0.052 3.461-0.078 5.19 4.802 0.264 3.298-5.971 3.616-10.329 4.092-6.322 8.304-12.525 8.99-22.359-4.203-0.646-5.761 1.436-8.649-0.13-6.199 8.252-14.035 14.817-17.693 25.689 3.634 0.23 1.979-4.986 5.27-5.113-0.896 2.468-3.274 6.527-1.862 8.625 3.765-1.391 2.45-8.016 7.052-8.547-1.26 5.13-5.87 6.83-5.4 13.75zm-157.02-30.06c1.061 7.969-4.605 13.221-3.735 18.113 5.05-2.22 7.075-16.581 5.491-19.818-0.114 1.06-0.289 2.05-1.756 1.71zm68.99 14.88c1.153 0.018 2.307 0.033 3.46 0.052 0.064-6.962 8.06-5.749 10.538-10.224-6.78 1.22-11.62 4.43-14 10.17zm-65.869 7.66c5.052-0.64 4.501 4.157 8.584 4.456-2.443-5.868-2.538-14.017-6.645-18.271-2.296 2.91-1.914 8.58-1.949 13.81z" fill="#fff"/>
	<path d="m220.93 310.19c1.021-2.46 2.778-4.165 5.269-5.111-1.02 2.46-2.78 4.16-5.27 5.11z" fill="#fff"/>
	<path d="m219.36 299.78c-4.834 5.854-10.785 10.552-18.374 13.564 5.12-5.54 12.52-8.75 18.37-13.56z" fill="#fff"/>
	<path d="m122.34 306.97c2.259 0.647 3.861 1.937 3.381 5.243-3.217-2.552-1.896-2.531-5.189-0.08 1.09-3.02 1.31-2.82 1.81-5.16z" fill="#fff"/>
	<path d="m233.07 308.64c-2.284 7.602-10.469 9.125-15.781 13.604 4.88-4.92 10.39-9.2 15.78-13.6z" fill="#fff"/>
	<path d="m58.752 392.53c5.104-6.454 7.669-15.522 10.747-24.063-3.562 2.186-3.708 7.893-6.225 11.153-1.093-9.664 10.058-22.555 6.539-31.916 0.478-3.809 3.782-6.28 5.347-10.301 2.667-6.854 2.919-16.043 5.53-22.413 0.891-2.173 3.695-7.078 7.025-6.815-5.116 15.017-6.447 34.175-11.14 50.016-0.677 2.29-1.92 5.857-4.403 5.124-0.133 1.55 1.031 1.841 0.813 3.475-3.096 1.298-0.479-2.947-2.557-2.635-3.02 1.644 1.007 3.471 0.787 5.203-1.402 3.771-1.786 3.89-0.118 7.784-7.489 12.94-7.583 28.083-16.172 39.557-3.535 0.211-0.435-1.812-0.812-3.474-9.24 4.828-8.786 19.645-20.237 22.189 0.259 2.023 0.83 3.741 2.53 4.365 8.544-0.562 7.696-10.811 13.199-14.509-0.403 7.618-8.557 13.188-3.773 20.708 6.079-1.348 9.561-5.371 13.971-8.441-3.972 9.673-13.423 13.692-21.063 19.583 0.892 1.977 5.433 0.412 7.773 0.982 14.583-11.031 22.13-29.314 30.982-46.254-3.766 1.39-2.45 8.018-7.051 8.546 6.901-15.144 16.529-27.475 18.034-48.181 7.859-9.762 4.795-30.785 11.021-42.23-0.125-1.016-1.567-0.753-2.582-0.903-2.222 0.931 0.246 6.695-1.849 7.759-6.278-6.435 2.56-18.632 3.001-26.777 2.983-0.053 2.154 3.594 5.137 3.538-0.538 18.788-4.437 35.667-7.705 51.799-6.256 30.892-16.017 58.572-27.259 86.111 3.442-0.552 1.853-6.29 5.294-6.842-1.185 3.977-3.078 11.164-6.212 10.289 2.516 3.924-3.43 5.51-2.752 10.341-3.52 1.143-2.708-1.918-5.164-1.809-2.583 2.61-8.87 1.397-13.867 1.521-10.917-3.33-16.215-12.112-13.409-28.756-1.456-0.861-2.188-2.425-1.651-5.216 3.4 2.053 2.493-0.986 6.068-0.774 8.18-11.78 16.514-23.39 22.199-37.74-2.783-1.111-0.703 2.788-3.486 1.678 2.248-4.712 3.253-10.704 7.13-13.736-0.062 5.21-3.981 6.44-3.644 12.06z" fill="#fff"/>
	<path d="m274.54 312.73c7.55 3.473 19.84 2.345 24.969 8.164-3.682 2.763-10.28 0.419-16.45 0.617-1.333-3.425 3.741-0.245 3.502-2.544-3.6-0.768-5.576-3.111-10.343-2.751 1.11-2.79-2.8-0.71-1.68-3.49z" fill="#fff"/>
	<path d="m177.63 313c1.442 0.021 2.884 0.044 4.327 0.065-1.903 1.847-4.339 3.143-7.839 3.342-1.29-3.67 4.8 0.26 3.51-3.4z" fill="#fff"/>
	<path d="m239.54 338.16c2.505 1.546 3.344 4.709 3.329 8.702-7.894 5.042-14.289 11.627-25.297 13.463 5.471-5.491 14.339-7.479 20.093-12.676-8.875 1.396-18.44 9.688-30.445 10.788 11.1-6.42 26.14-8.78 32.32-20.27z" fill="#007E7A"/>
	<path d="m204.34 377.43c11.564-8.876 31.638-8.975 39.268-21.902 1.443 0.022 2.884 0.043 4.325 0.065-0.097 2.536-2.681 2.506-3.526 4.273 3.265 0.141 5.14 4.624 0.788 5.202 0.505 3.15 4.074-1.944 4.312 0.931-10.571 12.236-26.899 18.543-44.483 23.554 11.385-7.007 26.339-10.336 35.768-19.359-10.598 3.431-24.121 11.447-38.283 14.13 13.383-8.167 32.396-10.532 41.874-22.727-10.1 5.13-24.75 13.15-40.05 15.84z" fill="#007E7A"/>
	<path d="m247.72 369.43c3.52-1.142 2.709 1.918 5.164 1.808-12.232 14.92-34.454 19.543-52.347 28.628 1.472-7.055 15.619-8.444 23.539-11.756 7.978-5.394 16.176-9.281 23.604-16.084 0.45-0.41-0.3-2.11 0.05-2.6z" fill="#007E7A"/>
	<path d="m282.38 366.49c7.61 13.072 13.575 27.737 20.134 41.834-10.18-10.57-13.84-27.47-20.13-41.83z" fill="#fff"/>
	<path d="m196.67 369.52c-0.157 5.696-11.17 0.201-13.895 3.251-1.31-3.29 11.99-3.2 13.89-3.25z" fill="#007E7A"/>
	<path d="m253.68 376.44c-11.591 15.872-32.968 21.658-53.213 28.613 18.09-9.16 38.47-15.98 53.21-28.61z" fill="#007E7A"/>
	<path d="m256.19 381.67c-13.35 14.061-31.555 23.117-53.213 28.614 7.864-5.199 20.251-7.258 29.621-13.396 6.99-4.57 15.59-12.33 23.59-15.21z" fill="#007E7A"/>
	<path d="m285.55 385.58c2.26 0.649 3.86 1.936 3.382 5.243-2.54-0.38-1.93-3.81-3.38-5.24z" fill="#fff"/>
	<path d="m285.42 394.23c4.617 1.771 4.06 8.56 6.736 12.214-3.56-2.8-5.39-7.28-6.74-12.21z" fill="#fff"/>
	<path d="m271.42 404.4c-0.123 6.021-5.216 6.923-3.683 14.652 1.905 1.278 2.454 3.871 5.125 4.405 1.381 9.171 7.146 14.092 10.052 21.781 3.912 2.173 8.091 4.085 8.508 9.646 5.303 1.105 9.584 3.203 14.641 4.548-18.823 1.715-30.861-9.268-38.627-20.485 4.652-8.095-3.271-16.744-4.823-24.301 4.96-1.34 5.77-6.96 8.81-10.26z" fill="#fff"/>
	<path d="m333.2 438.21c-2.788 3.858-12.595 0.487-18.19 1.455-4.504 2.799-13.112 5.646-16.541 6.671 3.294-6.976-4.168-13.641 2.058-21.598-10.289-3.656-12.929-14.731-25.715-15.965 2.829-7.891 9.796 1.49 15.557 1.1 0.793 6.714 10.278 13.766 17.169 8.913 5.73 4.252 8.271-1.03 17.276 1.991-1.25 3.484 1.835 2.766 1.651 5.218-9.55 4.213-21.202 6.258-24.483 16.935 9.22-6.17 17.86-8.71 31.2-4.71zm-29.38-2.17c0.372-6.129-0.161-8.9 1.912-12.085-1.154-0.017-2.307-0.035-3.461-0.052-0.11 4.15-6.5 12.28 1.55 12.13z" fill="#fff"/>
	<path d="m223.77 408.87c-5.007 3.333-11.208 5.435-18.271 6.645 3.61-4.77 11.6-5.03 18.27-6.65z" fill="#007E7A"/>
	<path d="m336.51 448.64c3.63-6.802 4.965-15.969 10.694-20.604-3.3 7.14-4.82 16.11-10.69 20.6z" fill="#fff"/>
	<path d="m201.52 449.2c-0.071 3.041-3.697 2.953-4.337 0.799-7.224 2.29-22.172 5.755-30.304 1.273 12.35 0.71 24.87-3.06 34.64-2.07z" fill="#007E7A"/>
	<path d="m336.46 452.1c-2.702 7.17-5.14 14.615-10.666 18.874 2.56-7.31 6.35-13.37 10.67-18.87z" fill="#fff"/>
	<path d="m346.84 452.26c1.154 0.018 2.307 0.033 3.461 0.051-0.498 3.004-2.989 3.948-5.271 5.114-0.11-2.45 2.95-1.64 1.81-5.16z" fill="#fff"/>
	<path d="m187.18 482.72c11.682-11.385 24.24-21.869 41.94-27.053 0.933-2.893-2.672-1.387-4.3-1.794-17.772 8.619-32.818 20.057-48.912 30.406-1.417-8.298 11.895-8.745 14.941-15.347 9.59-0.365 10.112-10.075 20.051-10.079 2.022-4.068 9.272-2.747 11.351-6.752 2.619 0.869 8.8-1.72 8.624 1.863 2.549-0.89 4.503-2.391 8.676-1.601-17.136 6.057-31.09 15.392-44.508 25.283-1.72 2.62-2.56 6.16-7.86 5.07z" fill="#007E7A"/>
	<path d="m341.57 457.37c-3.427 11.693-10.998 19.119-14.309 30.933-1.154-0.02-2.308-0.035-3.461-0.053 5.68-10.54 10.67-21.8 17.77-30.88z" fill="#fff"/>
	<path d="m304.11 474.11c-1.914 11.239 11.681 14.803 12.585 26.148-8.857-3.056-10.079-13.521-16.148-19.281-1.841 2.677 1.31 7.794 4.193 8.716-0.271 12.198 11.41 12.795 12.624 23.553-4.124 1.386-8.599 0.027-9.504-1.009-3.064-0.229-1.77 4.031-5.242 3.381 0.018-1.152 0.034-2.307 0.053-3.461-2.785-1.109-0.703 2.79-3.487 1.678-1.546-4.541 0.256-11.27-4.954-15.647 1.154 0.018 2.306 0.036 3.46 0.054 0.602 7.655 6.455 10.215 11.035 14.01-3.834-14.182-18.091-25.631-19.214-45.282 6.809-0.926 8.735 2.89 15.545 1.965 1.404 7.729 10.786 7.717 13.631 14.05-6.95-0.94-8.04-7.55-14.58-8.88z" fill="#fff"/>
	<path d="m265.24 470.06c-2.783-1.111-0.703 2.79-3.485 1.678 0.403-1.926 1.573-3.062 3.511-3.407-1.112 2.782 2.789 0.702 1.678 3.485-1.49 0.29-1.63-0.7-1.71-1.76z" fill="#fff"/>
	<path d="m328.87 496.12c-4.165 1.859-2.929 9.279-7.091 11.14 2.215-15.871 11.137-24.831 16.998-36.946-0.078 9.265-11.734 19.676-9.096 29.279-1.17-0.29-0.68-2.18-0.81-3.47z" fill="#fff"/>
	<path d="m328.8 500.44c0.784 3.493-4.196 5.562-0.995 8.637 6.11-12.737 10.979-26.75 18.74-37.787-3.354 13.234-13.242 24.415-13.55 37.866 4.027-7.856 6.325-17.494 11.611-24.053-0.402 4.858-3.24 7.202-3.645 12.06 2.785 1.111 0.705-2.79 3.488-1.678-1.383 3.846-1.183 9.321-5.349 10.302 1.493-1.977 2.313-4.647 1.86-8.624-5.598 4.772-3.772 17.193-10.693 20.604-0.712-4.247 2.92-4.02 1.862-8.624-4.795 0.33-2.048 8.433-7.051 8.545-1.086-4.634 2.946-3.991 1.859-8.624-2.57 0.864-2.556 4.395-4.416 5.989-0.43-4 2.91-11.65 6.28-14.63z" fill="#fff"/>
	<path d="m178.68 472.21c-2.478 4.475-10.474 3.262-10.538 10.224-1.153-0.019-2.307-0.034-3.46-0.052 2.38-5.74 7.22-8.95 14-10.17z" fill="#007E7A"/>
	<path d="m265.18 473.52c-1.847 3.367-4.33 6.081-6.198 9.424-1.33-3.16 3.32-7.68 6.2-9.42z" fill="#fff"/>
	<path d="m94.433 493.44c4.635-1.089 1.774 5.095 2.477 7.824 1.673 5.195 2.861 10.862 3.198 17.354-3.148-6.61-5.618-18.41-5.677-25.17z" fill="#fff"/>
	<path d="m101.93 512.58c0.745-2.159-1.57-7.473 1.834-6.893-0.571 3.966 0.168 6.654 1.6 8.676-2.81 1.02-0.62-2.81-3.43-1.79z" fill="#fff"/>
	<path d="m239.49 455.83c-0.602 8.166-11.76 5.449-14.022 11.902-10.226 4.69-19.312 10.551-26.24 18.638-2.882-0.043-5.767-0.087-8.648-0.13 4.413-7.458 11.587-12.069 20.13-15.271 8.42-6.26 16.38-12.99 28.78-15.14z" fill="#007E7A"/>
	<path d="m108.85 398.48c2.959 1.67 2.184 1.659 5.191 0.077 0.601 27.348 1.499 54.793 12.729 73.737-2.856 4.21 0.983 8.264 0.643 14.72-6.305 0.435-7.074-4.505-7.642-9.635-9.937-21.625-10.228-43.71-8.443-71.077-4.358 0.192-2.129 7.178-2.766 11.205-4.625 12.789-3.642 27.748-4.153 45.796 1.618 2.978 3.4 5.795 4.181 9.581 2.681-4.162-0.979-9.479 4.483-10.313-2.048 14.486 6.401 18.79 8.205 29.541-8.32-1.019-5.252-13.088-10.118-17.458-2.893-0.933-1.387 2.67-1.797 4.3-4.903-3.483-6.753-9.925-6.645-18.271-3.835-7.644-3.358-19.472-2.989-31.194 4.349-8.99 7.249-19.47 9.119-31.01z" fill="#007E7A"/>
</g>
<metadata><rdf:RDF><cc:Work><dc:format>image/svg+xml</dc:format><dc:type rdf:resource="http://purl.org/dc/dcmitype/StillImage"/><cc:license rdf:resource="http://creativecommons.org/licenses/publicdomain/"/><dc:publisher><cc:Agent rdf:about="http://openclipart.org/"><dc:title>Openclipart</dc:title></cc:Agent></dc:publisher><dc:title>Statue of Liberty detail</dc:title><dc:date>2007-01-12T17:11:12</dc:date><dc:description>a section of the Statue of Liberty from a U.S. patent drawing</dc:description><dc:source>http://openclipart.org/detail/2877/statue-of-liberty-detail-by-johnny_automatic</dc:source><dc:creator><cc:Agent><dc:title>johnny_automatic</dc:title></cc:Agent></dc:creator><dc:subject><rdf:Bag><rdf:li>america</rdf:li><rdf:li>clip art</rdf:li><rdf:li>clipart</rdf:li><rdf:li>externalsource</rdf:li><rdf:li>figure</rdf:li><rdf:li>image</rdf:li><rdf:li>lady</rdf:li><rdf:li>liberty</rdf:li><rdf:li>media</rdf:li><rdf:li>png</rdf:li><rdf:li>public domain</rdf:li><rdf:li>statue</rdf:li><rdf:li>svg</rdf:li><rdf:li>uspto</rdf:li></rdf:Bag></dc:subject></cc:Work><cc:License rdf:about="http://creativecommons.org/licenses/publicdomain/"><cc:permits rdf:resource="http://creativecommons.org/ns#Reproduction"/><cc:permits rdf:resource="http://creativecommons.org/ns#Distribution"/><cc:permits rdf:resource="http://creativecommons.org/ns#DerivativeWorks"/></cc:License></rdf:RDF></metadata></svg>
