<?xml version="1.0"?>
<svg xmlns:rdf="http://www.w3.org/1999/02/22-rdf-syntax-ns#" xmlns="http://www.w3.org/2000/svg" xmlns:cc="http://creativecommons.org/ns#" xmlns:dc="http://purl.org/dc/elements/1.1/" xmlns:svg="http://www.w3.org/2000/svg" id="svg2" viewBox="0 0 744.09 1052.4" version="1.1">
  <g id="layer1">
    <path id="path3764" d="m335.2 407.88s9.6372 9.9142 14.142 15.152c3.3604 3.9073 6.7016 7.8582 9.5964 12.122 2.8387 4.181 5.4322 8.5558 7.5762 13.132 1.4463 3.087 2.6729 6.2984 3.5355 9.5964 1.0786 4.1238 1.9586 8.3648 2.0203 12.627 0.0565 3.9046-1.0684 7.7374-1.5152 11.617-0.58086 5.0426-0.84509 10.121-1.5152 15.152-0.54081 4.0605-1.3721 8.0771-2.0203 12.122-0.35039 2.1865-0.17553 4.5149-1.0102 6.566-0.54586 1.3415-1.4964 2.5163-2.5254 3.5355-1.4601 1.4462-3.315 2.4353-5.0508 3.5355-2.2929 1.4534-4.4473 3.3438-7.0711 4.0406-2.9289 0.77782-6.191 0.87818-9.0914 0-0.58098-0.17591-1.5152-1.0102-1.5152-1.0102s-0.99553 4.1941-2.0203 6.0609c-1.6702 3.0425-4.0918 5.6471-6.566 8.0812-2.1368 2.1022-4.6251 3.8231-7.0711 5.5558-3.5824 2.5378-11.112 7.0711-11.112 7.0711s12.458-9.1997 18.056-14.521c1.8798-1.7868 3.7289-3.6568 5.177-5.8084 1.545-2.2955 3.6618-7.4499 3.6618-7.4499s2.4243 0.58013 3.6618 0.63135c2.8708 0.11881 5.8818 0.21256 8.5863-0.75762 4.2747-1.5335 8.1511-4.3714 11.238-7.7024 0.62809-0.67778 1.1072-1.5191 1.389-2.3991 1.8952-5.9192 1.1844-12.374 1.7678-18.562 0.29761-3.1564 0.616-6.3111 0.88388-9.4702 0.42086-4.9632 1.1104-9.9188 1.1364-14.9 0.0167-3.2057 0.0483-6.4636-0.63134-9.5964-1.4883-6.8603-4.2407-13.455-7.4499-19.698-2.2894-4.454-5.3876-8.451-8.3338-12.501-3.1903-4.3853-6.6901-8.5375-10.102-12.753-2.5764-3.1838-7.8287-9.4702-7.8287-9.4702z"/>
    <path id="path3766" d="m314.54 550.93s0.78552-34.811-0.53571-52.143c-0.25595-3.3574-0.62014-6.7313-1.4286-10-0.42491-1.718-1.7857-5-1.7857-5s1.9876 4.0107 2.8571 6.0714c0.79089 1.8742 1.7586 3.7166 2.1429 5.7143 0.52853 2.7479 0.19135 5.5946 0.17857 8.3928-0.0715 15.662-1.4286 46.964-1.4286 46.964z"/>
    <path id="path3768" d="m340.61 523.79s-1.5229-17.634-2.5-26.429c-0.31141-2.8031-0.53693-5.6236-1.0714-8.3929-0.58279-3.0194-2.3214-8.9286-2.3214-8.9286s3.9319 7.7576 4.8214 11.964c2.1932 10.372 1.0714 31.786 1.0714 31.786z"/>
    <path id="path3770" d="m300.25 450.76s-2.7933-10.138-4.2857-15.179c-1.256-4.2424-2.5112-8.4873-3.9286-12.679-2.214-6.547-7.1429-19.464-7.1429-19.464s4.9923 10.426 7.3214 15.714c1.6886 3.8342 3.5188 7.6252 4.8214 11.607 1.4094 4.3085 2.6747 8.7133 3.2143 13.214 0.26922 2.2458 0 6.7857 0 6.7857z"/>
    <path id="path3772" d="m318.28 376.82c-2.4162 0.19044-4.8194 1.1551-6.8185 2.5254-3.9845 2.7311-6.1418 7.4827-9.5964 10.859-2.5206 2.4635-5.2898 4.6668-8.0812 6.8185-3.015 2.324-9.3439 6.566-9.3439 6.566s11.178-7.0825 16.415-11.112c2.7427-2.1103 5.3694-4.3839 7.8287-6.8185 1.4407-1.4263 2.5329-3.1904 4.0406-4.5457 1.0771-0.96819 2.1304-2.1745 3.5355-2.5254 3.1303-0.78168 6.4808 0.42449 9.5964 1.2627 2.1135 0.5686 6.0609 2.5254 6.0609 2.5254s-5.3283-2.6603-8.0812-3.7881c-1.4043-0.5753-2.8299-1.1129-4.2932-1.5152-0.41387-0.1138-0.83478-0.28627-1.2627-0.25254z"/>
    <path id="path3774" d="m336.21 406.62s1.6805-4.8141 2.0203-7.3236c0.35014-2.586 0.47229-5.2622 0-7.8287-0.34237-1.8605-0.91666-3.7669-2.0203-5.3033-1.0816-1.5057-4.2932-3.5355-4.2932-3.5355s5.528 2.986 7.0711 5.5558c1.2326 2.0527 1.28 4.6768 1.2627 7.0711-0.0192 2.6579-0.46618 5.3865-1.5152 7.8287-0.5716 1.3307-2.5254 3.5355-2.5254 3.5355z"/>
    <path id="path3776" d="m345.3 414.7s4.8089-4.7752 6.0609-7.8287c0.80411-1.9611 0.73011-4.194 0.75761-6.3135 0.0351-2.7053 0.0856-5.5104-0.75761-8.0812-0.61192-1.8656-1.9618-3.4037-3.0305-5.0508-1.1186-1.724-2.244-3.4522-3.5355-5.0508-1.0107-1.251-3.283-3.5355-3.283-3.5355s-3.4074-0.62813-5.0508-0.25254c-2.0565 0.47002-5.5558 3.0305-5.5558 3.0305s2.6654-0.94664 4.0406-1.2627c1.6592-0.38129 3.447-1.3286 5.0508-0.75761 3.5368 1.2592 5.3938 5.279 7.5762 8.3338 1.1169 1.5634 2.4109 3.1647 2.7779 5.0508 0.68004 3.495-1.1884 7.0469-1.2627 10.607-0.0229 1.0973 0.47043 2.2073 0.25254 3.283-0.58298 2.8782-4.0406 7.8287-4.0406 7.8287z"/>
    <path id="path3778" stroke="#000" stroke-width=".83917px" d="m284.77 399.63-5.9692-18.622 1.9897-1.4897s0.85363 4.6315 1.2662 6.9521c0.30858 1.7357 0.55936 3.4914 0.90442 5.2141 0.5359 2.6754 1.8088 7.9452 1.8088 7.9452z"/>
    <path id="path3780" d="m322.57 335.41s-6.178 9.4035-10.102 13.385c-3.3686 3.4179-7.687 5.7553-11.364 8.8388-2.6945 2.2595-5.2649 4.6643-7.8287 7.0711-3.5155 3.3002-6.8959 6.7413-10.354 10.102-2.6044 2.5307-4.9649 5.3432-7.8287 7.5762-2.2658 1.7667-4.8824 3.0304-7.3236 4.5457-2.4412 1.5152-4.6895 3.3981-7.3236 4.5457-1.7598 0.7667-5.5558 1.5152-5.5558 1.5152s-2.556-2.8356-3.7881-4.2932c-2.9365-3.474-6.3109-6.6678-8.5863-10.607-0.58649-1.0153-1.0331-2.1332-1.2627-3.283-0.61014-3.0554-0.25254-9.3439-0.25254-9.3439s0.42396 6.6344 1.7678 9.5964c1.0646 2.3466 2.6662 4.6138 4.7982 6.0609 0.72718 0.49356 1.8305 0.21947 2.5254 0.75761 2.9562 2.2895 2.2224 8.5374 5.8084 9.5964 3.1413 0.92777 6.0673-2.5476 8.8388-4.2932 4.0047-2.5222 7.422-5.8747 11.112-8.8388 4.4789-3.5982 9.036-7.1045 13.385-10.859 4.2389-3.66 8.4956-7.3246 12.374-11.364 1.9857-2.0681 3.5699-4.4981 5.5558-6.566 4.8283-5.0276 15.405-14.142 15.405-14.142z"/>
    <path id="path3782" d="m322.32 273.03s3.2233 5.0424 5.5558 6.8185c1.8292 1.3929 4.4303 1.4588 6.3134 2.7779 2.1944 1.5372 4.2076 3.4931 5.5558 5.8084 1.769 3.0379 2.319 6.6588 3.0305 10.102 1.0292 4.9798 1.2509 10.094 1.7678 15.152 0.48958 4.7917 1.2468 9.578 1.2627 14.395 0.0206 6.2497-0.63625 12.5-1.5152 18.688-0.59208 4.168-1.8375 8.2212-2.5254 12.374-0.65176 3.9349-1.1886 7.8942-1.5152 11.869-0.18628 2.2668-0.25254 6.8185-0.25254 6.8185s-0.64159-7.2381-0.50508-10.859c0.15655-4.1526 0.85473-8.2716 1.5152-12.374 0.34112-2.1189 0.90708-4.197 1.2627-6.3134 0.3097-1.8432 0.56907-3.6963 0.75762-5.5558 0.12766-1.259 1.1341-2.8801 0.25254-3.7881-1.5843-1.6318-4.615-0.3109-6.8185 0.25253-1.6413 0.41967-2.9314 1.759-4.5457 2.2728-2.1101 0.67162-4.3518 0.97882-6.566 1.0102-1.3572 0.0192-4.0406-0.50508-4.0406-0.50508s5.7932-0.3005 8.5863-1.0102c1.7574-0.44652 3.3401-1.4191 5.0508-2.0203 1.9093-0.67105 3.8066-1.4699 5.8084-1.7678 0.99915-0.14868 2.3755 0.76905 3.0304 0 1.7138-2.0124-1.1555-5.1876-1.2627-7.8287-0.13013-3.2061 0.73571-6.3878 0.75762-9.5964 0.0265-3.8804-0.36417-7.7563-0.75762-11.617-0.31021-3.0438-0.76318-6.0729-1.2627-9.0914-0.36388-2.1989-0.59039-4.441-1.2627-6.566-0.5569-1.7602-1.0744-3.6464-2.2728-5.0508-2.0915-2.4509-5.5186-3.3503-8.0812-5.3033-2.2296-1.6992-4.8156-3.1863-6.3135-5.5558-0.65492-1.036-1.0102-3.5355-1.0102-3.5355z"/>
    <path id="path3784" d="m312.72 299.8s-11.104 4.388-15.91 7.8287c-2.2264 1.5939-3.9507 3.7968-5.8084 5.8084-4.5779 4.957-9.0001 10.07-13.132 15.405-2.9603 3.8219-5.9642 7.6556-8.3338 11.869-1.4412 2.5628-3.5355 8.0812-3.5355 8.0812l1.7678 11.869-3.5355-10.354-2.7779 4.5457-1.0102 16.415-0.25254-16.415s-2.5048-1.2248-3.7881-1.7678c-1.7421-0.73719-3.5058-2.6098-5.3033-2.0203-2.9509 0.96783-3.6697 5.0472-5.0508 7.8287-1.3146 2.6475-3.0304 8.3338-3.0304 8.3338s0.63553-4.4273 1.2627-6.566c0.51025-1.74 1.1181-3.4779 2.0203-5.0508 1.4326-2.4977 2.4952-6.1816 5.3033-6.8185 3.3042-0.74949 9.0914 4.5457 9.0914 4.5457l3.283-4.0406s1.7312-3.1747 2.5254-4.7982c2.5991-5.3131 3.9238-11.322 7.3236-16.162 4.9274-7.0146 12.484-11.76 18.435-17.93 1.655-1.7158 2.8054-3.9949 4.7982-5.3033 4.6063-3.0243 15.657-5.3033 15.657-5.3033z"/>
    <path id="path3786" d="m320.55 272.78h-10.354s1.5586 1.3447 2.5254 1.5152c2.6176 0.46178 7.8287-1.5152 7.8287-1.5152z"/>
    <path id="path3788" d="m305.4 275.55s-10.311 10.103-14.9 15.657c-3.6894 4.4663-6.894 9.318-10.102 14.142-1.8626 2.8013-3.7677 5.5932-5.3033 8.5863-0.9991 1.9473-2.5254 6.0609-2.5254 6.0609l2.0203 2.5254 4.2932-1.7678-4.0406-0.25254s-1.7678 0.50508-1.5152-0.75761c0.25254-1.2627 5.8829-9.5474 9.0914-14.142 2.2362-3.2025 4.2902-6.6011 7.0711-9.3439 2.5293-2.4946 7.1054-3.0843 8.5863-6.3134 0.45754-0.99765-0.53558-2.2226-0.25254-3.283 1.156-4.3313-4.4685 4.4913 7.5762-11.112z"/>
    <path id="path3790" d="m272.57 315.71s-4.1806 1.5932-6.0609 2.7779c-2.7812 1.7524-4.7044 4.7137-7.5761 6.3134-2.093 1.1659-6.8185 2.2728-6.8185 2.2728l0.75761 1.0102h1.2627l5.5558-1.2627 4.7982 0.75761s-3.491-0.40639-3.7881-1.7678c-0.47106-2.1588 2.6424-3.5819 4.2931-5.0508 2.2675-2.0176 7.5762-5.0508 7.5762-5.0508z"/>
    <path id="path3792" d="m267.02 331.11-5.5558 10.102-6.3134-5.8084s3.7637 3.1628 5.5558 2.2728c1.1704-0.58126 0.19409-2.7674 1.0102-3.7881 1.2462-1.5587 5.3033-2.7779 5.3033-2.7779z"/>
    <path id="path3794" d="m284.95 328.34s5.9235 4.5951 7.5761 7.8287c1.7509 3.426 2.0203 11.364 2.0203 11.364s-2.721-7.55-4.5457-11.112c-1.4484-2.8272-5.0508-8.0812-5.0508-8.0812z"/>
    <path id="path3796" d="m275.85 339.45 2.0203 21.213s-1.681-5.3254-2.0203-8.0812c-0.53484-4.3445 0-13.132 0-13.132z"/>
    <path id="path3798" d="m280.65 372.78-4.7982-0.50508-8.3338-9.3439 7.0711 11.869z"/>
    <path id="path3800" d="m321.31 277.07-8.8388 11.617-7.3236-7.0711s4.2344 4.0751 6.8185 3.7881c4.148-0.46068 9.3439-8.3338 9.3439-8.3338z"/>
    <path id="path3802" d="m320.05 426.57 1.7678 8.8388-14.395-8.0812 12.879 6.0609z"/>
    <path id="path3804" d="m309.95 438.44s-5.9571-6.9642-8.3338-10.859c-1.7456-2.8608-4.2931-9.0914-4.2931-9.0914s2.1922 8.2241 4.2931 11.869c1.3725 2.3812 3.2014 4.5426 5.3033 6.3135 0.89437 0.75348 3.0304 1.7678 3.0304 1.7678z"/>
    <path id="path3806" d="m334.7 497.03-9.0914 9.0914-10.354 5.8084 0.75762-4.0406 9.3439-2.7779z"/>
    <path id="path3808" d="m370.05 466.73s-3.4076 4.2073-5.5558 5.8084c-3.1092 2.3173-6.887 3.5665-10.354 5.3033-4.1065 2.0572-7.7955 5.7008-12.374 6.0609-1.1414 0.0898-3.283-1.0102-3.283-1.0102s18.146-5.7194 26.011-10.859c2.1432-1.4005 5.5558-5.3033 5.5558-5.3033z"/>
    <path id="path3810" d="m347.83 424.05s-7.6577 4.5877-11.364 7.0711c-2.1544 1.4434-6.3135 4.5457-6.3135 4.5457s4.5054-5.1809 7.3236-7.0711c3.1305-2.0995 10.354-4.5457 10.354-4.5457z"/>
    <path id="path3812" d="m317.02 551.07s0.58024 11.306 1.2627 16.92c0.73141 6.0172 1.9212 11.971 3.0305 17.93 0.92752 4.9827 1.8853 9.9626 3.0305 14.9 0.90421 3.8984 1.7677 7.8194 3.0304 11.617 0.77441 2.3288 1.5778 4.6778 2.7779 6.8185 0.97151 1.733 2.0576 3.4705 3.5355 4.7982 1.7399 1.5631 3.8157 2.8801 6.0609 3.5355 2.0218 0.5902 4.2282 0.54828 6.3135 0.25253 2.372-0.33642 6.8185-2.2728 6.8185-2.2728s-4.3432 1.0995-6.566 1.2627c-1.9328 0.14186-3.9426 0.27148-5.8084-0.25254-2.6842-0.7539-5.4152-2.008-7.3236-4.0406-2.294-2.4432-3.1658-5.9353-4.2932-9.0914-1.8681-5.2297-2.8223-10.744-4.0406-16.162-1.13-5.0253-2.1608-10.075-3.0304-15.152-1.005-5.8669-1.6062-11.797-2.5254-17.678-0.69886-4.4711-2.2728-13.385-2.2728-13.385z"/>
    <path id="path3814" d="m363.74 519.25-2.0203 51.518s-2.3907 0.90257-3.283 1.7678c-1.3268 1.2865-1.8909 3.1769-2.7779 4.7982-1.4095 2.5763-3.062 5.0599-4.0406 7.8287-0.97382 2.7551-1.2272 5.7146-1.7678 8.5863-0.64775 3.4409-1.7678 10.354-1.7678 10.354s0.90317-11.518 2.0203-17.173c0.42359-2.144 0.91563-4.301 1.7678-6.3135 0.91198-2.1538 2.1543-4.1734 3.5355-6.0609 1.4079-1.9238 4.7982-5.3033 4.7982-5.3033z"/>
    <path id="path3816" d="m485.71 536.17s-15.226 4.5906-22.981 6.3134c-3.418 0.75932-7.0524 0.60229-10.354 1.7678-3.0917 1.0914-5.734 3.1813-8.5863 4.7982-3.379 1.9155-6.8858 3.6299-10.102 5.8084-7.6408 5.1763-14.863 10.993-21.718 17.173-6.8975 6.218-12.751 13.514-19.445 19.951-8.2493 7.932-16.895 15.444-25.506 22.981-3.3255 2.9104-10.102 8.5863-10.102 8.5863s22.637-20.62 33.588-31.315c7.4953-7.3202 14.084-15.579 21.971-22.476 7.7439-6.7713 16.263-12.621 24.749-18.435 2.8708-1.9669 5.8058-3.8497 8.8388-5.5558 2.1327-1.1997 4.2214-2.5824 6.566-3.283 2.7612-0.82511 5.7564-0.46574 8.5863-1.0102 4.4516-0.85636 8.6971-2.5965 13.132-3.5355 3.7505-0.79412 11.364-1.7678 11.364-1.7678z"/>
    <path id="path3818" d="m433.69 524.56-1.2627 4.7982 1.5152-1.7678z"/>
    <path id="path3820" d="m430.66 530.62-5.0508 5.3033-6.8185 3.7881s-21.976 11.935-33.082 17.678c-3.1768 1.6426-6.4985 3.0113-9.5964 4.7982-3.8426 2.2165-11.112 7.3236-11.112 7.3236l-2.5254 2.0203s12.238-7.1638 18.435-10.607c10.436-5.7975 31.567-16.92 31.567-16.92l14.9-8.3338z"/>
    <path id="path3822" d="m503.11 535.58-18.571-23.214s-6.9054-0.0663-10.357 0c-3.097 0.0595-6.2083 0.7092-9.2857 0.35714-1.3486-0.15427-2.6237-0.6978-3.9286-1.0714-1.1949-0.34211-2.5724-0.33205-3.5714-1.0714-1.0351-0.76604-2.1429-3.2143-2.1429-3.2143v-2.1429s1.6692 3.6623 3.2143 4.8214c1.7468 1.3106 4.086 1.671 6.25 1.9643 6.7284 0.91196 20.357-0.71429 20.357-0.71429l1.4286 1.6072 16.964 21.607z"/>
    <path id="path3824" d="m501.86 536.47s-2.1987 1.2328-3.3929 1.6072c-1.0365 0.3249-2.1299 0.59872-3.2143 0.53571-2.7834-0.16174-5.6701-0.8459-8.0357-2.3214-2.9319-1.8287-4.2218-5.5764-6.9643-7.6786-2.0706-1.5872-4.4597-2.8413-6.9643-3.5714-1.8367-0.53543-3.8016-0.49573-5.7143-0.53571-3.4562-0.0722-6.9002 0.54648-10.357 0.53571-4.114-0.0128-8.2294-0.28965-12.321-0.71428-3.5921-0.37275-7.1569-0.98499-10.714-1.6072-0.59795-0.10458-1.7857-0.35714-1.7857-0.35714l1.6071-5 1.0714-0.71428s-1.8405 3.03-1.0714 4.2857c1.2443 2.0317 4.6326 1.1178 6.9643 1.6071 2.1936 0.46043 4.3795 1.0016 6.6072 1.25 3.374 0.37616 6.784 0.40876 10.179 0.35715 3.6383-0.0553 7.2568-0.85329 10.893-0.71429 2.103 0.0804 4.2554 0.22188 6.25 0.89286 1.7426 0.58618 3.3536 1.5714 4.8214 2.6786 2.285 1.7235 4.121 3.9768 6.0714 6.0714 0.80514 0.86471 1.3293 2.0369 2.3214 2.6786 2.0873 1.3499 4.659 2.0453 7.1429 2.1429 2.2515 0.0884 6.6071-1.4286 6.6071-1.4286z"/>
    <path id="path3826" d="m456.5 504.33 9.1071-12.679-0.53571-1.7857-2.3214-1.9643 1.6071 2.5 0.53572 0.89285-6.6072 8.9286z"/>
    <path id="path3828" d="m456.68 493.79c1.2267-1.2757 3.9286-3.5714 3.9286-3.5714s-3.287 4.5451-5.1786 6.6072c-0.82562 0.9-1.6287 1.8759-2.6786 2.5-1.2944 0.76948-2.8089 1.1345-4.2857 1.4286-1.6388 0.32627-3.3365 0.19996-5 0.35714-1.0144 0.0958-2.1859-0.20496-3.0357 0.35714-0.80052 0.5295-1.1822 1.5724-1.4286 2.5-0.21389 0.80542-0.48726 1.824 0 2.5 1.2107 1.6797 4.0166 1.0886 5.8929 1.9643 2.47 1.1529 4.5117 3.0963 6.9643 4.2857 1.7113 0.82995 3.7001 1.0307 5.3571 1.9643 0.99618 0.56127 2.6786 2.1429 2.6786 2.1429s-2.6486-0.87799-3.9286-1.4286c-2.3231-0.99924-4.5119-2.286-6.7857-3.3929-2.2504-1.0954-4.5127-2.1666-6.7857-3.2143-1.718-0.79185-5.1786-2.3214-5.1786-2.3214s0.57577-2.8449 1.25-4.1071c0.39858-0.74621 0.85089-1.5851 1.6072-1.9643 2.3968-1.2017 5.4077 0.17437 8.0357-0.35715 1.6798-0.33975 3.4201-0.79911 4.8214-1.7857 1.5891-1.1188 2.403-3.0634 3.75-4.4643z"/>
    <path id="path3830" d="m457.58 518.08-8.3929 0.89285-10.536-1.25-3.2143-0.71428 6.7857 0.53571 8.0357 0.71429z"/>
    <path id="path3832" d="m313.11 531.65s-11.045 2.9598-16.071 1.0714c-0.6304-0.23686-0.80909-1.1645-1.4286-1.4286-10.625-4.5298-23.125-1.5749-34.643-0.71428-4.2157 0.315-12.5 2.1428-12.5 2.1428s5.9005-3.9245 9.2857-4.6428c7.6939-1.6328 15.707 0.98216 23.571 1.0714 5.2391 0.0595 10.581-1.4081 15.714-0.35715 1.4092 0.28853 2.5375 1.4196 3.9286 1.7857 3.9296 1.0341 12.143 1.0714 12.143 1.0714z"/>
    <path id="path3834" d="m315.25 554.51s-2.8534 30.863-5.7143 46.071c-1.5213 8.0871-4.5302 15.845-6.0714 23.929-1.3939 7.3104-1.7095 14.79-2.8571 22.143-1.1198 7.175-2.5944 14.29-3.9286 21.429-0.93512 5.0033-1.5021 10.094-2.8571 15-1.3837 5.0098-3.2362 9.8979-5.3572 14.643-0.82586 1.8476-1.9283 3.5591-2.8571 5.3572-1.5882 3.0746-3.7639 5.9386-4.6429 9.2857-1.211 4.6115-0.32281 9.534-0.71428 14.286-0.85599 10.39-2.9752 20.663-3.5714 31.071-0.2519 4.3976 0.40762 8.8284 0 13.214-0.35868 3.8593-1.4671 7.612-2.1429 11.429-0.50502 2.8522-1.4286 8.5714-1.4286 8.5714s1.2368 5.7692 2.1429 8.5714c0.59173 1.83 2.1429 3.9286 2.1429 5.3571 0 1.4286-3.5133 5.8734-2.8572 8.9286 0.33631 1.5659 2.5025 2.1367 3.2143 3.5714 1.131 2.2798 1.4286 7.5 1.4286 7.5s-1.7094-3.9204-2.8571-5.7143c-1.2325-1.9263-3.7981-3.1229-4.2857-5.3572-0.73265-3.3569 2.5-10 2.5-10l-5.3571-12.857s4.2558-14.389 5.3571-21.786c0.96568-6.4859 0.4212-13.118 1.0714-19.643 0.73956-7.4216 4.0442-14.731 3.2143-22.143-0.36903-3.2957-3.237-5.9863-3.5714-9.2857-0.29209-2.8818 0.15106-5.9718 1.4286-8.5714 2.0062-4.0825 6.9783-6.0799 9.2857-10 3.1127-5.2884 4.1784-11.559 5.7143-17.5 3.3074-12.794 5.3996-25.882 7.5-38.929 1.0303-6.4 1.3503-12.906 2.5-19.286 1.7772-9.8617 4.8159-19.461 6.7857-29.286 2.6585-13.26 6.7857-40 6.7857-40z"/>
    <path id="path3836" d="m245.25 537.72s-0.70165 6.6582-0.71429 10c-0.0212 5.6066 0.18534 11.25 1.0714 16.786 0.52479 3.2788 1.6389 6.4359 2.5 9.6429 0.57671 2.1479 0.57903 4.5604 1.7857 6.4286 1.5134 2.3431 6.4286 5.3571 6.4286 5.3571l-3.2143-3.9286s2.0723-4.7155 3.5714-6.7857c3.0121-4.1596 10.714-11.071 10.714-11.071s-7.3123 5.0291-10.357 8.2143c-1.8265 1.9107-4.6428 6.4286-4.6428 6.4286s-2.209-1.6765-2.8572-2.8571c-2.1126-3.8485-2.2555-8.5083-2.8571-12.857-1.1602-8.3859-1.4286-25.357-1.4286-25.357z"/>
    <path id="path3838" d="m255.61 589.86s-1.4078 34.3-2.5 51.429c-0.28877 4.5287 0.48254 9.3079-1.0714 13.571-0.35069 0.96217-1.4906 1.5194-1.7857 2.5-0.96105 3.194 0.70552 6.6828 0.35714 10-0.46141 4.3934-2.1164 8.5781-3.2143 12.857-0.58127 2.2655-1.0708 4.5588-1.7857 6.7857-0.81777 2.5472-2.238 4.8974-2.8571 7.5-0.80319 3.3766-1.0714 10.357-1.0714 10.357s2.1118-11.569 3.9286-17.143c1.1239-3.448 3.128-6.5632 4.2857-10 0.3134-0.93032-1.7857-2.8571 0.71428-2.8571s17.857 9.6429 17.857 9.6429l-15.357-11.071h-2.1429s1.752-7.3334 1.7857-11.071c0.0152-1.6835-1.0136-3.3432-0.71429-5 0.26518-1.4679 1.7364-2.4934 2.1429-3.9286 0.61717-2.1793 0.35714-6.7857 0.35714-6.7857s4.283-1.7842 6.0714-3.2143c4.286-3.4273 10.714-12.5 10.714-12.5s-7.0018 7.1419-11.071 10c-1.6562 1.1632-5.3571 2.8571-5.3571 2.8571s0.74051-13.094 1.0714-19.643c0.2586-5.1181 0.74008-10.233 0.71429-15.357-0.0318-6.3195-1.0714-18.929-1.0714-18.929z"/>
    <path id="path3840" d="m307.04 534.86s-2.9018 2.6876-4.6428 3.5714c-2.6538 1.3472-5.5985 2.3605-8.5714 2.5-3.1485 0.14778-9.2857-1.7857-9.2857-1.7857l-0.71428 3.2143 0.35714 16.429 10.357 7.8572-11.071-5.3572s-0.5952 9.9958-0.71428 15c-0.17559 7.3789 0 22.143 0 22.143s0.77964 17.178 0 25.714c-0.4184 4.5808-2.0078 8.9979-2.5 13.571-0.39509 3.6712 0.0473 7.4012-0.35714 11.071-1.2608 11.441-6.4286 33.929-6.4286 33.929s0.50954-9.306 1.0714-13.929c0.78641-6.4696 2.3184-12.83 3.2143-19.286 0.74096-5.3389 1.0719-10.729 1.7857-16.071 0.51064-3.8218 1.4872-7.5844 1.7857-11.429 0.50692-6.528 6.1722-17.458 0-19.643-3.0321-1.0734-3.7191 5.3063-6.0714 7.5-2.1255 1.9821-7.1429 5-7.1429 5s4.922-4.8567 7.1429-7.5c2.1902-2.6069 6.0714-8.2143 6.0714-8.2143s-0.29762-15.952-0.35715-23.929c-0.0346-4.6427 0-13.929 0-13.929s1.4286-3.9286-0.35714-2.8571c-1.7857 1.0714-11.429 10.714-11.429 10.714l9.2857-11.429s2.6344-1.8144 3.2143-3.2143c1.4578-3.5195 0.056-7.6195 0-11.429-0.0595-4.0489-0.35714-12.143-0.35714-12.143l3.2143-0.71429s-0.47648 3.3334-0.35714 5c0.0571 0.79753 0.51005 2.3439 0.51005 2.3439s5.6361 2.1565 8.5863 2.1466c3.0421-0.0102 6.123-0.90206 8.8388-2.2728 2.0833-1.0515 5.4296-4.4194 5.4296-4.4194z"/>
    <path id="path3842" d="m324.54 606.65s-1.8542 19.291-2.8571 28.929c-0.79334 7.6233-1.4529 15.265-2.5 22.857-0.79143 5.7388-1.8717 11.434-2.8571 17.143-0.57596 3.3367-1.198 6.6653-1.7857 10-0.48238 2.737-0.32625 5.663-1.4286 8.2143-1.4166 3.2785-6.4286 8.5714-6.4286 8.5714s4.5186-6.3518 5.7143-10c2.2764-6.946 1.3162-14.573 2.5-21.786 1.1042-6.728 3.4011-13.24 4.2857-20 0.94337-7.2092 0.38979-14.547 1.0714-21.786 0.48457-5.1459 2.1429-15.357 2.1429-15.357s-6.6258 10.438-10.357 15.357c-1.8884 2.4897-6.0714 7.1429-6.0714 7.1429s7.0058-10.65 10.357-16.071c1.9647-3.178 3.6891-6.503 5.7143-9.6429 0.78764-1.2212 2.5-3.5714 2.5-3.5714z"/>
    <path id="path3844" d="m305.97 708.43s-4.0067 25.721-6.0714 38.571c-1.1674 7.2656-2.2123 14.553-3.5714 21.786-0.74171 3.9469-2.0123 7.7995-2.5 11.786-0.41953 3.4289-0.43735 6.9036-0.35715 10.357 0.10259 4.418 0.48485 8.8342 1.0714 13.214 0.25723 1.9208 1.0519 3.7764 1.0714 5.7143 0.0219 2.1723-0.98238 4.258-1.0714 6.4286-0.0588 1.4323 0.35715 4.2857 0.35715 4.2857s-5.0332 3.0337-7.8572 3.2143c-1.8444 0.11794-3.8809-0.31676-5.3571-1.4286-1.6635-1.2528-3.2143-5.3571-3.2143-5.3571s0.83958 0.34066 1.2156 0.58802c2.1824 1.4354 3.7798 4.6711 5.9272 5.1263 2.7088 0.57418 5.8945-1.3154 7.5-3.5714 1.8752-2.6349 1.5895-6.4506 1.0714-9.6429-0.27303-1.6825-1.1129-3.2847-2.1429-4.6429-2.5514-3.3644-9.6428-8.2143-9.6428-8.2143l11.071 7.5s-0.78124-10.732-1.4286-16.071c-0.56539-4.6633-2.661-9.2598-2.1428-13.929 0.71942-6.4818 5.4034-11.929 7.1428-18.214 2.3986-8.6673 2.7802-17.773 4.4643-26.607 1.3336-6.9955 4.4643-20.893 4.4643-20.893z"/>
    <path id="path3846" d="m277.04 824.86s-8.5078 7.7743-13.214 11.071c-2.1406 1.4996-4.4494 2.7569-6.7857 3.9286-2.4313 1.2193-4.7933 2.9463-7.5 3.2143-2.3002 0.22777-4.569-0.7735-6.7857-1.4286-1.5902-0.46991-4.6429-1.7857-4.6429-1.7857s-0.84791-7.8473-1.0714-11.786c-0.29687-5.231-0.35714-15.714-0.35714-15.714s1.0421 12.201 2.1429 18.214c0.4419 2.4141 1.7857 7.1429 1.7857 7.1429s6.351 2.2158 9.6429 2.1428c3.2047-0.071 6.3878-1.13 9.2857-2.5 6.4808-3.0639 17.5-12.5 17.5-12.5z"/>
    <path id="path3848" d="m272.04 818.43s-10.956 11.233-17.857 14.643c-1.8639 0.92105-6.0714-0.35714-6.0714-0.35714s-3.48 0.3369-5-0.35715c-1.072-0.48952-2.5-2.5-2.5-2.5s5.6731 2.9663 8.2143 1.7857c2.0767-0.96483 2.6306-3.8571 3.2143-6.0714 1.0625-4.0307 0.35715-12.5 0.35715-12.5l1.0714 16.071s4.5222-2.6218 6.7857-3.9286c3.9259-2.2666 11.786-6.7857 11.786-6.7857z"/>
    <path id="path3850" d="m265.25 696.29s-6.3061 11.589-8.2143 17.857c-1.0887 3.5761-1.3942 7.3538-1.7857 11.071-0.7491 7.1124-0.8125 14.281-1.0714 21.429-0.7674 21.182-1.4286 63.571-1.4286 63.571s-1.142-57.571 0.89285-86.25c0.22521-3.1742 0.2364-6.4479 1.25-9.4643 2.2247-6.6206 10.357-18.214 10.357-18.214z"/>
    <path id="path3852" d="m239.54 710.04s-1.0805 15.129-1.7857 22.679c-0.61804 6.6168-1.7483 13.188-2.1429 19.821-0.6361 10.696-0.62969 21.431-0.35714 32.143 0.21996 8.6448 1.6071 25.893 1.6071 25.893s-0.71246-42.884 0.35714-64.286c0.44168-8.8378 2.1632-17.586 2.5-26.429 0.12462-3.272-0.17857-9.8214-0.17857-9.8214z"/>
    <path id="path3856" d="m305.97 698.79c-1.415-5.4655-7.1428-15.357-7.1428-15.357s10.35 14.243 5.7143 18.929c-2.7028 2.7317-7.2651-3.743-11.071-3.2143-1.1124 0.15452-2.8571 1.7857-2.8571 1.7857l15.714 2.8571s0.0616-3.3824-0.35715-5z"/>
    <path id="path3858" d="m262.75 532.72s-0.82027 12.412-1.7857 18.214c-0.26289 1.5799-3.5714 3.2143-3.5714 3.2143s-4.5318 4.8085-6.4286 7.5c-1.1058 1.5691-2.8571 5-2.8571 5s2.1627-6.4036 4.1071-9.1072c1.9429-2.7014 7.3214-6.7857 7.3214-6.7857s1.0394-9.8349 2.1429-14.643c0.26529-1.156 1.0714-3.3929 1.0714-3.3929z"/>
    <path id="path3860" d="m319.54 857.01s-23.337 1.9904-35 1.4286c-3.481-0.16769-6.9528-0.68283-10.357-1.4286-4.0099-0.8784-7.7251-2.9697-11.786-3.5714-1.6487-0.24431-5 0-5 0l-1.4286 3.9286h-13.929l-0.71428-5.3571v-10s-0.4142 7.7455 2.1428 10c3.1368 2.7657 8.3635 1.686 12.5 1.0714 1.9024-0.28266 3.437-2.033 5.3572-2.1429 2.7103-0.155 5.2589 1.3562 7.8571 2.1429 2.5222 0.76365 4.9007 2.0664 7.5 2.5 13.27 2.2136 40.357 0.35714 40.357 0.35714z"/>
    <path id="path3862" d="m319.36 855.76 3.75-2.5s0.79304-2.159 0.53571-3.2143c-0.21152-0.86744-0.88488-1.6179-1.6071-2.1428-1.9338-1.4054-4.5056-1.603-6.7857-2.3214-3.0725-0.96809-6.3432-1.3674-9.2857-2.6786-5.4462-2.4268-10.357-5.9562-15.179-9.4643-3.2108-2.3362-9.1071-7.6786-9.1071-7.6786s5.6641 6.0487 8.9286 8.5714c3.8693 2.9901 8.2113 5.3292 12.5 7.6786 1.9145 1.0488 3.8768 2.02 5.8929 2.8571 2.5036 1.0395 5.1077 1.819 7.6786 2.6786 1.4818 0.49545 4.2844-0.12346 4.4643 1.4286 0.0799 0.68954-1.1138 0.89705-1.7857 1.0714-5.3034 1.3763-10.992 0.1466-16.429-0.53571-4.1127-0.51617-8.1051-1.7423-12.143-2.6786-2.208-0.51201-4.3616-1.2986-6.6071-1.6071-1.7111-0.2351-3.5945 0.5098-5.1786-0.17858-3.011-1.3084-6.9643-6.9643-6.9643-6.9643s3.289 5.5796 5.8929 7.3214c0.8767 0.58645 1.9963 0.7136 3.0357 0.89285 2.1149 0.36473 4.3094 0.0177 6.4286 0.35715 4.99 0.79919 9.6414 3.2048 14.643 3.9286 4.6554 0.6737 9.4033 0.37868 14.107 0.35714 1.7272-0.008 3.463 0.0212 5.1786-0.17857 0.30147-0.0351 0.65813-0.37099 0.89285-0.17857 0.46032 0.37737 0 1.7857 0 1.7857z"/>
    <path id="path3864" d="m339.54 851.47s-11.231 0.83173-15.893 1.4286c-0.96836 0.12398-1.7857 2.3214-1.7857 2.3214l9.2857-1.7857s5.1461 0.4174 7.3214-0.71428c0.48684-0.25328 1.0714-1.25 1.0714-1.25z"/>
    <path id="path3866" d="m341.86 850.4s1.1363-2.0868 1.0714-3.2143c-0.0566-0.98367-0.62895-1.9136-1.25-2.6786-0.75038-0.92421-1.7692-1.6595-2.8571-2.1429-2.2723-1.0096-4.8543-1.1188-7.3214-1.4286-2.0705-0.25994-4.1983 0.0234-6.25-0.35714-4.6087-0.8548-9.0911-2.4242-13.393-4.2857-2.2497-0.97353-4.4541-2.1186-6.4286-3.5714-2.8485-2.0959-5.0598-4.9447-7.6786-7.3214-1.2813-1.1628-3.9286-3.3929-3.9286-3.3929l-2.6786 1.4286-1.9643 0.89286 4.8214-1.0714s5.2865 5.9425 8.3928 8.3929c2.4126 1.9031 5.1112 3.4423 7.8572 4.8214 2.2916 1.1509 4.7029 2.0682 7.1428 2.8571 2.3352 0.75509 4.729 1.3421 7.1429 1.7857 2.4762 0.45503 5.0067 0.54353 7.5 0.89286 1.851 0.25934 3.7801 0.25166 5.5357 0.89286 1.3041 0.47627 2.6638 1.0923 3.5714 2.1428 0.50591 0.58552 0.76221 1.3802 0.89286 2.1429 0.18117 1.0577-0.17857 3.2143-0.17857 3.2143z"/>
    <path id="path3868" d="m303.47 481.65s1.8297-5.6533 1.7857-8.5714c-0.0461-3.0604-1.2035-6.0156-2.1429-8.9286-0.86844-2.6932-1.4583-5.6382-3.2143-7.8572-0.63549-0.80306-2.5-1.7857-2.5-1.7857s-3.3944 2.7032-5.3572 3.5714c-2.6933 1.1914-5.6562 1.7247-8.5714 2.1428-2.9484 0.42295-8.9286 0.35715-8.9286 0.35715s-8.5571 1.136-12.857 1.0714c-5.2712-0.0791-15.714-1.7857-15.714-1.7857l-7.8571-2.1429h-4.6429l3.9286-6.0714s2.5178-12.328 3.2143-18.571c0.77969-6.9895 1.2004-14.04 1.0714-21.071-0.12496-6.8106-1.7857-20.357-1.7857-20.357s-1.1299-3.2926-1.4286-5c-0.90475-5.1717-1.0714-15.714-1.0714-15.714l-0.71429 17.143s-2.6574-4.6631-4.2857-6.7857c-1.2819-1.6711-2.5681-3.424-4.2857-4.6428-3.1743-2.2525-6.8384-4.286-10.714-4.6429-2.9189-0.26875-5.8726 0.82059-8.5714 1.9643-1.3073 0.554-3.5714 2.3214-3.5714 2.3214s7.0738-2.252 10.714-2.1428c3.5068 0.10511 7.2756 0.70841 10.179 2.6786 3.7334 2.5338 5.3196 7.4437 8.0357 10.893 1.6353 2.0767 4.6429 6.4286 4.6429 6.4286s0.73897 11.305 0.71428 16.964c-0.0153 3.5164-0.23397 7.0322-0.53571 10.536-0.38076 4.4208-1.2569 8.7909-1.6071 13.214-0.25392 3.2064-0.35715 9.6429-0.35715 9.6429s-4.4627 0.74572-6.4286 1.7857c-3.584 1.896-7.643 4.1502-9.2857 7.8572-2.6065 5.8819-3.4147 10.388-6.4286 14.643-1.471 2.0768-2.5 6.7857-2.5 6.7857s4.9703-9.6812 7.8572-14.286c2.4039-3.8341 3.1922-9.3923 7.8571-11.071 2.2681-0.81638 6.7857-2.5 6.7857-2.5s0.85055 2.4095 0.53571 3.5714c-2.8786 10.623-20.714 25.714-20.714 25.714s10.578-13.346 18.036-16.786c1.4146-0.65254 4.6428-0.53571 4.6428-0.53571s-4.0429 7.3003-6.4286 10.714c-3.4185 4.892-11.25 13.929-11.25 13.929s10.564-9.0741 14.643-14.643c2.0608-2.8136 4.8214-9.2857 4.8214-9.2857l5.7143 1.9643s0.14843 3.4588 0 5.1786c-0.23898 2.7689-0.55982 5.5744-1.4286 8.2143-0.87372 2.655-3.75 7.5-3.75 7.5s4.1631-4.6693 5.3572-7.5c1.1753-2.7863 1.2381-5.9272 1.6071-8.9286 0.21839-1.7763 0.35714-5.3572 0.35714-5.3572s9.8587 1.35 14.821 1.4286c3.6977 0.0585 7.3746-0.81169 11.071-0.71429 1.0185 0.0268 3.0357 0.35714 3.0357 0.35714s1.3346 2.6625 1.6072 4.1072c0.38628 2.0472 0.12192 4.1702 0 6.25-0.17888 3.0514-0.24212 6.1651-1.0714 9.1071-0.46246 1.6406-2.1429 4.6429-2.1429 4.6429s2.603-1.8715 3.3929-3.2143c1.2151-2.0657 1.4857-4.5866 1.7857-6.9643 0.29803-2.3622 0.2598-4.7761 0-7.1428-0.23953-2.182-0.69413-4.36-1.4286-6.4286-0.1336-0.37629-0.53571-1.0714-0.53571-1.0714s4.6473-0.3063 6.9643-0.53572c1.969-0.19497 4.0092-0.10857 5.8929-0.71428 2.0034-0.64422 5.5357-3.0357 5.5357-3.0357l1.4286-1.25s2.1578 2.2167 2.8572 3.5714c1.3914 2.6954 1.7469 5.8116 2.5 8.75 0.3334 1.3009 0.82898 2.5872 0.89285 3.9286 0.0885 1.8584-0.208 3.7454-0.71428 5.5357-0.35523 1.2562-0.52478 2.381-1.6071 3.5714z"/>
    <path id="path3870" d="m297.58 482.72s-10.729 6.0546-16.607 7.6786c-2.7118 0.74917-5.601 0.54505-8.3928 0.89285-4.5944 0.57236-9.1378 1.56-13.75 1.9643-5.3989 0.47321-10.832 0.42402-16.25 0.53571-7.2011 0.14843-14.408 0.40557-21.607 0.17857-2.5051-0.079-5.1921 0.44171-7.5-0.53571-1.3974-0.59181-3.3928-3.0357-3.3928-3.0357l-0.53572-3.9286s2.0204 4.1523 3.9286 5.1786c4.8331 2.5995 10.941 0.98121 16.429 1.0714 7.3838 0.12139 14.77-0.29555 22.143-0.71428 5.1277-0.29122 10.311-0.2915 15.357-1.25 2.0164-0.38305 3.8562-1.531 5.8929-1.7857 2.6015-0.32532 5.2725 0.79677 7.8571 0.35715 5.8189-0.98974 16.429-6.6072 16.429-6.6072z"/>
    <path id="path3872" d="m196.68 382.01c0 0.71428-0.62116 20.798 0.71428 31.071 0.19727 1.5176 0.78433 2.9611 1.0714 4.4643 0.15792 0.82685 0.35715 2.5 0.35715 2.5s-0.1023-5.1195-0.17858-7.6786c-0.0976-3.2745-0.34439-6.5455-0.35714-9.8214-0.008-2.0842-0.36138-4.237 0.17857-6.25 0.64859-2.4181 2.2346-4.4904 3.5714-6.6071 1.0236-1.6206 1.9478-3.3835 3.3929-4.6429 1.9877-1.7322 4.8037-2.239 6.9643-3.75 0.58737-0.41078 1.6072-1.4286 1.6072-1.4286s-4.1032 0.48924-5.8929 1.4286c-1.9784 1.0384-3.5696 2.7478-5 4.4643-1.8299 2.1958-4.4643 7.3214-4.4643 7.3214z"/>
    <path id="path3874" d="m198.11 425.76s0.33447 15.503 1.0714 23.214c0.31474 3.2932 1.011 6.5396 1.4286 9.8214 0.41565 3.2669 0.42098 6.5931 1.0714 9.8214 0.45381 2.2524 1.1611 4.4544 1.9643 6.6071 1.2105 3.2447 4.2857 9.4643 4.2857 9.4643s-2.8959-7.8957-3.9286-11.964c-0.98231-3.8703-1.6268-7.8262-2.1429-11.786-0.67918-5.2106-0.7068-10.488-1.25-15.714-0.67621-6.5064-2.5-19.464-2.5-19.464z"/>
    <path id="path3876" d="m208.65 346.11s-3.7675 3.3949-5.3571 5.3571c-1.7876 2.2065-3.5297 4.5304-4.6429 7.1429-0.7188 1.6869-0.97662 3.544-1.25 5.3571-0.50708 3.3632-0.59516 6.7795-0.71428 10.179-0.075 2.1415 0 6.4286 0 6.4286s1.1141-9.9108 1.9643-14.821c0.29077-1.6795 0.38314-3.4406 1.0714-5 0.6203-1.4053 1.8862-2.434 2.6786-3.75 1.3044-2.1665 2.102-4.6111 3.3929-6.7857 0.85132-1.4341 2.8571-4.1071 2.8571-4.1071z"/>
    <path id="path3878" d="m311.86 497.01s-11.189 6.9912-17.439 8.8367c-0.82336 0.24312-2.5613 0.27048-2.5613 0.27048s0.19674-2.6339 0-3.9286c-0.42145-2.7734-1.1503-5.5765-2.5-8.0357-0.97539-1.7772-3.9286-4.6429-3.9286-4.6429l-1.6071 0.53571s3.0511 3.1194 4.1071 5c1.3273 2.3636 2.2258 5.0059 2.6786 7.6786 0.29827 1.7606 0.87982 3.8032 0 5.3572-1.026 1.8122-3.4508 2.3761-5.3571 3.2143-1.5344 0.67466-3.287 0.75391-4.8214 1.4286-0.95318 0.41909-2.6786 1.6072-2.6786 1.6072s5.4674-0.81175 8.088-1.6505c2.3392-0.74868 4.8485-0.64613 6.7334-2.9924 2.596-3.2313 6.7093-4.8747 10.179-7.1429 2.9734-1.944 9.1071-5.5357 9.1071-5.5357z"/>
    <path id="path3880" d="m245.97 530.93s1.5989-7.6345 2.5-11.429c0.55377-2.3317 1.5343-4.581 1.7857-6.9643 0.30625-2.903-0.0261-5.8497-0.35715-8.75-0.36405-3.1897-1.7857-9.4643-1.7857-9.4643h3.5714l-1.0714 2.5s1.152 6.8811 1.25 10.357c0.079 2.8022 0.0204 5.6452-0.53571 8.3929-1.0755 5.3138-5.3572 15.357-5.3572 15.357z"/>
    <path id="path3882" d="m246.33 458.26s0.0127-12.403-0.53572-18.571c-0.67689-7.6136-3.3929-22.679-3.3929-22.679s3.2475 13.381 4.2857 20.179c0.76727 5.0236 1.4286 15.179 1.4286 15.179l2.6786 0.53572s9.2995-8.2443 13.214-13.036c1.0342-1.2657 2.6786-4.1071 2.6786-4.1071s-0.87636 3.4817-1.7857 5c-2.6417 4.4106-6.6786 7.8369-10.357 11.429-1.238 1.2088-2.5442 2.3549-3.9286 3.3929-0.96433 0.72299-2.0061 1.3377-3.0357 1.9643-0.40994 0.2495-1.25 0.71429-1.25 0.71429z"/>
    <path id="path3884" d="m258.29 459.51s6.2873-7.3796 8.9286-11.429c1.9934-3.0558 3.4229-6.4446 5.1786-9.6429 1.3466-2.453 3.1118-4.7062 4.1072-7.3214 0.88873-2.3352 1.6071-7.3214 1.6071-7.3214s-0.28418 6.8333-1.4286 10c-0.9264 2.5635-2.8951 4.62-4.2857 6.9643-1.469 2.4764-2.7658 5.0544-4.2857 7.5-1.7429 2.8044-5.5357 8.2143-5.5357 8.2143s4.5783-2.628 6.9643-3.75c2.1506-1.0113 4.4171-1.7558 6.6071-2.6786 2.8739-1.211 5.8262-2.2702 8.5714-3.75 1.2498-0.67372 2.1866-2.0077 3.5714-2.3214 2.225-0.50404 6.7857 0.89286 6.7857 0.89286s-4.5976-0.0644-6.7857 0.53572c-3.6455 0.99988-6.8114 3.2821-10.179 5-3.0597 1.561-5.9492 3.4701-9.1071 4.8214-2.0766 0.8886-6.4286 2.1429-6.4286 2.1429z"/>
    <path id="path3886" d="m280.43 700.93s-4.9662 2.4714-7.3214 3.9286c-2.5421 1.5728-5.7468 2.8865-7.3214 5.1786-2.201 3.2037-7.5 8.9286-7.5 8.9286s3.4723-6.873 6.0714-9.6428c1.8088-1.9275 4.1066-3.3798 6.4286-4.6429 3.0296-1.648 9.6429-3.75 9.6429-3.75z"/>
    <path id="path3888" d="m274.54 711.83s-6.574 3.9468-9.2857 6.6071c-1.4277 1.4006-3.5714 4.8214-3.5714 4.8214l3.2143-6.7857z"/>
    <path id="path3890" d="m259.54 535.04s-8.6214 3.4957-11.071 6.25c-0.42793 0.48106-1.6071 1.0714-1.6071 1.0714s1.4487-2.2526 2.5-3.0357c2.9524-2.1991 10.179-4.2857 10.179-4.2857z"/>
    <path id="path3892" d="m326.87 437.94s-0.73997 2.7111-1.7678 3.5355c-0.81221 0.65153-2.042 0.43018-3.0305 0.75761-1.0388 0.34412-1.9893 0.9258-3.0304 1.2627-1.3987 0.45259-2.9858 0.33786-4.2932 1.0102-0.79579 0.40921-2.0203 1.7678-2.0203 1.7678s0.98426-2.0582 1.894-2.6516c1.7285-1.1274 4.0806-0.68188 6.0609-1.2627 1.4702-0.4312 3.0911-0.69154 4.2932-1.6415 0.87929-0.69489 1.894-2.7779 1.894-2.7779z"/>
    <path id="path3894" d="m346.06 440.59s0.58082 1.3303 0.50507 2.0203c-0.0924 0.84198-0.51133 1.7012-1.1364 2.2728-0.93441 0.85447-2.3527 0.93701-3.5355 1.389-1.468 0.56091-2.9702 1.0339-4.4194 1.6415-1.3718 0.57513-2.6652 1.3276-4.0406 1.894-1.1571 0.47656-2.4454 0.6481-3.5355 1.2627-1.277 0.71993-3.4093 2.7779-3.4093 2.7779s4.8275-2.6377 7.3236-3.7881c2.4348-1.1221 4.9793-1.9897 7.4499-3.0305 1.6502-0.69518 3.6255-0.91411 4.9245-2.1466 0.54621-0.51822 1.0102-1.2674 1.0102-2.0203 0-0.84704-1.1364-2.2728-1.1364-2.2728z"/>
    <path id="path3896" d="m350.35 449.05s0.86408 0.65111 1.0102 1.1364c0.17156 0.56998-0.0511 1.2076-0.25254 1.7678-0.30047 0.8355-0.73023 1.6775-1.389 2.2728-0.86594 0.7826-2.0902 1.041-3.1567 1.5152-1.6212 0.72091-3.25 1.4336-4.9245 2.0203-1.6969 0.59459-3.437 1.0622-5.177 1.5152-1.4624 0.38077-3.0586 0.35323-4.4194 1.0102-0.72812 0.35148-1.3586 0.90944-1.894 1.5152-0.42549 0.48138-1.0102 1.6415-1.0102 1.6415s0.81012-2.5598 1.7678-3.4093c0.80708-0.71591 1.9975-0.82504 3.0305-1.1364 2.1506-0.64829 4.4073-0.89444 6.566-1.5152 2.2259-0.64011 4.4788-1.269 6.566-2.2728 0.85239-0.40995 1.7433-0.83366 2.3991-1.5152 0.6407-0.66587 1.2538-1.485 1.389-2.3991 0.10756-0.72716-0.50508-2.1466-0.50508-2.1466z"/>
    <path id="path3898" d="m351.11 459.28s0.35977 1.6849 0 2.3991c-0.63623 1.263-2.1806 1.8251-3.4093 2.5254-1.5077 0.85933-3.1247 1.5611-4.7982 2.0203-1.1882 0.32603-2.4746 0.17525-3.6618 0.50507-1.2354 0.34321-2.337 1.0596-3.5355 1.5152-1.4929 0.56761-3.0876 0.8633-4.5457 1.5152-1.2391 0.55403-3.5355 2.0203-3.5355 2.0203s2.4902-2.1222 3.9143-2.9042c2.3706-1.3018 4.9468-2.2708 7.5762-2.9042 1.1523-0.27759 2.4003-0.0381 3.5355-0.37881 2.8127-0.84425 5.9761-1.762 7.8287-4.0406 0.49603-0.6101 0.63135-2.2728 0.63135-2.2728z"/>
    <path id="path3900" d="m346.69 469.88s-0.13977 2.0434-0.75761 2.7779c-0.95754 1.1383-2.6685 1.3196-4.0406 1.894-2.2357 0.93607-4.5059 1.8001-6.8185 2.5254-2.406 0.75453-4.9801 0.96353-7.3236 1.894-0.89291 0.35453-1.6186 1.0715-2.5254 1.389-1.169 0.40931-2.4281 0.5212-3.6618 0.63135-5.7017 0.50905-17.173 0.12627-17.173 0.12627s1.4851-0.62655 2.2728-0.75762c5.19-0.86355 10.568 0.56408 15.784-0.12627 0.99181-0.13127 1.9802-0.37405 2.9042-0.75761 0.76671-0.31826 1.3818-0.93975 2.1466-1.2627 2.9348-1.2393 6.1932-1.5246 9.2176-2.5254 2.5304-0.8373 4.9971-1.8612 7.4499-2.9042 0.55458-0.23582 1.2244-0.32268 1.6415-0.75762 0.53561-0.55848 0.88388-2.1466 0.88388-2.1466z"/>
    <path id="path3902" d="m310.83 440.21s-3.5502 1.584-4.9245 2.9042c-2.2395 2.1514-3.6257 5.0694-5.0508 7.8287-0.62406 1.2083-1.5152 3.7881-1.5152 3.7881s0.53621-2.5702 1.0102-3.7881c0.75788-1.9474 1.8283-3.7644 2.9042-5.5558 0.4989-0.83067 0.99452-1.6778 1.6415-2.3991 0.5182-0.57775 1.0872-1.1422 1.7678-1.5152 1.2727-0.69763 4.1669-1.2627 4.1669-1.2627z"/>
    <path id="path3904" d="m332.93 407.63s-4.9236 5.4355-7.3236 8.2075c-0.89951 1.0389-1.6477 2.2184-2.6516 3.1567-0.99024 0.92548-2.1256 1.6937-3.283 2.3991-1.0448 0.63676-2.1185 1.2662-3.283 1.6415-1.2579 0.40542-2.6083 0.42877-3.9144 0.63134-1.9764 0.30655-3.9355 0.82278-5.9346 0.88388-0.97126 0.0297-2.0909 0.27926-2.9042-0.25253-0.8828-0.57724-1.5152-2.7779-1.5152-2.7779s1.1741 1.5252 2.0203 1.894c1.1216 0.48882 2.4393 0.30149 3.6618 0.25254 2.5516-0.10216 5.1235-0.42533 7.5761-1.1364 1.5023-0.43555 2.9514-1.0902 4.2932-1.894 1.0545-0.63177 1.9912-1.4497 2.9042-2.2728 3.692-3.3287 10.354-10.733 10.354-10.733z"/>
    <path id="path3906" d="m315.47 413.22s-6.3577 4.6239-10.066 5.6504c-1.4203 0.39314-3.1249 0.8306-4.4194 0.12627-1.2111-0.65892-2.1466-3.5355-2.1466-3.5355s1.2943 1.8932 2.2728 2.3991c1.0575 0.54673 2.3586 0.68407 3.5355 0.50508 3.9494-0.60064 10.824-5.1453 10.824-5.1453z"/>
    <path id="path3908" d="m311.64 407.93s-5.6636 2.8941-8.6375 3.9999c-1.1488 0.42717-2.3217 0.84015-3.5355 1.0102-0.91702 0.12843-1.9635 0.44057-2.7779 0-1.15-0.62209-2.1466-3.283-2.1466-3.283s1.2626 1.7857 2.0203 2.2728c0.60186 0.38697 2.0203 0.37881 2.0203 0.37881s2.4609-0.51703 3.6618-0.88389c3.1956-0.97622 9.3951-3.4948 9.3951-3.4948z"/>
    <path id="path3910" d="m307.81 401.93s-6.4141 3.7996-9.9805 4.6899c-0.81775 0.20413-1.6825 0.1286-2.5254 0.12627-0.75878-0.002-1.6427 0.29648-2.2728-0.12627-0.81296-0.54543-1.2112-1.674-1.2627-2.6516-0.0399-0.75774 0.36843-1.4952 0.75761-2.1466 0.32092-0.53714 1.2627-1.389 1.2627-1.389s-0.69501 1.6488-0.75761 2.5254c-0.0606 0.84905-0.24797 1.9494 0.3788 2.5254 0.96275 0.88468 2.62 0.43742 3.9144 0.25253 3.681-0.52579 10.486-3.806 10.486-3.806z"/>
    <path id="path3912" d="m311.08 383.77s1.0404 0.98794 1.2627 1.6415c0.17619 0.51802 0.14429 1.1137 0 1.6415-0.28362 1.0375-0.9222 1.9783-1.6415 2.7779-1.368 1.5208-3.235 2.5085-4.9245 3.6618-1.3118 0.8955-4.0406 2.5254-4.0406 2.5254s6.5119-4.6036 8.7126-7.8287c0.40538-0.5941 0.64793-1.3095 0.75761-2.0203 0.12212-0.79144-0.12627-2.3991-0.12627-2.3991z"/>
    <path id="path3914" d="m240.25 367.36-12.679-19.107s-3.2494-5.1757-5-7.6786c-1.8764-2.6827-3.6144-5.5063-5.8929-7.8572-1.061-1.0947-2.0572-2.6804-3.5714-2.8571-1.243-0.14507-2.3874 0.86213-3.3929 1.6071-0.71099 0.5268-1.2095 1.2928-1.7857 1.9643-1.0473 1.2205-2.499 2.234-3.0357 3.75-0.27811 0.78556 0.34138 1.7398 0 2.5-0.29363 0.65386-0.90109 1.3051-1.6071 1.4286-0.63151 0.1104-1.3724-0.22423-1.7857-0.71428-0.54949-0.65146-0.53572-2.5-0.53572-2.5s0.93403 1.1633 1.6072 1.25c0.44961 0.0579 1.0004-0.15727 1.25-0.53572 0.42597-0.64601-0.25614-1.5912 0-2.3214 0.6308-1.7983 2.2111-3.1296 3.5714-4.4643 0.69687-0.68372 1.4497-1.3462 2.3214-1.7857 0.38694-0.19509 0.86941-0.14993 1.25-0.35714 0.55572-0.30256 1.1671-0.6738 1.4286-1.25 0.46733-1.0299 0-3.3929 0-3.3929s0.76524 2.902 1.6072 4.1072c1.1833 1.6939 3.2846 2.55 4.6428 4.1071 2.3983 2.7495 4.0503 6.0696 6.0714 9.1071 5.1854 7.793 15.536 23.393 15.536 23.393z"/>
    <path id="path3916" d="m250.79 348.61-8.2143-10.714-8.3929-11.25s-4.4688-6.3448-7.3214-8.9286c-1.1135-1.0085-2.3401-1.9813-3.75-2.5-1.9124-0.70363-4.05-0.97216-6.0714-0.71428-1.1404 0.14548-2.1013 0.96201-3.2143 1.25-1.2795 0.33109-2.6817 0.0975-3.9286 0.53571-0.98234 0.34525-1.812 1.0298-2.6786 1.6072-1.1691 0.77892-2.4231 1.4836-3.3928 2.5-0.88888 0.93169-1.6871 2.0099-2.1429 3.2143-0.93553 2.4722-1.0714 7.8571-1.0714 7.8571s0.85965-4.4066 1.7857-6.4286c0.35746-0.7805 0.9102-1.4586 1.4286-2.1428 0.99414-1.3123 1.9047-2.7523 3.2143-3.75 0.88962-0.67771 1.9774-1.067 3.0357-1.4286 2.0772-0.70977 4.2466-1.189 6.4286-1.4286 0.82836-0.0909 1.6669-0.0198 2.5 0 1.2511 0.0298 2.5633-0.21865 3.75 0.17857 1.503 0.50308 2.758 1.6101 3.9286 2.6786 3.2479 2.9647 8.3929 10.179 8.3929 10.179l13.393 17.143z"/>
    <path id="path3918" d="m219 338.79-0.17857 3.75-2.8572 1.25-1.7857-2.3214-3.3929-4.4643 2.3214 4.8214 2.3214 2.8571 2.8571-0.71429 2.1429-1.9643z"/>
    <path id="path3920" d="m208.11 339.33 2.1429 5.1786-3.75-5.5357z"/>
    <path id="path3922" d="m252.4 304.51-0.17857 42.5-0.53571-7.8571s0.0806-9.7684-0.17857-14.643c-0.16827-3.1643-1.0098-6.2977-0.89286-9.4643 0.13147-3.5596 1.7857-10.536 1.7857-10.536z"/>
    <path id="path3924" d="m224.18 238.43s0.42592-2.0053 0-2.8571c-0.5324-1.0648-1.7414-1.7278-2.8571-2.1429-1.6217-0.60335-3.4601-0.55915-5.1786-0.35714-2.9729 0.34947-5.8423 1.4488-8.5714 2.6786-2.727 1.2288-5.2692 2.8705-7.6786 4.6429-3.9063 2.8734-7.6946 5.9978-10.893 9.6428-1.753 1.9979-3.161 4.2906-4.4643 6.6072-1.1884 2.1124-2.1944 4.3341-3.0357 6.6071-1.3538 3.6576-2.7838 7.3738-3.2143 11.25-0.23034 2.074 0.11588 4.1773 0.35714 6.25 0.3564 3.062 0.47657 6.2393 1.6072 9.1071 1.0415 2.6418 2.8837 4.9136 4.6428 7.1429 2.0344 2.5781 4.3993 4.8868 6.7857 7.1429 1.872 1.7697 3.982 3.2724 5.8929 5 1.655 1.4963 3.2755 3.034 4.8214 4.6428 0.99324 1.0337 2.8572 3.2143 2.8572 3.2143l1.6071 0.53571 0.53571-0.17857s-4.9619-4.6817-7.3214-7.1429c-3.2089-3.347-6.1674-6.9256-9.2857-10.357-2.0681-2.2758-4.5035-4.2546-6.25-6.7857-1.1339-1.6433-2.1988-3.4192-2.6786-5.3572-0.65816-2.6585-0.11621-5.4762-0.17857-8.2143-0.0569-2.5001-0.32614-5.0036-0.17857-7.5 0.14903-2.521 0.30394-5.0941 1.0714-7.5 0.67153-2.1051 1.6852-4.144 3.0357-5.8929 1.9064-2.4688 5.1256-3.7304 6.9643-6.25 1.1151-1.5281 1.248-3.6209 2.3214-5.1786 1.2897-1.8715 3.0981-3.3396 4.8214-4.8214 2.1303-1.8319 4.3306-3.6339 6.7857-5 1.9607-1.091 4.0913-1.8878 6.25-2.5 1.3369-0.37914 2.7274-0.87921 4.1071-0.71428 1.4823 0.17718 2.8233 1.0238 4.1071 1.7857 1.1673 0.69272 3.2143 2.5 3.2143 2.5z"/>
    <path id="path3926" d="m224.54 240.93s-0.18209 2.7726-0.53571 4.1071c-0.36238 1.3677-0.72104 2.8256-1.6072 3.9286-0.58943 0.73371-1.5988 1.0041-2.3214 1.6072-0.71092 0.59332-1.5541 1.1341-1.9643 1.9643-0.39906 0.80754-0.3645 1.7778-0.35714 2.6786 0.01 1.2038-0.12217 2.5633 0.53571 3.5714 0.73102 1.1202 2.0848 1.8631 3.3929 2.1429 1.2348 0.2641 2.5001-0.71487 3.75-0.53571 0.71195 0.10205 1.6364 0.25272 1.9643 0.89285 0.41512 0.81041-0.32651 1.7924-0.53571 2.6786-0.31186 1.321-0.89126 2.5832-1.0714 3.9286-0.0948 0.70796-0.0374 1.4296 0 2.1428 0.0596 1.1356-0.19535 2.3989 0.35714 3.3929 0.32972 0.5932 0.99425 0.95852 1.6072 1.25 0.71717 0.34107 1.6492 0.11291 2.3214 0.53571 0.32263 0.20292 0.64736 0.51764 0.71428 0.89286 0.19829 1.1118-0.55894 2.2079-1.0714 3.2143-0.69706 1.3689-1.4771 2.7929-2.6786 3.75-0.60524 0.48214-1.3896 0.71593-2.1429 0.89285-0.87114 0.2046-2.6786 0.17858-2.6786 0.17858s2.2749-1.1311 3.2143-1.9643c1.078-0.95609 2.4302-1.9735 2.6786-3.3929 0.12981-0.74165-0.24317-1.5555-0.71429-2.1428-0.65153-0.81221-2.1016-0.74036-2.6786-1.6072-2.0663-3.1044 0.4006-7.9289-1.6071-11.071-0.87998-1.3774-2.9784-1.4964-4.1071-2.6786-0.81075-0.84908-1.316-1.9598-1.7857-3.0357-0.49724-1.1391-0.75038-2.3707-1.0714-3.5714-0.26852-1.0043-0.97868-2.0304-0.71428-3.0357 0.26784-1.0184 1.301-1.6887 2.1429-2.3214 0.85119-0.63974 2.0786-0.70214 2.8571-1.4286 1.9705-1.8386 4.1071-6.9643 4.1071-6.9643z"/>
    <path id="path3928" d="m226.15 316.47s2.0117-3.0648 2.3214-4.8214c0.20775-1.1782 0.21982-2.5233-0.35714-3.5714-0.83835-1.523-2.8056-2.0618-4.1071-3.2143-1.2605-1.1161-3.5714-3.5714-3.5714-3.5714l-1.4286-1.4286s1.748 4.4376 3.3928 6.0714c0.96395 0.95747 2.6824 0.93692 3.5714 1.9643 0.6656 0.76913 0.96798 1.8453 1.0714 2.8571 0.19609 1.9179-0.89286 5.7143-0.89286 5.7143z"/>
    <path id="path3930" d="m230.61 295.58s1.1917 0.79817 1.4286 1.4286c0.31474 0.83766 0.24322 1.8894-0.17857 2.6786-0.46017 0.861-1.3826 1.5178-2.3214 1.7857-1.1505 0.32835-2.4289-0.002-3.5714-0.35714-1.2975-0.40314-2.312-1.4546-3.5714-1.9643-1.2582-0.5092-2.5832-0.89126-3.9286-1.0714-0.76696-0.10271-1.6319 0.35114-2.3214 0-1.4429-0.73477-2.172-2.4614-2.8571-3.9286-0.31153-0.66711-0.50394-1.4073-0.53571-2.1429-0.065-1.5056-0.0101-3.1428 0.71428-4.4643 0.34452-0.62854 0.9887-1.0663 1.6072-1.4286 1.4131-0.82784 3.0052-1.6233 4.6428-1.6071 1.2052 0.0119 2.673 0.28334 3.3929 1.25 0.56995 0.76533 0.17857 2.8571 0.17857 2.8571s-0.74974-1.6174-1.4286-2.1429c-0.57309-0.44365-1.339-0.59355-2.0536-0.71428-0.52823-0.0892-1.08-0.0956-1.6071 0-0.75062 0.13611-1.4705 0.44312-2.1429 0.80357-0.5824 0.31224-1.2367 0.61351-1.6071 1.1607-0.48157 0.71129-0.54848 1.6444-0.625 2.5-0.0797 0.89128-0.20621 1.8707 0.17857 2.6786 0.2445 0.51335 0.83333 0.77381 1.25 1.1607 0.41667 0.3869 0.93052 0.69035 1.25 1.1607 0.32297 0.47549 0.19379 1.2271 0.625 1.6072 0.6444 0.56797 1.6702 0.40281 2.5 0.625 0.83718 0.22418 1.6898 0.40661 2.5 0.71428 0.77157 0.29299 1.491 0.7083 2.2321 1.0714 0.65738 0.32209 1.2757 0.73357 1.9643 0.98214 0.86237 0.31131 1.7795 0.80481 2.6786 0.625 0.89903-0.17981 1.8846-0.75874 2.2321-1.6071 0.4693-1.1455-0.625-3.6607-0.625-3.6607z"/>
    <path id="path3932" d="m227.58 291.83s0.75485 1.3809 0.53571 2.0536c-0.26206 0.80438-1.129 1.473-1.9643 1.6071-0.81857 0.13149-1.7365-0.30526-2.3214-0.89286-0.65122-0.65424-0.67244-1.7197-0.98215-2.5893-0.28419-0.79794-0.44429-1.6436-0.80357-2.4107-0.31178-0.66567-1.1607-1.875-1.1607-1.875s1.7054 1.2561 2.2321 2.1429c0.51992 0.87523 0.2926 2.0659 0.80357 2.9464 0.31689 0.54606 0.71225 1.2657 1.3393 1.3393 0.45119 0.053 0.82784-0.40512 1.1607-0.71428 0.4842-0.44971 1.1607-1.6071 1.1607-1.6071z"/>
    <path id="path3934" d="m217.93 288.34s-1.9373 1.018-2.2321 1.9643c-0.21905 0.70293 0.17295 1.5022 0.53571 2.1429 0.47696 0.84241 1.1657 1.6678 2.0536 2.0536 0.79206 0.34419 1.7921-0.24286 2.5893 0.0893 0.64135 0.26723 0.94279 1.0386 1.5178 1.4286 0.81549 0.55297 1.8198 0.76701 2.6786 1.25 0.56119 0.31561 1.6071 1.0714 1.6071 1.0714s-2.9774-1.3068-4.4643-1.9643c-0.53616-0.2371-1.0537-0.52103-1.6071-0.71429-0.78373-0.27367-1.6768-0.23706-2.4107-0.625-0.83911-0.44354-1.5133-1.1647-2.1429-1.875-0.52563-0.59306-1.1238-1.2017-1.3393-1.9643-0.17016-0.60213-0.29281-1.3795 0.0893-1.875 0.66681-0.86464 3.125-0.98217 3.125-0.98217z"/>
    <path id="path3936" d="m267.75 288.97s0.17788 2.614-0.35715 3.75c-0.5739 1.2185-1.8065 2.0144-2.8571 2.8572-1.8162 1.4569-3.8568 2.6207-5.8929 3.75-1.3271 0.73609-2.7649 1.2562-4.1071 1.9643-1.1558 0.60977-2.1753 1.4896-3.3929 1.9643-1.5339 0.598-3.1888 0.85911-4.8214 1.0714-1.4768 0.19206-2.9949 0.42113-4.4643 0.17857-1.636-0.27006-3.3421-0.75739-4.6429-1.7857-1.075-0.84984-1.6535-2.1963-2.3214-3.3928-0.5715-1.0238-0.90348-2.166-1.4286-3.2143-0.76382-1.5249-2.5-4.4643-2.5-4.4643s2.6959 2.4568 3.75 3.9286c0.89913 1.2554 1.2292 2.8623 2.1429 4.1071 0.99615 1.3573 2.0266 2.9022 3.5714 3.5714 1.694 0.73392 3.704 0.40964 5.5357 0.17857 2.5086-0.31648 4.96-1.122 7.2833-2.1198 2.6864-1.1537 5.0683-2.9166 7.5762-4.4194 1.6533-0.99073 3.5157-1.7151 4.9245-3.0305 0.5293-0.49418 0.96334-1.1084 1.2627-1.7678 0.44273-0.97519 0.73905-3.1268 0.73905-3.1268z"/>
    <path id="path3938" d="m292.04 288.08c0.32985 1.3551-2.6786 3.2143-2.6786 3.2143s-0.39153-2.642-1.0714-3.75c-0.59475-0.96928-1.6272-1.5924-2.5-2.3214-0.91363-0.76322-2.8571-2.1428-2.8571-2.1428s3.7204 2.5371 5.7143 3.5714c1.0893 0.56509 3.1026 0.23627 3.3929 1.4286z"/>
    <path id="path3940" d="m225.61 238.26s2.661 0.16167 3.9286 0.53571c2.0176 0.59535 3.8816 1.6458 5.7143 2.6786 1.3088 0.73755 2.5136 1.6466 3.75 2.5 1.2642 0.87259 2.6263 1.6312 3.75 2.6786 1.2989 1.2108 2.392 2.6403 3.3928 4.1071 0.34541 0.50622 0.89286 1.6071 0.89286 1.6071s-2.5456-2.8123-3.9286-4.1071c-2.0974-1.9638-4.1976-3.9706-6.6071-5.5357-2.5004-1.6241-5.2056-2.9906-8.0357-3.9286-0.91978-0.30484-2.8571-0.53571-2.8571-0.53571z"/>
    <path id="path3942" d="m243.65 252.9 1.7857 1.25s-1.9316 1.5338-2.6786 2.5c-0.99374 1.2853-1.5119 2.8771-2.3214 4.2857-0.7986 1.3896-2.5 4.1071-2.5 4.1071s1.2662-3.351 1.9643-5c0.5608-1.3246 1.1118-2.6577 1.7857-3.9286 0.58827-1.1093 1.9643-3.2143 1.9643-3.2143z"/>
    <path id="path3944" d="m246.33 259.68s-1.2678 1.3707-1.7857 2.1429c-0.63779 0.95087-0.90707 2.1297-1.6071 3.0357-0.59247 0.76675-2.1429 1.9643-2.1429 1.9643s2.2798-1.0351 3.3929-1.6072c0.54506-0.28013 1.2964-0.36467 1.6071-0.89285 0.45279-0.76953-0.11851-1.7936 0-2.6786 0.0901-0.67267 0.53572-1.9643 0.53572-1.9643z"/>
    <path id="path3946" d="m247.93 255.22c3.3929 2.3214 3.8836 2.3439 5.8929 3.3929 0.99139 0.51754 3.0357 1.4286 3.0357 1.4286s-2.4399-1.9892-3.75-2.8571c-0.80013-0.53009-1.6012-1.092-2.5-1.4286-0.85272-0.31929-2.6786-0.53572-2.6786-0.53572z"/>
    <path id="path3948" d="m260.25 263.08s0.40516 1.8829 0 2.6786c-0.36738 0.72146-1.4176 0.83136-1.9643 1.4286-0.46868 0.51205-0.52996 1.3514-1.0714 1.7857-0.58731 0.47112-1.3918 0.76766-2.1428 0.71429-0.66382-0.0472-1.7857-0.89286-1.7857-0.89286l-0.71428-1.25s1.8216 1.3412 2.8571 1.25c0.64137-0.0565 1.19-0.58095 1.6071-1.0714 0.46593-0.54791 0.3727-1.4676 0.89286-1.9643 0.23183-0.22137 0.64766-0.15068 0.89286-0.35714 0.69503-0.58521 1.4286-2.3214 1.4286-2.3214z"/>
    <path id="path3950" d="m261.86 269.68s1.2779 1.5755 1.9643 2.3214c0.45599 0.49557 1.2488 0.77957 1.4286 1.4286 0.26205 0.94607-0.65913 1.877-0.71429 2.8571-0.0506 0.89934 0.0445 1.8338 0.35714 2.6786 0.49282 1.3316 2.1927 2.1574 2.3214 3.5714 0.0702 0.77062-0.8478 1.3704-0.89285 2.1429-0.0757 1.2978 1.0714 3.75 1.0714 3.75s-2.101-2.5635-2.1428-4.1071c-0.0195-0.71896 0.96237-1.2484 0.89285-1.9643-0.14848-1.5289-2.3455-2.2504-2.6786-3.75-0.35441-1.5956 1.1884-3.2139 0.89286-4.8214-0.28983-1.5763-2.5-4.1071-2.5-4.1071z"/>
    <path id="path3952" d="m266.33 253.43s-2.9855-1.2889-4.4643-1.9643c-1.1383-0.5199-2.1598-1.8207-3.3929-1.6071-0.82944 0.14367-1.7857 1.7857-1.7857 1.7857s2.2711 0.17058 3.3929 0.35714c2.1081 0.35058 6.25 1.4286 6.25 1.4286z"/>
    <path id="path3954" d="m255.79 249.51s0.89905 3.9062 0.89286 5.8929c-0.004 1.145-0.53572 3.3928-0.53572 3.3928s-0.12863-2.4996-0.17857-3.75c-0.0737-1.8447-0.17857-5.5357-0.17857-5.5357z"/>
    <path id="path3956" d="m264 254.15s-3.3377-0.31327-5-0.17858c-0.30252 0.0245-0.89286 0.17858-0.89286 0.17858s1.0093 0.90155 1.4286 1.4286c0.34959 0.43945 0.89286 1.4286 0.89286 1.4286l1.4286 0.17857s0.3824-1.1239 0.71429-1.6071c0.38126-0.55512 1.4286-1.4286 1.4286-1.4286z"/>
    <path id="path3958" d="m268.47 288.79s2.0086 0.56606 3.0357 0.53572c1.2844-0.0379 2.599-0.3216 3.75-0.89286 1.932-0.9589 3.44-2.6177 5-4.1071 2.9568-2.8232 5.5361-6.0184 8.2143-9.1072 0.60911-0.70249 1.4238-1.2864 1.7857-2.1428 0.44265-1.0475 0.47124-2.2614 0.35714-3.3929-0.11899-1.18-0.42642-2.3976-1.0714-3.3929-0.38981-0.60149-1.6071-1.4286-1.6071-1.4286s0.74104 1.8952 1.0714 2.8571c0.32411 0.9437 0.83151 1.8612 0.89285 2.8572 0.0409 0.66424-0.0619 1.3678-0.35714 1.9643-1.2148 2.4546-3.7488 3.9959-5.5357 6.0714-1.6012 1.8599-2.8845 4.0021-4.6429 5.7143-1.3989 1.3622-2.9882 2.5348-4.6429 3.5714-0.56396 0.35332-1.138 0.73995-1.7857 0.89285-1.4483 0.34189-4.4643 0-4.4643 0z"/>
    <path id="path3960" d="m288.29 260.22-0.53571 1.25s-0.17361 1.6502 0.35714 2.1429c0.48189 0.44726 1.3242 0.32878 1.9643 0.17857 0.88456-0.20758 1.7569-0.71665 2.3214-1.4286 0.46782-0.58995 0.5504-1.408 0.71429-2.1429 0.22178-0.99445 0.35714-2.0168 0.35714-3.0357s-0.35714-3.0357-0.35714-3.0357 0.74281 2.2331 0.89286 3.3928c0.12984 1.0035 0.20346 2.0445 0 3.0357-0.18229 0.88812-0.49777 1.7979-1.0714 2.5-0.5955 0.7288-1.4367 1.2861-2.3214 1.6071-0.61803 0.22427-1.3461 0.40239-1.9643 0.17857-0.55406-0.2006-1.0962-0.68117-1.25-1.25-0.3052-1.1289 0.89286-3.3929 0.89286-3.3929z"/>
    <path id="path3962" d="m289.72 254.68c0.35058 1.0281-0.53571 3.2143-0.53571 3.2143h-0.89286s0.45445-2.244 0-3.2143c-0.19719-0.42101-0.60844-0.93495-1.0714-0.89286-0.46299 0.0421-0.89285 1.0714-0.89285 1.0714s0.0333-2.2899 0.89285-2.5c1.1047-0.26998 2.133 1.2451 2.5 2.3214z"/>
    <path id="path3964" d="m253.65 249.33s-0.87353-3.8012-1.25-5.7143c-0.4667-2.3716-1.1359-4.7284-1.25-7.1429-0.10712-2.2664-0.14005-4.6197 0.53572-6.7857 0.63551-2.0369 2.0475-3.7492 3.2143-5.5357 1.0482-1.6048 2.1622-3.1733 3.3929-4.6429 1.2163-1.4525 2.6039-2.7527 3.9286-4.1071 0.82402-0.84254 1.6274-1.7078 2.5-2.5 0.97055-0.88116 1.8562-1.928 3.0357-2.5 1.2606-0.61128 2.7075-0.83004 4.1071-0.89286 1.9177-0.0861 4.2945-0.57758 5.7143 0.71428 0.40591 0.36933 0.35714 1.6072 0.35714 1.6072s-1.59-1.0501-2.5-1.25c-1.8613-0.40882-3.9019-0.41041-5.7143 0.17857-1.7114 0.55617-3.1399 1.8174-4.4643 3.0357-1.1836 1.0888-2.0329 2.4927-3.0357 3.75-1.3216 1.6571-2.476 3.4565-3.9286 5-0.98244 1.0439-2.3291 1.7296-3.2143 2.8572-0.70698 0.90062-1.1041 2.0072-1.6072 3.0357-0.57356 1.1727-1.4084 2.2812-1.6071 3.5714-0.31031 2.014 0.35454 4.0657 0.71429 6.0714 0.35682 1.9894 1.2557 3.8791 1.4286 5.8928 0.15307 1.7831-0.35715 5.3572-0.35715 5.3572z"/>
    <path id="path3966" d="m277.4 208.79s2.4183-1.8047 3.75-2.5c1.5874-0.82875 3.3167-1.3536 5-1.9643 0.88473-0.32099 1.756-0.70656 2.6786-0.89286 1.5215-0.30725 3.0912-0.39821 4.6428-0.35714 1.3802 0.0365 2.8271 0.0185 4.1072 0.53571 2.1303 0.8608 3.7527 2.658 5.5357 4.1071 1.6686 1.3562 3.3798 2.6903 4.8214 4.2857 0.8861 0.98059 1.6724 2.063 2.3214 3.2143 1.0479 1.8587 1.9457 3.8324 2.5 5.8929 0.62333 2.3171 0.46069 4.7826 0.89285 7.1429 0.36403 1.9881 1.4286 5.8929 1.4286 5.8929s-2.0753-3.9244-2.5-6.0714c-0.27724-1.4014 0.24238-2.8779 0-4.2857-0.3322-1.9296-0.98867-3.8381-1.9643-5.5357-1.0102-1.7577-2.494-3.2103-3.9286-4.6429-1.7635-1.761-3.7701-3.2622-5.7143-4.8214-1.2259-0.98319-2.3746-2.097-3.75-2.8571-1.3353-0.73805-2.7845-1.3349-4.2857-1.6071-1.0542-0.19117-2.194-0.32698-3.2143 0-0.97523 0.31253-1.4939 1.5947-2.5 1.7857-0.72334 0.13734-1.4146-0.64408-2.1428-0.53571-2.0598 0.30651-3.3502 2.6584-5.3572 3.2143-0.74573 0.20656-2.3214 0-2.3214 0z"/>
    <path id="path3968" d="m285.97 250.93-6.7857-7.6786-4.1071-4.6429-2.6786-4.1071-0.89285-2.6786 0.53571-5.5357 2.3214-5 1.4286-4.4643 1.0714-3.3929 1.0714-1.25-1.0714 4.8214-2.1429 6.6071-0.89285 6.0714-0.17858 3.75 2.8572 5.3571 6.7857 7.3214z"/>
    <path id="path3970" d="m279.72 248.61s-5.1646-1.9524-7.5-3.3929c-1.3688-0.84428-3.0247-1.6003-3.75-3.0357-0.59116-1.17-0.175-2.6177-0.17857-3.9286-0.004-1.4893 0.22121-2.9756 0.17857-4.4643-0.0702-2.4511-0.71428-7.3214-0.71428-7.3214s1.1134 4.6156 1.4286 6.9643c0.24589 1.8326-0.0508 3.7322 0.35714 5.5357 0.35362 1.5632 0.75416 3.2377 1.7857 4.4643 2.1158 2.5159 8.3928 5.1786 8.3928 5.1786z"/>
    <path id="path3972" d="m259.36 225.04s-2.4688 2.4097-3.2143 3.9286c-0.6998 1.4258-0.78892 3.0799-1.0714 4.6429-0.40577 2.245-1.0839 4.5123-0.89286 6.7857 0.0678 0.80676 0.71428 3.5714 0.71428 2.3214s-1.5556-4.9582-1.4286-7.5c0.0836-1.6741 0.97448-3.2079 1.4286-4.8214 0.25033-0.88951 0.18828-1.9188 0.71429-2.6786 0.87442-1.263 3.75-2.6786 3.75-2.6786z"/>
    <path id="path3974" d="m266.68 220.04s-2.8083 4.6672-3.9286 7.1429c-1.2265 2.7104-2.4636 5.4734-3.0357 8.3929-0.28641 1.4615-0.27172 2.9779-0.17857 4.4643 0.0679 1.0841-0.1096 2.3406 0.53572 3.2143 0.55352 0.74945 1.6094 0.97636 2.5 1.25 0.86103 0.26456 1.8423 0.0225 2.6786 0.35714 1.5033 0.60161 3.9286 2.8571 3.9286 2.8571l5 1.25s-5.468-1.0979-8.0357-2.1428c-1.0121-0.41189-1.825-1.2484-2.8571-1.6072-1.0815-0.37588-2.412 0.0549-3.3929-0.53571-0.76492-0.46054-1.6071-2.1429-1.6071-2.1429l0.35714-7.5s1.1424-3.1146 1.7857-4.6428c0.60974-1.4484 1.1804-2.9237 1.9643-4.2857 1.2356-2.147 4.2857-6.0714 4.2857-6.0714z"/>
    <path id="path3976" d="m257.22 239.15s0.15104 2.777-0.17857 4.1071c-0.301 1.2147-1.0235 2.2859-1.6071 3.3929-0.38569 0.73148-1.25 2.1428-1.25 2.1428s0.60416-2.6542 1.0714-3.9286c0.33919-0.92507 0.92713-1.7477 1.25-2.6786 0.34065-0.98214 0.71428-3.0357 0.71428-3.0357z"/>
    <path id="path3978" d="m286.5 246.65s2.3609 0.62733 3.3928 1.25c0.68567 0.41372 1.2248 1.0356 1.7857 1.6071 0.8276 0.84324 1.7227 1.66 2.3214 2.6786 0.70614 1.2012 1.1868 2.5563 1.4286 3.9286 0.22721 1.2897 0.16 2.6289 0 3.9286-0.14993 1.2179-0.67191 2.3644-0.89286 3.5714-0.18346 1.0022-0.31568 2.0177-0.35714 3.0357-0.0679 1.6664-0.21795 3.3801 0.17857 5 0.32918 1.3448 1.0508 2.5767 1.7857 3.75 1.0116 1.615 3.5714 4.4643 3.5714 4.4643s-2.3663-3.4169-3.0357-5.3571c-0.39261-1.138-0.37994-2.3778-0.53572-3.5714-0.27901-2.1379-0.82251-4.2752-0.71428-6.4286 0.0856-1.7024 0.85508-3.3093 1.0714-5 0.17394-1.3593 0.10323-2.7389 0.17857-4.1071 0.0492-0.89349 0.45722-1.8282 0.17857-2.6786-0.46041-1.405-1.7139-2.4553-2.8571-3.3928-1.0506-0.86156-2.2912-1.5095-3.5714-1.9643-1.2542-0.44556-3.9286-0.71428-3.9286-0.71428z"/>
    <path id="path3980" d="m316.33 233.79s1.8605 3.736 2.5 5.7143c0.69312 2.144 0.64603 4.4941 1.4286 6.6071 0.56424 1.5236 1.5196 2.8727 2.3214 4.2857 1.0932 1.9267 2.0336 3.9651 3.3928 5.7143 1.3946 1.7947 3.2143 3.2143 4.8214 4.8214 0.95238 0.95238 2.1211 1.7292 2.8571 2.8571 1.2564 1.9255 1.5682 4.3266 2.5 6.4286 0.59335 1.3385 1.3095 2.619 1.9643 3.9286 0.77381 1.5476 1.2974 3.2481 2.3214 4.6428 1.42 1.9342 3.7704 3.0572 5.1786 5 1.2812 1.7675 2.2224 3.8042 2.8571 5.8929 0.75148 2.4726 0.64407 5.1298 1.0714 7.6786 0.51157 3.0509 1.0509 6.1022 1.7857 9.1071 0.50111 2.0492 1.3342 4.0108 1.7857 6.0714 0.52785 2.4093 0.33199 4.9684 1.0714 7.3214 0.55864 1.7777 2.1097 3.1779 2.5 5 0.29946 1.3981-0.0475 2.8619-0.17857 4.2857-0.15429 1.6765-0.30538 3.3668-0.71429 5-0.50765 2.0275-2.2473 3.8053-2.1428 5.8928 0.0891 1.7815 1.3646 3.3161 2.3214 4.8214 1.1121 1.7496 3.173 2.8909 3.9286 4.8214 0.34779 0.8886 0.17857 2.8571 0.17857 2.8571s-5.1535-3.5043-7.3214-5.7143c-1.2505-1.2748-2.5874-2.6137-3.2143-4.2857-0.56577-1.509-0.9184-3.3108-0.35714-4.8214 0.6743-1.8149 3.1888-2.4027 4.1071-4.1071 0.98012-1.819 1.1818-4.0063 1.25-6.0714 0.0575-1.7416-0.40819-3.4631-0.71428-5.1786-0.4389-2.4597-1.1338-4.8681-1.6072-7.3214-0.343-1.7776-0.55265-3.579-0.89285-5.3571-0.42343-2.2131-0.72283-4.4672-1.4286-6.6071-0.63414-1.9228-1.3488-3.8702-2.5-5.5357-0.90941-1.3157-2.8454-1.89-3.3929-3.3928-0.47035-1.2912 0.0941-2.7584 0.35714-4.1072 0.15498-0.79464 0.79044-1.5154 0.71429-2.3214-0.1077-1.1399-1.0151-2.0557-1.6072-3.0357-1.4172-2.3458-3.3741-4.3564-4.6428-6.7857-0.85466-1.6365-1.111-3.5414-1.9643-5.1786-0.73257-1.4055-1.7387-2.6524-2.6786-3.9286-1.5325-2.0809-3.1014-4.1427-4.8214-6.0714-1.2326-1.3822-3.0465-2.3002-3.9286-3.9286-0.55049-1.0162-0.21946-2.3484-0.71429-3.3928-1.5045-3.1756-5.4396-4.9-6.6071-8.2143-0.73175-2.0773 0.28258-4.423 0-6.6071-0.3001-2.3196-1.7857-6.7857-1.7857-6.7857z"/>
    <path id="path3982" d="m345.79 303.08s1.0269 4.7724 1.6072 7.1428c0.49772 2.0335 0.91195 4.0967 1.6071 6.0714 0.38935 1.106 1.1623 2.0724 1.4286 3.2143 0.33822 1.4504 0.25443 2.9769 0.17857 4.4643-0.0858 1.6814-0.53911 3.3256-0.71428 5-0.18621 1.78-0.35715 5.3572-0.35715 5.3572s-0.75897-3.5562-0.71428-5.3572c0.0571-2.2992 1.3966-4.4904 1.25-6.7857-0.0996-1.5592-0.9639-2.9726-1.4286-4.4643-0.61041-1.9596-1.3618-3.8846-1.7857-5.8928-0.60691-2.8751-1.0714-8.75-1.0714-8.75z"/>
    <path id="path3984" d="m288.65 208.08 7.5 0.89285 3.3929 5s2.9076 3.5974 3.75 5.7143c0.62599 1.573 0.78014 3.3107 0.89286 5 0.18248 2.7346 0.16917 5.5246-0.35714 8.2143-0.33986 1.7368-1.3369 3.2881-1.7857 5-0.53604 2.0446-0.89221 4.1439-1.0714 6.25-0.13122 1.542 0 4.6428 0 4.6428s-0.73835-5.6801-1.6071-8.3928c-0.73925-2.3082-2.2924-4.3002-3.0357-6.6072-0.76255-2.3667-0.87822-4.8966-1.4286-7.3214-0.36748-1.6191-1.25-4.8214-1.25-4.8214s2.1293 4.1994 2.8572 6.4286c0.69935 2.142 0.71688 4.4692 1.4286 6.6071 0.49635 1.491 1.9643 4.2857 1.9643 4.2857s0.36954-3.5889 0.71429-5.3571c0.36468-1.8705 1.1236-3.6546 1.4286-5.5357 0.27687-1.708 0.49734-3.454 0.35714-5.1786-0.0842-1.0361-0.3035-2.0808-0.71428-3.0357-0.98508-2.29-4.1071-6.25-4.1071-6.25l-1.7857-2.8571z"/>
    <path id="path3986" d="m306.68 218.79s2.0892 2.5826 2.6786 4.1072c0.67399 1.7433 0.38821 3.736 0.89286 5.5357 0.46856 1.671 1.4531 3.163 1.9643 4.8214 0.75309 2.4433 1.4356 4.949 1.6072 7.5 0.10417 1.5487-0.20512 3.0981-0.35715 4.6429-0.14679 1.4916-0.17042 3.0107-0.53571 4.4643-0.35831 1.4258-1.1872 2.6982-1.6071 4.1071-0.7469 2.506-1.477 5.0668-1.6072 7.6786-0.0834 1.6741 0.53572 5 0.53572 5s-1.7485-6.1704-1.4286-9.2857c0.24339-2.3702 1.882-4.3953 2.5-6.6964 0.55585-2.0697 0.98919-4.1978 1.0714-6.3393 0.0757-1.9709-0.2351-3.9435-0.53572-5.8928-0.29717-1.927-0.72296-3.8371-1.25-5.7143-0.49356-1.758-1.3848-3.3972-1.7857-5.1786-0.23669-1.0517-0.131-2.1602-0.35715-3.2143-0.40674-1.8957-1.7857-5.5357-1.7857-5.5357z"/>
    <path id="path3988" d="m319.72 257.54s3.5315 4.6994 4.8214 7.3214c0.80605 1.6384 0.70421 3.7074 1.7857 5.1786 0.83207 1.1319 2.2915 1.6279 3.3928 2.5 1.2249 0.96996 2.7872 1.6844 3.5714 3.0357 0.48636 0.83808 0.10902 1.9872 0.53572 2.8571 1.2625 2.5741 5.7143 6.4286 5.7143 6.4286s-4.7824-3.3163-6.6071-5.5357c-0.86287-1.0495-1.0783-2.5414-1.9643-3.5714-1.6615-1.9314-4.6446-2.5322-6.0714-4.6429-1.2456-1.8425-1.0081-4.345-1.7857-6.4286-0.92164-2.4695-3.3929-7.1429-3.3929-7.1429z"/>
    <path id="path3990" d="m302.93 247.9s-0.36605 6.4281-0.53572 9.6428c-0.0628 1.1903-0.32215 2.3882-0.17857 3.5714 0.22457 1.8508 1.0832 3.5679 1.6072 5.3571 0.48715 1.6635 0.81946 3.3772 1.4286 5 0.39299 1.047 1.4286 3.0357 1.4286 3.0357s-2.542-3.4222-3.3929-5.3571c-0.91831-2.0884-1.3139-4.3751-1.7857-6.6072-0.32382-1.532-0.76004-3.0777-0.71429-4.6428 0.0996-3.4076 2.1429-10 2.1429-10z"/>
    <path id="path3992" d="m315.43 247.72s0.0243 3.6906 0 5.5357c-0.0298 2.2625-0.41486 4.5354-0.17857 6.7857 0.15981 1.522 0.44029 3.0701 1.0714 4.4643 0.51082 1.1284 1.5183 1.9661 2.1428 3.0357 0.63103 1.0807 1.6072 3.3929 1.6072 3.3929s-3.0396-3-4.1072-4.8214c-0.8666-1.4786-1.4367-3.1435-1.7857-4.8214-0.21855-1.0506-0.22232-2.1421-0.17857-3.2143 0.1421-3.4822 1.4286-10.357 1.4286-10.357z"/>
    <path id="path3994" d="m280.61 213.08s3.2201 3.9597 4.2857 6.25c1.2244 2.6318 1.451 5.6238 2.3214 8.3928 0.6436 2.0474 1.1889 4.1489 2.1429 6.0714 1.2034 2.4254 3.2822 4.3499 4.4643 6.7857 0.9862 2.0321 2.1428 6.4286 2.1428 6.4286s-2.4004-4.6993-3.75-6.9643c-1.1662-1.9572-2.7235-3.6803-3.75-5.7143-1.3152-2.606-2.1624-5.4289-3.0357-8.2143-0.49673-1.5842-0.70901-3.2518-1.25-4.8214-0.97286-2.8228-3.5714-8.2143-3.5714-8.2143z"/>
    <path id="path3996" d="m278.65 219.15s-1.1653 4.378-1.0714 6.6071c0.0413 0.98082 0.44439 1.9133 0.71428 2.8571 0.53304 1.8642 0.88619 3.8182 1.7857 5.5357 1.182 2.2569 2.9215 4.1932 4.6428 6.0714 1.2525 1.3667 4.1072 3.75 4.1072 3.75s-4.7015-5.072-6.4286-8.0357c-1.1297-1.9387-1.9464-4.0756-2.5-6.25-0.87255-3.4272-1.25-10.536-1.25-10.536z"/>
    <path id="path3998" d="m284.9 210.76s3.7606 1.2085 5.3572 2.3214c1.4851 1.0353 2.7486 2.4204 3.75 3.9286 0.82576 1.2437 1.7857 4.1071 1.7857 4.1071s-2.6562-3.2878-4.1071-4.8214c-1.1863-1.254-2.3945-2.5027-3.75-3.5714-0.94646-0.74624-3.0357-1.9643-3.0357-1.9643z"/>
    <path id="path4000" d="m272.58 213.97s-3.0178 0.70626-4.4643 1.25c-1.4205 0.53397-2.9651 0.96487-4.1071 1.9643-1.3915 1.2177-3.0357 4.6429-3.0357 4.6429s1.7709-1.4475 2.6786-2.1429c0.87892-0.67336 1.7565-1.3514 2.6786-1.9643 2.0234-1.3448 6.25-3.75 6.25-3.75z"/>
  </g>
  <metadata>
    <rdf:RDF>
      <cc:Work>
        <dc:format>image/svg+xml</dc:format>
        <dc:type rdf:resource="http://purl.org/dc/dcmitype/StillImage"/>
        <cc:license rdf:resource="http://creativecommons.org/licenses/publicdomain/"/>
        <dc:publisher>
          <cc:Agent rdf:about="http://openclipart.org/">
            <dc:title>Openclipart</dc:title>
          </cc:Agent>
        </dc:publisher>
        <dc:title>Kissing Couple</dc:title>
        <dc:date>2013-02-10T11:59:23</dc:date>
        <dc:description>kissing couple</dc:description>
        <dc:source>http://openclipart.org/detail/174982/kissing-couple-by-artbejo-174982</dc:source>
        <dc:creator>
          <cc:Agent>
            <dc:title>artbejo</dc:title>
          </cc:Agent>
        </dc:creator>
        <dc:subject>
          <rdf:Bag>
            <rdf:li>clip art</rdf:li>
            <rdf:li>clipart</rdf:li>
            <rdf:li>couple</rdf:li>
            <rdf:li>kiss</rdf:li>
            <rdf:li>kissing</rdf:li>
            <rdf:li>love</rdf:li>
            <rdf:li>valentine</rdf:li>
            <rdf:li>valentine's day</rdf:li>
          </rdf:Bag>
        </dc:subject>
      </cc:Work>
      <cc:License rdf:about="http://creativecommons.org/licenses/publicdomain/">
        <cc:permits rdf:resource="http://creativecommons.org/ns#Reproduction"/>
        <cc:permits rdf:resource="http://creativecommons.org/ns#Distribution"/>
        <cc:permits rdf:resource="http://creativecommons.org/ns#DerivativeWorks"/>
      </cc:License>
    </rdf:RDF>
  </metadata>
</svg>
