<?xml version="1.0"?><svg xml:space="preserve" width="100%" height="100%" viewBox="0 0 500 500"     xmlns="http://www.w3.org/2000/svg"     xmlns:xlink="http://www.w3.org/1999/xlink">         <desc>    String Art Symbol 60 Degrees        Image that did not make my eBook, STEAM Coded String Art    Step-by-step instructions on creating string art symbols in my eBook, STEAM Coded String Art    Image can be inserted into an SVG image then scaled and positioned where desired.        STEAM Coded String Art is written and illustrated by Jay Nick.    and available as an eBook from the Apple iBookstore    http://www.steamcoded.com        Image written by Jay Nick    Handcoding SVG since 2001    http://www.jaynick.com    Author of Free eBooks using SVG, published by Catto Creations, LLC        STEAM Coded String Art is published by Catto Creations, LLC    Catto Creations mission is Family, Literacy, and Enrichment    Visit http://www.cattocreations.com for award winning children's eBooks        Free ePub3 eBooks at http://www.cattocreations.com/ePub3.html  </desc>         <defs>    <style type="text/css"><![CDATA[      .c1 {stroke:red;fill:none;stroke-width:0.8px;}    ]]>    </style>        <symbol id="pat60" viewBox="0 0 200 200">      <path d="M0,173.2L100,0L200,173.2" />      <path d="M5,164.54L105,8.66" />      <path d="M10,155.88L110,17.32" />      <path d="M15,147.22L115,25.98" />      <path d="M20,138.56L120,34.64" />      <path d="M25,129.90L125,43.30" />      <path d="M30,121.24L130,51.96" />      <path d="M35,112.58L135,60.62" />      <path d="M40,103.92L140,69.28" />      <path d="M45,95.26L145,77.94" />      <path d="M50,86.60L150,86.60" />      <path d="M55,77.94L155,95.26" />      <path d="M60,69.28L160,103.92" />      <path d="M65,60.62L165,112.58" />      <path d="M70,51.96L170,121.24" />      <path d="M75,43.30L175,129.90" />      <path d="M80,34.64L180,138.56" />      <path d="M85,25.98L185,147.22" />      <path d="M90,17.32L190,155.88" />      <path d="M95,8.66L195,164.54" />    </symbol>  </defs>    <rect x="-100%" y="-100%" width="300%" height="300%" style="fill:black;display:none;" />      <g transform="translate(0,0) scale(1)">    <g class="c1">    <g id="i1">      <g transform="translate(125,250)" class="c3">        <use width="250" height="250" xlink:href="#pat60" />      </g>      <g transform="rotate(60,250,250) translate(125,250)">        <use width="250" height="250" xlink:href="#pat60" />      </g>      <g transform="rotate(120,250,250) translate(125,250)">        <use width="250" height="250" xlink:href="#pat60" />      </g>      <g transform="rotate(180,250,250) translate(125,250)">        <use width="250" height="250" xlink:href="#pat60" />      </g>      <g transform="rotate(240,250,250) translate(125,250)">        <use width="250" height="250" xlink:href="#pat60" />      </g>      <g transform="rotate(300,250,250) translate(125,250)">        <use width="250" height="250" xlink:href="#pat60" />      </g>    </g>    </g>    <use width="250" height="250" xlink:href="#i1" class="c1" transform="rotate(15,250,250)" />    <use width="250" height="250" xlink:href="#i1" class="c1" transform="rotate(30,250,250)" />    <use width="250" height="250" xlink:href="#i1" class="c1" transform="rotate(45,250,250)" />  </g></svg>